#N canvas 603 145 315 312 12;
#X obj 123 200 dac~;
#N canvas 119 4 434 686 src 0;
#X obj 80 592 *~;
#X obj 80 562 *~ 0.333;
#X obj 32 522 *~;
#X obj 31 498 osc~;
#X obj 81 522 *~;
#X obj 80 498 osc~;
#X obj 130 522 *~;
#X obj 129 498 osc~;
#X obj 283 529 vline~;
#X obj 283 559 *~;
#X obj 31 150 metro 1000;
#X obj 31 57 tgl 19 0 empty empty empty 0 -10 0 12 #fcfcfc #000000 #000000 0 1;
#X obj 31 180 bng 19 250 50 0 empty empty empty 0 -10 0 12 #fcfcfc #000000 #000000;
#X obj 283 269 / 10;
#X obj 283 293 + 0.1;
#X floatatom 283 317 5 0 0 0 - - - 0;
#X obj 31 458 unpack f f f f f f;
#X msg 283 499 \$1 0 0 \, 0 \$2 0;
#X obj 283 469 pack f f;
#X floatatom 283 430 5 0 0 0 - - - 0;
#X floatatom 345 430 5 0 0 0 - - - 0;
#X obj 31 209 t b b;
#X obj 283 340 t a a;
#X obj 345 394 + 200;
#X obj 345 370 * 1000;
#X obj 31 398 pack f f f;
#X obj 64 368 * 1.4;
#X obj 117 368 * 1.79;
#X obj 31 328 t a a a;
#X msg 31 428 \$1 0.7 \$2 0.45 \$3 0.25;
#X floatatom 31 299 5 0 0 0 - - - 0;
#X obj 31 239 random 10;
#X obj 122 47 random 50;
#X floatatom 122 119 5 0 0 0 - - - 0;
#X obj 122 95 + 400;
#X obj 122 71 * 30;
#X obj 283 239 random 7;
#X obj 31 27 loadbang;
#X obj 80 646 outlet~;
#X obj 31 269 + 600;
#X obj 223 95 loadbang;
#X obj 223 119 random 30;
#X obj 223 143 * 10;
#X obj 223 167 + 400;
#X obj 80 622 *~ 1;
#X connect 0 0 44 0;
#X connect 1 0 0 0;
#X connect 2 0 1 0;
#X connect 3 0 2 0;
#X connect 4 0 1 0;
#X connect 5 0 4 0;
#X connect 6 0 1 0;
#X connect 7 0 6 0;
#X connect 8 0 9 0;
#X connect 8 0 9 1;
#X connect 9 0 0 1;
#X connect 10 0 12 0;
#X connect 10 0 32 0;
#X connect 11 0 10 0;
#X connect 12 0 21 0;
#X connect 13 0 14 0;
#X connect 14 0 15 0;
#X connect 15 0 22 0;
#X connect 16 0 3 0;
#X connect 16 1 2 1;
#X connect 16 2 5 0;
#X connect 16 3 4 1;
#X connect 16 4 7 0;
#X connect 16 5 6 1;
#X connect 17 0 8 0;
#X connect 18 0 17 0;
#X connect 19 0 18 0;
#X connect 20 0 18 1;
#X connect 21 0 31 0;
#X connect 21 1 36 0;
#X connect 22 0 19 0;
#X connect 22 1 24 0;
#X connect 23 0 20 0;
#X connect 24 0 23 0;
#X connect 25 0 29 0;
#X connect 26 0 25 1;
#X connect 27 0 25 2;
#X connect 28 0 25 0;
#X connect 28 1 26 0;
#X connect 28 2 27 0;
#X connect 29 0 16 0;
#X connect 30 0 28 0;
#X connect 31 0 39 0;
#X connect 32 0 35 0;
#X connect 33 0 10 1;
#X connect 34 0 33 0;
#X connect 35 0 34 0;
#X connect 36 0 13 0;
#X connect 37 0 11 0;
#X connect 39 0 30 0;
#X connect 40 0 41 0;
#X connect 41 0 42 0;
#X connect 42 0 43 0;
#X connect 43 0 39 1;
#X connect 44 0 38 0;
#X restore 123 50 pd src;
#X obj 146 100 adc~;
#X obj 123 160 *~;
#X obj 153 160 *~;
#X connect 1 0 3 0;
#X connect 1 0 4 0;
#X connect 2 0 3 1;
#X connect 2 1 4 1;
#X connect 3 0 0 0;
#X connect 4 0 0 1;
