#N canvas 459 0 981 729 12;
#X obj 104 572 *~ 0.25;
#X obj 27 502 *~;
#X obj 12 227 list split 3;
#X obj 13 283 osc~ \$1;
#X obj 92 283 osc~ \$2;
#X obj 14 396 *~;
#X obj 75 397 *~;
#X obj 50 431 *~ 0.5;
#X obj 30 309 t f f;
#X obj 60 333 swap 1;
#X obj 60 358 -;
#X obj 13 255 unpack f f f;
#X obj 61 481 vline~;
#X msg 61 456 1 \$1 0 \, 0 \$2 \$1;
#X obj 172 500 *~;
#X obj 157 225 list split 3;
#X obj 158 281 osc~ \$1;
#X obj 237 281 osc~ \$2;
#X obj 159 394 *~;
#X obj 220 395 *~;
#X obj 195 429 *~ 0.5;
#X obj 175 307 t f f;
#X obj 205 331 swap 1;
#X obj 205 356 -;
#X obj 158 253 unpack f f f;
#X obj 206 479 vline~;
#X msg 206 454 1 \$1 0 \, 0 \$2 \$1;
#X obj 318 498 *~;
#X obj 303 223 list split 3;
#X obj 304 279 osc~ \$1;
#X obj 383 279 osc~ \$2;
#X obj 305 392 *~;
#X obj 366 393 *~;
#X obj 341 427 *~ 0.5;
#X obj 321 305 t f f;
#X obj 351 329 swap 1;
#X obj 351 354 -;
#X obj 304 251 unpack f f f;
#X obj 352 477 vline~;
#X msg 352 452 1 \$1 0 \, 0 \$2 \$1;
#X obj 463 496 *~;
#X obj 448 221 list split 3;
#X obj 449 277 osc~ \$1;
#X obj 528 277 osc~ \$2;
#X obj 450 390 *~;
#X obj 511 391 *~;
#X obj 486 425 *~ 0.5;
#X obj 466 303 t f f;
#X obj 496 327 swap 1;
#X obj 496 352 -;
#X obj 449 249 unpack f f f;
#X obj 497 475 vline~;
#X msg 497 450 1 \$1 0 \, 0 \$2 \$1;
#X obj 248 128 * 6.9;
#X obj 300 129 * 5.2;
#X obj 350 129 * 10.8;
#X floatatom 198 94 5 0 0 0 - - - 0;
#X msg 15 166 \$1 0.7 456 40 5000;
#X msg 161 168 \$1 0.3 1111 100 4000;
#X msg 321 166 \$1 0.5 210 2300 3000;
#X msg 487 166 \$1 0.7 2200 3 2000;
#X text 275 93 80~140;
#X obj 522 22 loadbang;
#X obj 522 46 metro 5000;
#X obj 672 50 random 2000;
#X floatatom 672 98 5 0 0 0 - - - 0;
#X obj 470 14 bng 19 250 50 0 empty empty empty 0 -10 0 12 #fcfcfc #000000 #000000;
#X obj 522 70 bng 19 250 50 0 empty empty empty 0 -10 0 12 #fcfcfc #000000 #000000;
#X obj 522 94 random 60;
#X obj 522 118 + 80;
#X obj 672 74 + 5000;
#X obj 162 572 adc~;
#X obj 103 600 *~;
#X obj 143 600 *~;
#X obj 103 624 dac~;
#X connect 0 0 72 0;
#X connect 0 0 73 0;
#X connect 1 0 0 0;
#X connect 2 0 11 0;
#X connect 2 1 13 0;
#X connect 3 0 5 0;
#X connect 4 0 6 1;
#X connect 5 0 7 0;
#X connect 6 0 7 0;
#X connect 7 0 1 0;
#X connect 8 0 5 1;
#X connect 8 1 9 0;
#X connect 9 0 10 0;
#X connect 9 1 10 1;
#X connect 10 0 6 0;
#X connect 11 0 3 0;
#X connect 11 1 8 0;
#X connect 11 2 4 0;
#X connect 12 0 1 1;
#X connect 13 0 12 0;
#X connect 14 0 0 0;
#X connect 15 0 24 0;
#X connect 15 1 26 0;
#X connect 16 0 18 0;
#X connect 17 0 19 1;
#X connect 18 0 20 0;
#X connect 19 0 20 0;
#X connect 20 0 14 0;
#X connect 21 0 18 1;
#X connect 21 1 22 0;
#X connect 22 0 23 0;
#X connect 22 1 23 1;
#X connect 23 0 19 0;
#X connect 24 0 16 0;
#X connect 24 1 21 0;
#X connect 24 2 17 0;
#X connect 25 0 14 1;
#X connect 26 0 25 0;
#X connect 27 0 0 0;
#X connect 28 0 37 0;
#X connect 28 1 39 0;
#X connect 29 0 31 0;
#X connect 30 0 32 1;
#X connect 31 0 33 0;
#X connect 32 0 33 0;
#X connect 33 0 27 0;
#X connect 34 0 31 1;
#X connect 34 1 35 0;
#X connect 35 0 36 0;
#X connect 35 1 36 1;
#X connect 36 0 32 0;
#X connect 37 0 29 0;
#X connect 37 1 34 0;
#X connect 37 2 30 0;
#X connect 38 0 27 1;
#X connect 39 0 38 0;
#X connect 40 0 0 0;
#X connect 41 0 50 0;
#X connect 41 1 52 0;
#X connect 42 0 44 0;
#X connect 43 0 45 1;
#X connect 44 0 46 0;
#X connect 45 0 46 0;
#X connect 46 0 40 0;
#X connect 47 0 44 1;
#X connect 47 1 48 0;
#X connect 48 0 49 0;
#X connect 48 1 49 1;
#X connect 49 0 45 0;
#X connect 50 0 42 0;
#X connect 50 1 47 0;
#X connect 50 2 43 0;
#X connect 51 0 40 1;
#X connect 52 0 51 0;
#X connect 53 0 58 0;
#X connect 54 0 59 0;
#X connect 55 0 60 0;
#X connect 56 0 53 0;
#X connect 56 0 54 0;
#X connect 56 0 55 0;
#X connect 56 0 57 0;
#X connect 57 0 2 0;
#X connect 58 0 15 0;
#X connect 59 0 28 0;
#X connect 60 0 41 0;
#X connect 62 0 63 0;
#X connect 63 0 64 0;
#X connect 63 0 67 0;
#X connect 64 0 70 0;
#X connect 65 0 63 1;
#X connect 66 0 63 0;
#X connect 67 0 68 0;
#X connect 68 0 69 0;
#X connect 69 0 56 0;
#X connect 70 0 65 0;
#X connect 71 0 72 1;
#X connect 71 1 73 1;
#X connect 72 0 74 0;
#X connect 73 0 74 1;
