#N canvas 282 65 521 797 12;
#X obj 279 768 dac~;
#X obj 126 365 vline~;
#X obj 103 445 pow~;
#X obj 103 421 sig~ 2.71828;
#X obj 103 631 osc~;
#X obj 103 519 +~ 80;
#X obj 87 654 *~;
#X obj 87 399 *~;
#X obj 103 607 +~;
#X obj 126 278 metro 500;
#X obj 118 586 *~;
#X obj 126 321 f;
#X msg 126 343 1 1 0 \, 0 \$1 1;
#X obj 142 300 * 200;
#X obj 118 541 osc~ 120;
#X obj 255 635 *~;
#X obj 156 228 line;
#X obj 197 421 sig~;
#X obj 103 497 *~;
#X obj 134 562 *~ 70;
#X obj 126 205 t b a;
#X obj 119 472 *~ 130;
#X obj 184 254 * 300;
#X floatatom 275 351 5 0 0 0 - - - 0;
#X msg 126 183 1 \, 0 5000;
#X obj 255 659 *~ 0.1;
#X obj 291 281 random 10;
#X obj 286 316 / 2;
#X obj 185 143 t b b;
#X obj 272 62 tgl 19 0 empty empty empty 0 -10 0 12 #fcfcfc #000000 #000000 0 1;
#X floatatom 427 227 5 0 0 0 - - - 0;
#X obj 258 94 metro 1000;
#X obj 380 166 * 100;
#X obj 380 142 random 40;
#X obj 380 190 + 1000;
#X obj 185 15 loadbang;
#X obj 356 614 adc~;
#X obj 275 736 *~;
#X obj 315 736 *~;
#X connect 1 0 2 1;
#X connect 1 0 7 0;
#X connect 1 0 7 1;
#X connect 2 0 18 0;
#X connect 3 0 2 0;
#X connect 4 0 6 1;
#X connect 5 0 8 0;
#X connect 6 0 15 0;
#X connect 7 0 6 0;
#X connect 8 0 4 0;
#X connect 9 0 11 0;
#X connect 10 0 8 1;
#X connect 11 0 12 0;
#X connect 12 0 1 0;
#X connect 13 0 11 1;
#X connect 14 0 10 0;
#X connect 15 0 25 0;
#X connect 16 0 13 0;
#X connect 16 0 17 0;
#X connect 16 0 22 0;
#X connect 17 0 15 1;
#X connect 17 0 19 0;
#X connect 17 0 21 0;
#X connect 18 0 5 0;
#X connect 19 0 10 1;
#X connect 20 0 9 0;
#X connect 20 1 16 0;
#X connect 21 0 18 1;
#X connect 22 0 9 1;
#X connect 23 0 3 0;
#X connect 24 0 20 0;
#X connect 25 0 37 0;
#X connect 25 0 38 0;
#X connect 26 0 27 0;
#X connect 27 0 23 0;
#X connect 28 0 24 0;
#X connect 28 1 26 0;
#X connect 29 0 31 0;
#X connect 31 0 28 0;
#X connect 31 0 33 0;
#X connect 32 0 34 0;
#X connect 33 0 32 0;
#X connect 34 0 30 0;
#X connect 34 0 31 1;
#X connect 35 0 29 0;
#X connect 36 0 37 1;
#X connect 36 1 38 1;
#X connect 37 0 0 0;
#X connect 38 0 0 1;
