#N canvas 689 49 542 417 12;
#X obj 65 207 osc~;
#X obj 65 307 outlet~;
#X obj 65 246 *~;
#X obj 65 139 t f b, f 7;
#X obj 65 171 mtof;
#X obj 111 207 vline~;
#X obj 65 66 inlet;
#X obj 65 104 route float;
#X obj 111 246 pow~ 4;
#X msg 111 171 0.5 50 \, 0 4000 50;
#X connect 0 0 2 0;
#X connect 2 0 1 0;
#X connect 3 0 4 0;
#X connect 3 1 9 0;
#X connect 4 0 0 0;
#X connect 5 0 8 0;
#X connect 6 0 7 0;
#X connect 7 0 3 0;
#X connect 8 0 2 1;
#X connect 9 0 5 0;
