#N canvas 376 0 1366 695 12;
#X obj 245 584 +~ 1;
#X obj 245 610 *~ 50;
#X obj 245 689 *~;
#X obj 120 313 metro 0.5 120 permin;
#X obj 120 337 bng 16 250 50 0 empty empty empty 0 -12 0 16 #fcfcfc #000000 #000000;
#X obj 56 275 tgl 19 0 empty empty empty 0 -12 0 16 #fcfcfc #000000 #000000 0 1;
#X msg 120 281 tempo \$1 permin;
#X floatatom 120 252 5 0 0 1 bpm - - 0;
#X obj 120 359 f;
#X obj 166 359 + 1;
#X floatatom 121 384 5 0 0 0 - - - 0;
#X floatatom 186 405 5 0 0 0 - - - 0;
#X obj 122 463 bng 16 250 50 0 empty empty empty 0 -16 0 24 #fcfcfc #000000 #000000;
#X obj 145 463 bng 16 250 50 0 empty empty empty 0 -16 0 24 #fcfcfc #000000 #000000;
#X obj 170 463 bng 16 250 50 0 empty empty empty 0 -16 0 24 #fcfcfc #000000 #000000;
#X floatatom 122 490 5 0 0 0 - - - 0;
#X obj 122 529 sel 0;
#X obj 122 559 mtof;
#X obj 122 663 line~;
#X msg 122 637 \$1 \$2;
#X obj 122 611 pack;
#X floatatom 122 586 5 0 0 0 - - - 0;
#X floatatom 168 581 5 0 0 1 ramp - - 0;
#X obj 327 544 expr~ ($v1+1)/2;
#X obj 327 568 expr~ 1-$v1;
#X obj 327 595 *~;
#X floatatom 389 597 5 0 3 1 VolAM - - 0;
#X obj 245 662 *~;
#X obj 327 518 osc~;
#X obj 245 559 osc~ 440;
#X obj 377 509 line;
#X msg 120 214 10;
#X msg 153 214 20;
#X msg 187 214 30;
#X msg 222 213 40;
#X obj 376 358 random 3;
#X obj 376 383 sel 0 1 2;
#X obj 120 152 random 4;
#X obj 120 180 sel 0 1 2 3;
#X obj 120 96 tgl 19 0 empty empty empty 0 -10 0 12 #fcfcfc #000000 #000000 0 1;
#X floatatom 212 179 5 0 0 0 - - - 0;
#X obj 120 125 metro 3000;
#X msg 385 435 1 200;
#X msg 376 411 0 1000;
#X msg 395 460 0 1400;
#X msg 405 483 0 1800;
#X obj 214 461 bng 16 250 50 0 empty empty empty 0 -16 0 24 #fcfcfc #000000 #000000;
#X floatatom 232 490 5 0 0 0 - - - 0;
#X obj 122 432 sel 0 1 2 3 4 5;
#X obj 122 406 mod 6;
#X obj 414 184 osc~;
#X obj 414 210 +~ 1;
#X obj 414 259 snapshot~;
#X obj 489 337 metro 100;
#X obj 489 311 tgl 20 0 empty empty empty 0 -16 0 24 #fcfcfc #000000 #000000 0 1;
#X floatatom 327 495 5 0 0 0 - - - 0;
#X obj 328 473 +;
#X obj 414 234 *~ 150;
#X msg 164 490 0;
#X msg 199 490 0;
#X obj 56 228 loadbang;
#X msg 56 251 1;
#X obj 120 49 loadbang;
#X msg 120 72 1;
#X obj 489 262 loadbang;
#X msg 489 285 1;
#X floatatom 372 156 5 0 0 0 - - - 0;
#X floatatom 414 156 5 0 0 0 - - - 0;
#X floatatom 289 156 5 0 0 0 - - - 0;
#X floatatom 331 156 5 0 0 0 - - - 0;
#X floatatom 458 158 5 0 0 0 - - - 0;
#X obj 331 117 unpack f f f f f;
#X obj 213 30 tgl 19 0 empty empty empty 0 -10 0 12 #fcfcfc #000000 #000000 0 1;
#X obj 213 81 t b b;
#X obj 213 131 * 10;
#X obj 213 106 random 4;
#X obj 213 56 metro 3000;
#X obj 379 294 +;
#X floatatom 381 324 5 0 0 0 - - - 0;
#X msg 369 -23 1 -2 3596 30 0.5;
#N canvas 0 22 450 278 (subpatch) 0;
#X array \$0-shaping 100 float 1;
#A 0 0.159999 0.159999 0.159999 0.159999 0.159999 0.159999 0.159999 0.159999 0.159999 0.15 0.14 0.14 0.13 0.12 0.110001 0.110001 0.110001 0.100001 0.100001 0.100001 0.100001 0.100001 0.0900012 0.0900012 0.0900012 0.0800015 0.060002 0.0500022 7.15256e-07 -0.0399983 -0.0599978 -0.0899971 -0.119996 -0.134996 -0.159995 -0.189995 -0.209994 -0.229994 -0.249993 -0.269993 -0.299992 -0.339991 -0.35999 -0.38999 -0.429989 -0.479987 -0.509987 -0.519986 -0.489987 -0.459988 -0.439988 -0.419989 -0.37999 -0.329991 -0.299992 -0.269993 -0.249993 -0.219994 -0.199994 -0.179995 -0.169995 -0.159995 -0.129996 -0.109997 -0.0799973 -0.0699975 -0.049998 -0.0399983 -0.0199988 7.15256e-07 0.0100005 0.0200002 0.03 0.03 0.03 0.0399997 0.0399997 0.0399997 0.0399997 0.0399997 0.0399997 0.0399997 0.0399997 0.0399997 0.0399997 0.0399997 0.0399997 0.0399997 0.0399997 0.0399997 0.0399997 0.03 0.03 0.0200002 0.0100005 0.0100005 7.15256e-07 -0.00999904 -0.00999904 -0.00999904;
#X coords 0 -1 100 1 200 200 1 0 0;
#X restore 486 392 graph;
#X obj 245 636 tabread~ \$0-shaping;
#X msg 370 0 2 -5 1220 60 0.4;
#X msg 370 23 -3 2 1615 10 0.4;
#X msg 370 45 -7 -2 3996 30 0.6;
#X msg 370 67 1 7 11086 390 0.5;
#X msg 370 90 -2 2 1 -10 0.5;
#X obj 222 -32 hradio 19 1 0 6 empty empty empty 0 -10 0 12 #fcfcfc #000000 #000000 0;
#X obj 222 -6 sel 0 1 2 3 4 5;
#X obj 245 719 *~;
#X obj 285 719 *~;
#X obj 283 683 adc~;
#X obj 245 745 dac~;
#X obj 598 39 loadbang;
#X obj 598 63 random 6;
#X connect 0 0 1 0;
#X connect 1 0 81 0;
#X connect 2 0 89 0;
#X connect 2 0 90 0;
#X connect 3 0 4 0;
#X connect 4 0 8 0;
#X connect 5 0 3 0;
#X connect 6 0 3 0;
#X connect 7 0 6 0;
#X connect 8 0 9 0;
#X connect 8 0 10 0;
#X connect 9 0 8 1;
#X connect 10 0 49 0;
#X connect 12 0 15 0;
#X connect 13 0 35 0;
#X connect 13 0 58 0;
#X connect 14 0 59 0;
#X connect 15 0 16 0;
#X connect 16 1 17 0;
#X connect 17 0 21 0;
#X connect 18 0 29 0;
#X connect 19 0 18 0;
#X connect 20 0 19 0;
#X connect 21 0 20 0;
#X connect 22 0 20 1;
#X connect 23 0 24 0;
#X connect 24 0 25 0;
#X connect 25 0 27 1;
#X connect 26 0 25 1;
#X connect 27 0 2 0;
#X connect 28 0 23 0;
#X connect 29 0 0 0;
#X connect 30 0 26 0;
#X connect 31 0 7 0;
#X connect 32 0 7 0;
#X connect 33 0 7 0;
#X connect 34 0 7 0;
#X connect 35 0 36 0;
#X connect 36 0 43 0;
#X connect 36 1 44 0;
#X connect 36 2 45 0;
#X connect 37 0 38 0;
#X connect 37 0 40 0;
#X connect 38 0 31 0;
#X connect 38 1 32 0;
#X connect 38 2 33 0;
#X connect 38 3 34 0;
#X connect 39 0 41 0;
#X connect 41 0 37 0;
#X connect 42 0 30 0;
#X connect 43 0 30 0;
#X connect 44 0 30 0;
#X connect 45 0 30 0;
#X connect 46 0 47 0;
#X connect 46 0 42 0;
#X connect 47 0 16 0;
#X connect 48 0 12 0;
#X connect 48 1 13 0;
#X connect 48 2 14 0;
#X connect 48 5 46 0;
#X connect 49 0 11 0;
#X connect 49 0 48 0;
#X connect 50 0 51 0;
#X connect 51 0 57 0;
#X connect 52 0 56 0;
#X connect 53 0 52 0;
#X connect 54 0 53 0;
#X connect 55 0 28 0;
#X connect 56 0 55 0;
#X connect 57 0 52 0;
#X connect 58 0 16 0;
#X connect 59 0 16 0;
#X connect 60 0 61 0;
#X connect 61 0 5 0;
#X connect 62 0 63 0;
#X connect 62 0 72 0;
#X connect 63 0 39 0;
#X connect 64 0 65 0;
#X connect 65 0 54 0;
#X connect 66 0 56 1;
#X connect 66 0 77 0;
#X connect 67 0 50 0;
#X connect 68 0 15 0;
#X connect 69 0 47 0;
#X connect 70 0 2 1;
#X connect 71 0 68 0;
#X connect 71 1 69 0;
#X connect 71 2 66 0;
#X connect 71 3 67 0;
#X connect 71 4 70 0;
#X connect 72 0 76 0;
#X connect 73 0 75 0;
#X connect 73 1 66 0;
#X connect 74 0 77 1;
#X connect 75 0 74 0;
#X connect 76 0 73 0;
#X connect 77 0 78 0;
#X connect 78 0 56 1;
#X connect 79 0 71 0;
#X connect 81 0 27 0;
#X connect 82 0 71 0;
#X connect 83 0 71 0;
#X connect 84 0 71 0;
#X connect 85 0 71 0;
#X connect 86 0 71 0;
#X connect 87 0 88 0;
#X connect 88 0 79 0;
#X connect 88 1 82 0;
#X connect 88 2 83 0;
#X connect 88 3 84 0;
#X connect 88 4 85 0;
#X connect 88 5 86 0;
#X connect 89 0 92 0;
#X connect 90 0 92 1;
#X connect 91 0 89 1;
#X connect 91 1 90 1;
#X connect 93 0 94 0;
#X connect 94 0 87 0;
