#N canvas 337 71 838 763 12;
#X obj 28 164 -~ 0.5;
#X obj 28 187 *~;
#X obj 28 210 *~ -4;
#X obj 28 233 +~ 1;
#X obj 28 256 *~ 0.5;
#X obj 28 26 noise~;
#X obj 28 95 max~ 0;
#X obj 28 141 phasor~;
#X obj 12 414 *~ 0.03;
#X obj 107 720 dac~;
#X obj 28 118 *~ 3340;
#X obj 28 49 lop~ 20;
#X obj 28 72 lop~ 20;
#X obj 28 279 lop~ 90;
#X obj 28 302 samphold~;
#X obj 28 325 rzero~ 0.99;
#X obj 28 348 *~ 12;
#X obj 12 379 +~;
#X obj 102 530 *~ 500;
#X obj 102 562 hip~ 400;
#X floatatom 125 424 5 0 0 0 - - - 0;
#X floatatom 195 424 5 0 0 0 - - - 0;
#X floatatom 266 424 5 0 0 0 - - - 0;
#X obj 167 118 tgl 19 0 empty empty empty 0 -10 0 12 #fcfcfc #000000 #000000 0 1;
#X obj 125 397 mtof;
#X obj 195 399 mtof;
#X obj 266 399 mtof;
#X floatatom 326 431 5 0 0 0 - - - 0;
#X obj 167 160 metro 8000;
#X obj 265 26 random 20;
#X floatatom 265 98 5 0 0 0 - - - 0;
#X obj 326 382 loadbang;
#X msg 326 406 400;
#X obj 167 67 loadbang;
#X msg 167 91 1;
#N canvas 0 22 450 278 (subpatch) 0;
#X array \$0-blue-note 7 float 3;
#A 0 0 3 5 6 7 10 12;
#X coords 0 12 7 0 200 140 1 0 0;
#X restore 565 179 graph;
#X obj 585 497 loadbang;
#X obj 585 522 f \$0;
#X obj 553 480 bng 19 250 50 0 empty empty empty 0 -10 0 12 #fcfcfc #000000 #000000;
#X msg 585 546 \; \$1-blue-note 0 0 3 5 6 7 10 12;
#X obj 125 370 + 60;
#X obj 195 370 + 72;
#X obj 266 370 + 48;
#X obj 125 343 tabread \$0-blue-note;
#X obj 125 317 random 7;
#X obj 192 316 tabread \$0-blue-note;
#X obj 192 290 random 7;
#X obj 265 289 tabread \$0-blue-note;
#X obj 265 263 random 7;
#X obj 24 488 bp~ 30 400;
#X obj 120 488 bp~ 31 400;
#X obj 211 490 bp~ 32 400;
#X obj 265 74 + 3000;
#X obj 265 50 * 200;
#X obj 174 618 adc~;
#X obj 102 668 *~;
#X obj 142 668 *~;
#X obj 102 586 *~ 5;
#X connect 0 0 1 0;
#X connect 0 0 1 1;
#X connect 1 0 2 0;
#X connect 2 0 3 0;
#X connect 3 0 4 0;
#X connect 4 0 13 0;
#X connect 5 0 11 0;
#X connect 6 0 10 0;
#X connect 7 0 0 0;
#X connect 7 0 14 1;
#X connect 8 0 49 0;
#X connect 8 0 50 0;
#X connect 8 0 51 0;
#X connect 10 0 7 0;
#X connect 11 0 12 0;
#X connect 12 0 6 0;
#X connect 13 0 14 0;
#X connect 13 0 17 0;
#X connect 14 0 15 0;
#X connect 15 0 16 0;
#X connect 16 0 17 1;
#X connect 17 0 8 0;
#X connect 18 0 19 0;
#X connect 19 0 57 0;
#X connect 20 0 49 1;
#X connect 21 0 50 1;
#X connect 22 0 51 1;
#X connect 23 0 28 0;
#X connect 24 0 20 0;
#X connect 25 0 21 0;
#X connect 26 0 22 0;
#X connect 27 0 49 2;
#X connect 27 0 50 2;
#X connect 27 0 51 2;
#X connect 28 0 29 0;
#X connect 28 0 44 0;
#X connect 28 0 46 0;
#X connect 28 0 48 0;
#X connect 29 0 53 0;
#X connect 30 0 28 1;
#X connect 31 0 32 0;
#X connect 32 0 27 0;
#X connect 33 0 34 0;
#X connect 34 0 23 0;
#X connect 36 0 37 0;
#X connect 37 0 39 0;
#X connect 38 0 37 0;
#X connect 40 0 24 0;
#X connect 41 0 25 0;
#X connect 42 0 26 0;
#X connect 43 0 40 0;
#X connect 44 0 43 0;
#X connect 45 0 41 0;
#X connect 46 0 45 0;
#X connect 47 0 42 0;
#X connect 48 0 47 0;
#X connect 49 0 18 0;
#X connect 50 0 18 0;
#X connect 51 0 18 0;
#X connect 52 0 30 0;
#X connect 53 0 52 0;
#X connect 54 0 55 1;
#X connect 54 1 56 1;
#X connect 55 0 9 0;
#X connect 56 0 9 1;
#X connect 57 0 55 0;
#X connect 57 0 56 0;
