#N canvas 150 93 450 341 12;
#X obj 173 231 hv.curve~;
#X obj 80 74 bng 19 250 50 0 empty empty empty 0 -10 0 12 #fcfcfc #000000 #000000;
#X obj 80 39 inlet;
#X obj 173 275 outlet~;
#X msg 173 191 1 \$1 -3 \, 0 \$2 -3 \$1;
#X obj 244 39 inlet;
#X obj 303 39 inlet;
#X obj 173 121 f \$1;
#X floatatom 107 160 5 0 0 0 - - - 0;
#X obj 173 151 pack 1 \$2;
#X connect 0 0 3 0;
#X connect 1 0 7 0;
#X connect 2 0 1 0;
#X connect 4 0 0 0;
#X connect 5 0 7 1;
#X connect 6 0 9 1;
#X connect 7 0 8 0;
#X connect 7 0 9 0;
#X connect 9 0 4 0;
