#N canvas 150 93 450 300 12;
#X obj 183 181 hv.curve~;
#X obj 100 61 bng 19 250 50 0 empty empty empty 0 -10 0 12 #fcfcfc #000000 #000000;
#X obj 183 29 loadbang;
#X obj 183 53 t b b;
#X obj 183 77 f \$1;
#X obj 236 77 f \$2;
#X obj 183 101 pack f f;
#X obj 100 26 inlet;
#X obj 183 225 outlet~;
#X msg 183 141 1 \$1 -3 \, 0 \$2 -3 \$1;
#X connect 0 0 8 0;
#X connect 1 0 6 0;
#X connect 2 0 3 0;
#X connect 3 0 4 0;
#X connect 3 1 5 0;
#X connect 4 0 6 0;
#X connect 5 0 6 1;
#X connect 6 0 9 0;
#X connect 7 0 1 0;
#X connect 9 0 0 0;
