#N canvas 624 133 512 706 12;
#X obj 133 72 hip~ 40;
#X obj 133 431 bob~, f 21;
#X obj 223 97 bng 19 250 50 0 empty empty empty 0 -10 0 12 #fcfcfc #000000 #000000;
#X obj 223 169 vsl 19 162 0 127 0 0 empty empty empty 0 -9 0 12 #fcfcfc #000000 #000000 0 1;
#X floatatom 223 339 5 0 0 0 - - - 0;
#X obj 223 362 mtof;
#X floatatom 223 386 5 0 0 0 - - - 0;
#X obj 223 73 threshold~ 0.99 1 0.01 1;
#X obj 223 145 + 40;
#X obj 223 121 random 68;
#X msg 301 378 2.6;
#X obj 338 313 loadbang;
#X obj 133 24 phasor~ 2;
#X obj 171 579 dac~;
#X obj 187 499 adc~;
#X obj 155 543 *~;
#X obj 199 542 *~;
#X obj 133 455 *~ 0.3;
#X connect 0 0 1 0;
#X connect 1 0 17 0;
#X connect 2 0 9 0;
#X connect 3 0 4 0;
#X connect 4 0 5 0;
#X connect 5 0 6 0;
#X connect 6 0 1 1;
#X connect 7 0 2 0;
#X connect 8 0 3 0;
#X connect 9 0 8 0;
#X connect 10 0 1 2;
#X connect 11 0 10 0;
#X connect 12 0 0 0;
#X connect 12 0 7 0;
#X connect 14 0 15 1;
#X connect 14 1 16 1;
#X connect 15 0 13 0;
#X connect 16 0 13 1;
#X connect 17 0 15 0;
#X connect 17 0 16 0;
