#N canvas 26 56 1366 695 12;
#X obj 1127 341 line;
#X msg 1127 259 0 \, 1 9000;
#X obj 1127 389 swap 1;
#X obj 1127 413 -;
#X obj 1127 437 * 300;
#X obj 1127 461 + 600;
#X obj 1127 365 trigger float float;
#X obj 1257 423 + 100;
#X obj 1257 399 * 2000;
#X obj 779 276 line;
#X msg 811 250 1 800;
#X msg 747 250 0 800;
#X obj 779 324 + 4;
#N canvas 235 30 358 287 openpipe 0;
#X obj 197 77 * 3;
#X obj 231 77 * 5;
#X obj 265 77 * 7;
#X obj 163 77 * 1;
#X obj 73 46 inlet~;
#X obj 93 237 outlet~;
#X obj 163 29 inlet length;
#X obj 93 122 bp~ 1 30;
#X obj 113 146 bp~ 1 30;
#X obj 133 170 bp~ 1 30;
#X obj 153 194 bp~ 1 30;
#X obj 163 53 trigger f f f f;
#X connect 0 0 8 1;
#X connect 1 0 9 1;
#X connect 2 0 10 1;
#X connect 3 0 7 1;
#X connect 4 0 7 0;
#X connect 4 0 8 0;
#X connect 4 0 9 0;
#X connect 4 0 10 0;
#X connect 6 0 11 0;
#X connect 7 0 5 0;
#X connect 8 0 5 0;
#X connect 9 0 5 0;
#X connect 10 0 5 0;
#X connect 11 0 3 0;
#X connect 11 1 0 0;
#X connect 11 2 1 0;
#X connect 11 3 2 0;
#X restore 810 459 pd openpipe;
#N canvas 632 44 452 430 waterflow 0;
#X obj 55 242 osc~;
#X obj 55 192 line~;
#X obj 95 350 *~;
#X obj 112 326 *~;
#X obj 55 72 metro 6;
#X obj 55 144 + 800;
#X obj 112 301 *~ 0.9;
#X obj 112 277 lop~ 10;
#N canvas 509 84 378 370 bilexp 0;
#X obj 55 197 expr exp($f1);
#X obj 55 69 random 8192;
#X obj 55 157 * 9;
#X obj 55 133 / 4096;
#X obj 123 108 > 4096;
#X obj 123 132 sel 0 1, f 11;
#X msg 123 156 -1;
#X msg 160 156 1;
#X obj 55 230 *;
#X obj 55 254 / 23000;
#X obj 55 45 t b;
#X obj 55 21 inlet;
#X obj 55 278 outlet;
#X obj 55 109 mod 4096;
#X text 55 306 exponential -8103/23000 ~ +8103/23000;
#X text 53 320 == exponential -0.352 ~ +0.352;
#X connect 0 0 8 0;
#X connect 1 0 4 0;
#X connect 1 0 13 0;
#X connect 2 0 0 0;
#X connect 3 0 2 0;
#X connect 4 0 5 0;
#X connect 5 0 6 0;
#X connect 5 1 7 0;
#X connect 6 0 8 1;
#X connect 7 0 8 1;
#X connect 8 0 9 0;
#X connect 9 0 12 0;
#X connect 10 0 1 0;
#X connect 11 0 10 0;
#X connect 13 0 3 0;
#X restore 55 96 pd bilexp;
#X obj 112 253 clip~ 0 1;
#X obj 55 168 pack 1 2.689;
#X obj 55 120 * 1600;
#X msg 55 48 1;
#X obj 55 24 loadbang;
#X obj 112 229 fexpr~ $x1 - $x1[-1];
#X obj 95 374 *~ 0.3;
#X obj 95 398 outlet~;
#X obj 129 43 inlet rate;
#X obj 153 93 inlet depth;
#X text 153 119 exponential -563 ~ +563;
#X text 183 173 exponential +236 ~ +1363;
#X text 229 73 900 -> 600;
#X text 193 153 exponential +336 ~ +1463;
#X text 193 193 exponential +36 ~ +1163;
#X floatatom 261 29 5 0 0 0 - - - 0;
#X connect 0 0 2 0;
#X connect 1 0 0 0;
#X connect 1 0 14 0;
#X connect 2 0 15 0;
#X connect 3 0 2 1;
#X connect 4 0 8 0;
#X connect 5 0 10 0;
#X connect 6 0 3 0;
#X connect 6 0 3 1;
#X connect 7 0 6 0;
#X connect 8 0 11 0;
#X connect 9 0 7 0;
#X connect 10 0 1 0;
#X connect 11 0 5 0;
#X connect 12 0 4 0;
#X connect 13 0 12 0;
#X connect 14 0 9 0;
#X connect 15 0 16 0;
#X connect 17 0 4 1;
#X connect 17 0 24 0;
#X connect 18 0 5 1;
#X restore 779 408 pd waterflow;
#X obj 811 546 *~;
#X obj 828 523 lop~ 0.5;
#X obj 828 500 sig~;
#X obj 908 312 line;
#X msg 908 255 1 300;
#X msg 931 279 0 1200;
#N canvas 46 59 394 536 bubblefactory 0;
#N canvas 332 25 570 560 bubble 0;
#X obj 60 405 osc~;
#X obj 60 444 *~;
#X obj 30 61 inlet;
#X obj 60 469 outlet~;
#N canvas 231 126 309 251 env4pow 0;
#X obj 73 69 vline~;
#X obj 72 95 *~;
#X obj 72 120 *~;
#X obj 24 157 -~;
#X obj 24 181 outlet~;
#X msg 73 42 1 0 0 \, 0 \$1 0;
#X obj 73 18 inlet;
#X obj 23 119 sig~ 1;
#X obj 82 181 outlet~;
#X connect 0 0 1 0;
#X connect 0 0 1 1;
#X connect 1 0 2 0;
#X connect 1 0 2 1;
#X connect 2 0 3 1;
#X connect 2 0 8 0;
#X connect 3 0 4 0;
#X connect 5 0 0 0;
#X connect 6 0 5 0;
#X connect 7 0 3 0;
#X restore 60 325 pd env4pow;
#X obj 30 83 unpack f f;
#X obj 125 347 *~;
#X obj 30 146 spigot;
#X obj 67 123 != 0;
#X obj 30 240 swap 1;
#X obj 124 369 lop~ 120;
#X obj 30 263 /;
#X obj 30 189 + 0.4;
#X obj 124 395 *~;
#X obj 186 325 swap 1;
#X obj 186 348 -;
#X obj 30 168 t f f f;
#X obj 186 369 + 0.1;
#X obj 141 179 / 3;
#X obj 141 199 + 0.6;
#X obj 60 370 +~;
#X obj 60 347 *~ 2000;
#X obj 306 88 inlet base;
#X obj 306 138 * 2;
#X obj 76 274 *;
#X obj 76 296 +;
#X obj 306 113 * 800;
#X obj 225 128 swap 1;
#X obj 226 153 -;
#X obj 29 287 *;
#X obj 224 177 * 80;
#X connect 0 0 1 0;
#X connect 1 0 3 0;
#X connect 2 0 5 0;
#X connect 4 0 21 0;
#X connect 4 1 6 0;
#X connect 5 0 7 0;
#X connect 5 1 8 0;
#X connect 5 1 18 0;
#X connect 6 0 10 0;
#X connect 7 0 16 0;
#X connect 8 0 7 1;
#X connect 9 0 11 0;
#X connect 9 1 11 1;
#X connect 10 0 13 0;
#X connect 11 0 29 0;
#X connect 12 0 9 0;
#X connect 13 0 1 1;
#X connect 14 0 15 0;
#X connect 14 1 15 1;
#X connect 15 0 17 0;
#X connect 16 0 12 0;
#X connect 16 1 24 0;
#X connect 16 2 14 0;
#X connect 17 0 13 1;
#X connect 18 0 19 0;
#X connect 19 0 6 1;
#X connect 20 0 0 0;
#X connect 21 0 20 0;
#X connect 22 0 26 0;
#X connect 22 0 27 0;
#X connect 23 0 24 1;
#X connect 24 0 25 0;
#X connect 25 0 20 1;
#X connect 26 0 23 0;
#X connect 26 0 25 1;
#X connect 27 0 28 0;
#X connect 27 1 28 0;
#X connect 28 0 30 0;
#X connect 29 0 4 0;
#X connect 30 0 29 1;
#X restore 28 375 pd bubble;
#X obj 114 134 random 1000;
#X obj 114 157 / 1000;
#X obj 28 325 pack f f f;
#X obj 28 197 pack f f;
#X obj 28 284 poly 4 1;
#X obj 28 350 route 1 2 3 4;
#X obj 28 134 random 1000;
#X obj 28 157 / 1000;
#X obj 28 229 spigot;
#X obj 200 134 random 100;
#X obj 98 89 t b b b;
#N canvas 0 0 570 560 bubble 0;
#X obj 60 405 osc~;
#X obj 60 444 *~;
#X obj 30 61 inlet;
#X obj 60 469 outlet~;
#N canvas 0 0 450 300 env4pow 0;
#X obj 210 157 vline~;
#X obj 209 183 *~;
#X obj 209 208 *~;
#X obj 161 245 -~;
#X obj 161 269 outlet~;
#X msg 210 130 1 0 0 \, 0 \$1 0;
#X obj 210 106 inlet;
#X obj 160 207 sig~ 1;
#X obj 219 269 outlet~;
#X connect 0 0 1 0;
#X connect 0 0 1 1;
#X connect 1 0 2 0;
#X connect 1 0 2 1;
#X connect 2 0 3 1;
#X connect 2 0 8 0;
#X connect 3 0 4 0;
#X connect 5 0 0 0;
#X connect 6 0 5 0;
#X connect 7 0 3 0;
#X restore 60 325 pd env4pow;
#X obj 30 83 unpack f f;
#X obj 125 347 *~;
#X obj 30 146 spigot;
#X obj 67 123 != 0;
#X obj 30 240 swap 1;
#X obj 124 369 lop~ 120;
#X obj 30 263 /;
#X obj 30 189 + 0.4;
#X obj 124 395 *~;
#X obj 186 325 swap 1;
#X obj 186 348 -;
#X obj 30 168 t f f f;
#X obj 186 369 + 0.1;
#X obj 141 179 / 3;
#X obj 141 199 + 0.6;
#X obj 60 370 +~;
#X obj 60 347 *~ 2000;
#X obj 306 88 inlet base;
#X obj 306 138 * 2;
#X obj 76 274 *;
#X obj 76 296 +;
#X obj 306 113 * 800;
#X obj 225 128 swap 1;
#X obj 226 153 -;
#X obj 29 287 *;
#X obj 224 177 * 80;
#X connect 0 0 1 0;
#X connect 1 0 3 0;
#X connect 2 0 5 0;
#X connect 4 0 21 0;
#X connect 4 1 6 0;
#X connect 5 0 7 0;
#X connect 5 1 8 0;
#X connect 5 1 18 0;
#X connect 6 0 10 0;
#X connect 7 0 16 0;
#X connect 8 0 7 1;
#X connect 9 0 11 0;
#X connect 9 1 11 1;
#X connect 10 0 13 0;
#X connect 11 0 29 0;
#X connect 12 0 9 0;
#X connect 13 0 1 1;
#X connect 14 0 15 0;
#X connect 14 1 15 1;
#X connect 15 0 17 0;
#X connect 16 0 12 0;
#X connect 16 1 24 0;
#X connect 16 2 14 0;
#X connect 17 0 13 1;
#X connect 18 0 19 0;
#X connect 19 0 6 1;
#X connect 20 0 0 0;
#X connect 21 0 20 0;
#X connect 22 0 26 0;
#X connect 22 0 27 0;
#X connect 23 0 24 1;
#X connect 24 0 25 0;
#X connect 25 0 20 1;
#X connect 26 0 23 0;
#X connect 26 0 25 1;
#X connect 27 0 28 0;
#X connect 27 1 28 0;
#X connect 28 0 30 0;
#X connect 29 0 4 0;
#X connect 30 0 29 1;
#X restore 38 399 pd bubble;
#N canvas -8 55 563 560 bubble 0;
#X obj 60 405 osc~;
#X obj 60 444 *~;
#X obj 30 61 inlet;
#X obj 60 469 outlet~;
#N canvas 0 0 450 300 env4pow 0;
#X obj 210 157 vline~;
#X obj 209 183 *~;
#X obj 209 208 *~;
#X obj 161 245 -~;
#X obj 161 269 outlet~;
#X msg 210 130 1 0 0 \, 0 \$1 0;
#X obj 210 106 inlet;
#X obj 160 207 sig~ 1;
#X obj 219 269 outlet~;
#X connect 0 0 1 0;
#X connect 0 0 1 1;
#X connect 1 0 2 0;
#X connect 1 0 2 1;
#X connect 2 0 3 1;
#X connect 2 0 8 0;
#X connect 3 0 4 0;
#X connect 5 0 0 0;
#X connect 6 0 5 0;
#X connect 7 0 3 0;
#X restore 60 325 pd env4pow;
#X obj 30 83 unpack f f;
#X obj 125 347 *~;
#X obj 30 146 spigot;
#X obj 67 123 != 0;
#X obj 30 240 swap 1;
#X obj 124 369 lop~ 120;
#X obj 30 263 /;
#X obj 30 189 + 0.4;
#X obj 124 395 *~;
#X obj 186 325 swap 1;
#X obj 186 348 -;
#X obj 30 168 t f f f;
#X obj 186 369 + 0.1;
#X obj 141 179 / 3;
#X obj 141 199 + 0.6;
#X obj 60 370 +~;
#X obj 60 347 *~ 2000;
#X obj 306 88 inlet base;
#X obj 306 138 * 2;
#X obj 76 274 *;
#X obj 76 296 +;
#X obj 306 113 * 800;
#X obj 225 128 swap 1;
#X obj 225 152 -;
#X obj 29 287 *;
#X obj 225 182 * 80;
#X connect 0 0 1 0;
#X connect 1 0 3 0;
#X connect 2 0 5 0;
#X connect 4 0 21 0;
#X connect 4 1 6 0;
#X connect 5 0 7 0;
#X connect 5 1 8 0;
#X connect 5 1 18 0;
#X connect 6 0 10 0;
#X connect 7 0 16 0;
#X connect 8 0 7 1;
#X connect 9 0 11 0;
#X connect 9 1 11 1;
#X connect 10 0 13 0;
#X connect 11 0 29 0;
#X connect 12 0 9 0;
#X connect 13 0 1 1;
#X connect 14 0 15 0;
#X connect 14 1 15 1;
#X connect 15 0 17 0;
#X connect 16 0 12 0;
#X connect 16 1 24 0;
#X connect 16 2 14 0;
#X connect 17 0 13 1;
#X connect 18 0 19 0;
#X connect 19 0 6 1;
#X connect 20 0 0 0;
#X connect 21 0 20 0;
#X connect 22 0 26 0;
#X connect 22 0 27 0;
#X connect 23 0 24 1;
#X connect 24 0 25 0;
#X connect 25 0 20 1;
#X connect 26 0 23 0;
#X connect 26 0 25 1;
#X connect 27 0 28 0;
#X connect 27 1 28 1;
#X connect 28 0 30 0;
#X connect 29 0 4 0;
#X connect 30 0 29 1;
#X restore 48 423 pd bubble;
#N canvas 0 25 570 560 bubble 0;
#X obj 60 405 osc~;
#X obj 60 444 *~;
#X obj 30 61 inlet;
#X obj 60 469 outlet~;
#N canvas 0 25 450 300 env4pow 0;
#X obj 210 157 vline~;
#X obj 209 183 *~;
#X obj 209 208 *~;
#X obj 161 245 -~;
#X obj 161 269 outlet~;
#X msg 210 130 1 0 0 \, 0 \$1 0;
#X obj 210 106 inlet;
#X obj 160 207 sig~ 1;
#X obj 219 269 outlet~;
#X connect 0 0 1 0;
#X connect 0 0 1 1;
#X connect 1 0 2 0;
#X connect 1 0 2 1;
#X connect 2 0 3 1;
#X connect 2 0 8 0;
#X connect 3 0 4 0;
#X connect 5 0 0 0;
#X connect 6 0 5 0;
#X connect 7 0 3 0;
#X restore 60 325 pd env4pow;
#X obj 30 83 unpack f f;
#X obj 125 347 *~;
#X obj 30 146 spigot;
#X obj 67 123 != 0;
#X obj 30 240 swap 1;
#X obj 124 369 lop~ 120;
#X obj 30 263 /;
#X obj 30 189 + 0.4;
#X obj 124 395 *~;
#X obj 186 325 swap 1;
#X obj 186 348 -;
#X obj 30 168 t f f f;
#X obj 186 369 + 0.1;
#X obj 141 179 / 3;
#X obj 141 199 + 0.6;
#X obj 60 370 +~;
#X obj 60 347 *~ 2000;
#X obj 306 88 inlet base;
#X obj 306 138 * 2;
#X obj 76 274 *;
#X obj 76 296 +;
#X obj 306 113 * 800;
#X obj 225 128 swap 1;
#X obj 226 153 -;
#X obj 29 287 *;
#X obj 224 177 * 80;
#X connect 0 0 1 0;
#X connect 1 0 3 0;
#X connect 2 0 5 0;
#X connect 4 0 21 0;
#X connect 4 1 6 0;
#X connect 5 0 7 0;
#X connect 5 1 8 0;
#X connect 5 1 18 0;
#X connect 6 0 10 0;
#X connect 7 0 16 0;
#X connect 8 0 7 1;
#X connect 9 0 11 0;
#X connect 9 1 11 1;
#X connect 10 0 13 0;
#X connect 11 0 29 0;
#X connect 12 0 9 0;
#X connect 13 0 1 1;
#X connect 14 0 15 0;
#X connect 14 1 15 1;
#X connect 15 0 17 0;
#X connect 16 0 12 0;
#X connect 16 1 24 0;
#X connect 16 2 14 0;
#X connect 17 0 13 1;
#X connect 18 0 19 0;
#X connect 19 0 6 1;
#X connect 20 0 0 0;
#X connect 21 0 20 0;
#X connect 22 0 26 0;
#X connect 22 0 27 0;
#X connect 23 0 24 1;
#X connect 24 0 25 0;
#X connect 25 0 20 1;
#X connect 26 0 23 0;
#X connect 26 0 25 1;
#X connect 27 0 28 0;
#X connect 27 1 28 0;
#X connect 28 0 30 0;
#X connect 29 0 4 0;
#X connect 30 0 29 1;
#X restore 58 447 pd bubble;
#X obj 29 490 outlet~;
#X obj 98 60 t b b, f 21;
#X obj 242 374 random 10000;
#X obj 242 398 / 10000;
#X text 252 344 random [0 - 1);
#X obj 200 158 > 0;
#X obj 30 75 bng 19 250 50 0 empty empty empty 0 -10 0 12 #fcfcfc #000000 #000000;
#X obj 98 12 inlet;
#X connect 0 0 15 0;
#X connect 1 0 2 0;
#X connect 2 0 4 1;
#X connect 3 0 6 0;
#X connect 4 0 9 0;
#X connect 5 0 3 0;
#X connect 5 1 3 1;
#X connect 5 2 3 2;
#X connect 6 0 0 0;
#X connect 6 1 12 0;
#X connect 6 2 13 0;
#X connect 6 3 14 0;
#X connect 7 0 8 0;
#X connect 8 0 4 0;
#X connect 9 0 5 0;
#X connect 10 0 20 0;
#X connect 11 0 7 0;
#X connect 11 1 1 0;
#X connect 11 2 10 0;
#X connect 12 0 15 0;
#X connect 13 0 15 0;
#X connect 14 0 15 0;
#X connect 16 0 11 0;
#X connect 16 1 17 0;
#X connect 17 0 18 0;
#X connect 18 0 0 1;
#X connect 18 0 14 1;
#X connect 18 0 13 1;
#X connect 18 0 12 1;
#X connect 20 0 9 1;
#X connect 22 0 16 0;
#X connect 22 0 21 0;
#X restore 607 319 pd bubblefactory;
#N canvas 411 147 659 449 chord 0;
#X obj 73 155 -~ 0.5;
#X obj 73 209 clip~ -0.5 0.5;
#X obj 73 240 cos~;
#X obj 207 323 hip~ 5;
#X obj 207 386 outlet~;
#X obj 73 182 *~ 3;
#X obj 73 130 phasor~ 220;
#X obj 207 155 -~ 0.5;
#X obj 207 209 clip~ -0.5 0.5;
#X obj 207 240 cos~;
#X obj 207 182 *~ 3;
#X obj 342 158 -~ 0.5;
#X obj 342 212 clip~ -0.5 0.5;
#X obj 342 243 cos~;
#X obj 342 185 *~ 3;
#X obj 477 158 -~ 0.5;
#X obj 477 212 clip~ -0.5 0.5;
#X obj 477 243 cos~;
#X obj 477 185 *~ 3;
#X obj 207 130 phasor~ 251;
#X obj 342 133 phasor~ 281;
#X obj 477 133 phasor~ 311;
#X text 236 44 test sound for phaser;
#X obj 207 356 *~ 0.2;
#X floatatom 112 26 5 0 0 0 - - - 0;
#X obj 179 80 * 1.14;
#X obj 304 84 * 1.27;
#X obj 448 86 * 1.41;
#X obj 56 21 inlet;
#X connect 0 0 5 0;
#X connect 1 0 2 0;
#X connect 2 0 3 0;
#X connect 3 0 23 0;
#X connect 5 0 1 0;
#X connect 6 0 0 0;
#X connect 7 0 10 0;
#X connect 8 0 9 0;
#X connect 9 0 3 0;
#X connect 10 0 8 0;
#X connect 11 0 14 0;
#X connect 12 0 13 0;
#X connect 13 0 3 0;
#X connect 14 0 12 0;
#X connect 15 0 18 0;
#X connect 16 0 17 0;
#X connect 17 0 3 0;
#X connect 18 0 16 0;
#X connect 19 0 7 0;
#X connect 20 0 11 0;
#X connect 21 0 15 0;
#X connect 23 0 4 0;
#X connect 24 0 6 0;
#X connect 24 0 25 0;
#X connect 24 0 26 0;
#X connect 24 0 27 0;
#X connect 25 0 19 0;
#X connect 26 0 20 0;
#X connect 27 0 21 0;
#X connect 28 0 24 0;
#X restore 213 350 pd chord;
#X obj 230 414 rpole~;
#X obj 230 389 rzero_rev~;
#X obj 230 463 rpole~;
#X obj 230 438 rzero_rev~;
#X obj 230 511 rpole~;
#X obj 230 486 rzero_rev~;
#X obj 230 560 rpole~;
#X obj 230 535 rzero_rev~;
#X obj 212 590 +~;
#X obj 396 409 phasor~ 0.3;
#X obj 396 441 expr~ 1 - 0.03 - 0.6*abs($v1-0.5)*abs($v1-0.5), f 17;
#X obj 223 229 pipe 500;
#X obj 212 614 *~;
#X obj 212 638 dac~;
#X obj 67 480 vline~;
#X obj 67 431 * 0.1;
#X obj 213 86 receive posY;
#X floatatom 213 111 5 0 0 1 posY - - 0;
#X text 302 106 12.21 - 17+;
#X obj 811 576 dac~;
#X msg 67 456 \$1 500;
#X obj 67 402 tgl 19 0 empty empty empty 0 -10 0 12 #fcfcfc #000000 #000000 0 1;
#X floatatom 213 174 5 0 0 0 - - - 0;
#X text 2095 631 |||||||||||;
#X floatatom 1127 485 5 0 0 0 - - - 0;
#X floatatom 1257 447 5 0 0 0 - - - 0;
#N canvas 632 44 452 430 waterflow 0;
#X obj 55 242 osc~;
#X obj 55 192 line~;
#X obj 95 350 *~;
#X obj 112 326 *~;
#X obj 55 72 metro 6;
#X obj 55 144 + 800;
#X obj 112 301 *~ 0.9;
#X obj 112 277 lop~ 10;
#N canvas 555 196 378 370 bilexp 0;
#X obj 55 197 expr exp($f1);
#X obj 55 69 random 8192;
#X obj 55 157 * 9;
#X obj 55 133 / 4096;
#X obj 123 108 > 4096;
#X obj 123 132 sel 0 1, f 11;
#X msg 123 156 -1;
#X msg 160 156 1;
#X obj 55 230 *;
#X obj 55 254 / 23000;
#X obj 55 45 t b;
#X obj 55 21 inlet;
#X obj 55 278 outlet;
#X obj 55 109 mod 4096;
#X text 55 306 exponential -8103/23000 ~ +8103/23000;
#X text 53 320 == exponential -0.352 ~ +0.352;
#X connect 0 0 8 0;
#X connect 1 0 4 0;
#X connect 1 0 13 0;
#X connect 2 0 0 0;
#X connect 3 0 2 0;
#X connect 4 0 5 0;
#X connect 5 0 6 0;
#X connect 5 1 7 0;
#X connect 6 0 8 1;
#X connect 7 0 8 1;
#X connect 8 0 9 0;
#X connect 9 0 12 0;
#X connect 10 0 1 0;
#X connect 11 0 10 0;
#X connect 13 0 3 0;
#X restore 55 96 pd bilexp;
#X obj 112 253 clip~ 0 1;
#X obj 55 168 pack 1 2.689;
#X obj 55 120 * 1600;
#X msg 55 48 1;
#X obj 55 24 loadbang;
#X obj 112 229 fexpr~ $x1 - $x1[-1];
#X obj 95 374 *~ 0.3;
#X obj 95 398 outlet~;
#X obj 129 43 inlet rate;
#X obj 153 93 inlet depth;
#X text 153 119 exponential -563 ~ +563;
#X text 183 173 exponential +236 ~ +1363;
#X text 229 73 900 -> 600;
#X text 193 153 exponential +336 ~ +1463;
#X text 193 193 exponential +36 ~ +1163;
#X floatatom 261 29 5 0 0 0 - - - 0;
#X connect 0 0 2 0;
#X connect 1 0 0 0;
#X connect 1 0 14 0;
#X connect 2 0 15 0;
#X connect 3 0 2 1;
#X connect 4 0 8 0;
#X connect 5 0 10 0;
#X connect 6 0 3 0;
#X connect 6 0 3 1;
#X connect 7 0 6 0;
#X connect 8 0 11 0;
#X connect 9 0 7 0;
#X connect 10 0 1 0;
#X connect 11 0 5 0;
#X connect 12 0 4 0;
#X connect 13 0 12 0;
#X connect 14 0 9 0;
#X connect 15 0 16 0;
#X connect 17 0 4 1;
#X connect 17 0 24 0;
#X connect 18 0 5 1;
#X restore 810 432 pd waterflow;
#X obj 774 175 f;
#X obj 814 175 == 0;
#X obj 774 199 tgl 19 0 empty empty empty 0 -10 0 12 #fcfcfc #000000 #000000 0 1;
#X obj 774 223 sel 1 0;
#X floatatom 823 367 5 0 0 0 - - - 0;
#X obj 931 215 del 1000;
#X obj 774 142 t b b;
#X obj 908 161 t b b b;
#X msg 954 185 stop;
#X text 978 158 a timeout ..;
#X obj 908 342 * 6;
#X obj 607 343 *~ 0.03;
#X floatatom 919 370 5 0 0 0 - - - 0;
#X obj 1220 256 random 10000;
#X obj 1220 280 / 10000;
#X msg 1220 304 \$1 1000;
#X obj 1220 233 bng 19 250 50 0 empty empty empty 0 -10 0 12 #fcfcfc #000000 #000000;
#X obj 1917 341 line;
#X msg 1917 259 0 \, 1 9000;
#X obj 1917 389 swap 1;
#X obj 1917 413 -;
#X obj 1917 437 * 300;
#X obj 1917 461 + 600;
#X obj 1917 365 trigger float float;
#X obj 2047 423 + 100;
#X obj 2047 399 * 2000;
#X obj 1569 276 line;
#X msg 1601 250 1 800;
#X msg 1537 250 0 800;
#X obj 1569 324 + 4;
#N canvas 235 30 358 287 openpipe 0;
#X obj 197 77 * 3;
#X obj 231 77 * 5;
#X obj 265 77 * 7;
#X obj 163 77 * 1;
#X obj 73 46 inlet~;
#X obj 93 237 outlet~;
#X obj 163 29 inlet length;
#X obj 93 122 bp~ 1 30;
#X obj 113 146 bp~ 1 30;
#X obj 133 170 bp~ 1 30;
#X obj 153 194 bp~ 1 30;
#X obj 163 53 trigger f f f f;
#X connect 0 0 8 1;
#X connect 1 0 9 1;
#X connect 2 0 10 1;
#X connect 3 0 7 1;
#X connect 4 0 7 0;
#X connect 4 0 8 0;
#X connect 4 0 9 0;
#X connect 4 0 10 0;
#X connect 6 0 11 0;
#X connect 7 0 5 0;
#X connect 8 0 5 0;
#X connect 9 0 5 0;
#X connect 10 0 5 0;
#X connect 11 0 3 0;
#X connect 11 1 0 0;
#X connect 11 2 1 0;
#X connect 11 3 2 0;
#X restore 1600 459 pd openpipe;
#N canvas 632 44 452 430 waterflow 0;
#X obj 55 242 osc~;
#X obj 55 192 line~;
#X obj 95 350 *~;
#X obj 112 326 *~;
#X obj 55 72 metro 6;
#X obj 55 144 + 800;
#X obj 112 301 *~ 0.9;
#X obj 112 277 lop~ 10;
#N canvas 509 84 378 370 bilexp 0;
#X obj 55 197 expr exp($f1);
#X obj 55 69 random 8192;
#X obj 55 157 * 9;
#X obj 55 133 / 4096;
#X obj 123 108 > 4096;
#X obj 123 132 sel 0 1, f 11;
#X msg 123 156 -1;
#X msg 160 156 1;
#X obj 55 230 *;
#X obj 55 254 / 23000;
#X obj 55 45 t b;
#X obj 55 21 inlet;
#X obj 55 278 outlet;
#X obj 55 109 mod 4096;
#X text 55 306 exponential -8103/23000 ~ +8103/23000;
#X text 53 320 == exponential -0.352 ~ +0.352;
#X connect 0 0 8 0;
#X connect 1 0 4 0;
#X connect 1 0 13 0;
#X connect 2 0 0 0;
#X connect 3 0 2 0;
#X connect 4 0 5 0;
#X connect 5 0 6 0;
#X connect 5 1 7 0;
#X connect 6 0 8 1;
#X connect 7 0 8 1;
#X connect 8 0 9 0;
#X connect 9 0 12 0;
#X connect 10 0 1 0;
#X connect 11 0 10 0;
#X connect 13 0 3 0;
#X restore 55 96 pd bilexp;
#X obj 112 253 clip~ 0 1;
#X obj 55 168 pack 1 2.689;
#X obj 55 120 * 1600;
#X msg 55 48 1;
#X obj 55 24 loadbang;
#X obj 112 229 fexpr~ $x1 - $x1[-1];
#X obj 95 374 *~ 0.3;
#X obj 95 398 outlet~;
#X obj 129 43 inlet rate;
#X obj 153 93 inlet depth;
#X text 153 119 exponential -563 ~ +563;
#X text 183 173 exponential +236 ~ +1363;
#X text 229 73 900 -> 600;
#X text 193 153 exponential +336 ~ +1463;
#X text 193 193 exponential +36 ~ +1163;
#X floatatom 261 29 5 0 0 0 - - - 0;
#X connect 0 0 2 0;
#X connect 1 0 0 0;
#X connect 1 0 14 0;
#X connect 2 0 15 0;
#X connect 3 0 2 1;
#X connect 4 0 8 0;
#X connect 5 0 10 0;
#X connect 6 0 3 0;
#X connect 6 0 3 1;
#X connect 7 0 6 0;
#X connect 8 0 11 0;
#X connect 9 0 7 0;
#X connect 10 0 1 0;
#X connect 11 0 5 0;
#X connect 12 0 4 0;
#X connect 13 0 12 0;
#X connect 14 0 9 0;
#X connect 15 0 16 0;
#X connect 17 0 4 1;
#X connect 17 0 24 0;
#X connect 18 0 5 1;
#X restore 1569 408 pd waterflow;
#X obj 1601 546 *~;
#X obj 1618 523 lop~ 0.5;
#X obj 1618 500 sig~;
#X obj 1748 312 line;
#X msg 1748 255 1 300;
#X msg 1771 279 0 1200;
#X obj 1601 576 dac~;
#X floatatom 1917 485 5 0 0 0 - - - 0;
#X floatatom 2047 447 5 0 0 0 - - - 0;
#N canvas 632 44 452 430 waterflow 0;
#X obj 55 242 osc~;
#X obj 55 192 line~;
#X obj 95 350 *~;
#X obj 112 326 *~;
#X obj 55 72 metro 6;
#X obj 55 144 + 800;
#X obj 112 301 *~ 0.9;
#X obj 112 277 lop~ 10;
#N canvas 555 196 378 370 bilexp 0;
#X obj 55 197 expr exp($f1);
#X obj 55 69 random 8192;
#X obj 55 157 * 9;
#X obj 55 133 / 4096;
#X obj 123 108 > 4096;
#X obj 123 132 sel 0 1, f 11;
#X msg 123 156 -1;
#X msg 160 156 1;
#X obj 55 230 *;
#X obj 55 254 / 23000;
#X obj 55 45 t b;
#X obj 55 21 inlet;
#X obj 55 278 outlet;
#X obj 55 109 mod 4096;
#X text 55 306 exponential -8103/23000 ~ +8103/23000;
#X text 53 320 == exponential -0.352 ~ +0.352;
#X connect 0 0 8 0;
#X connect 1 0 4 0;
#X connect 1 0 13 0;
#X connect 2 0 0 0;
#X connect 3 0 2 0;
#X connect 4 0 5 0;
#X connect 5 0 6 0;
#X connect 5 1 7 0;
#X connect 6 0 8 1;
#X connect 7 0 8 1;
#X connect 8 0 9 0;
#X connect 9 0 12 0;
#X connect 10 0 1 0;
#X connect 11 0 10 0;
#X connect 13 0 3 0;
#X restore 55 96 pd bilexp;
#X obj 112 253 clip~ 0 1;
#X obj 55 168 pack 1 2.689;
#X obj 55 120 * 1600;
#X msg 55 48 1;
#X obj 55 24 loadbang;
#X obj 112 229 fexpr~ $x1 - $x1[-1];
#X obj 95 374 *~ 0.3;
#X obj 95 398 outlet~;
#X obj 129 43 inlet rate;
#X obj 153 93 inlet depth;
#X text 153 119 exponential -563 ~ +563;
#X text 183 173 exponential +236 ~ +1363;
#X text 229 73 900 -> 600;
#X text 193 153 exponential +336 ~ +1463;
#X text 193 193 exponential +36 ~ +1163;
#X floatatom 261 29 5 0 0 0 - - - 0;
#X connect 0 0 2 0;
#X connect 1 0 0 0;
#X connect 1 0 14 0;
#X connect 2 0 15 0;
#X connect 3 0 2 1;
#X connect 4 0 8 0;
#X connect 5 0 10 0;
#X connect 6 0 3 0;
#X connect 6 0 3 1;
#X connect 7 0 6 0;
#X connect 8 0 11 0;
#X connect 9 0 7 0;
#X connect 10 0 1 0;
#X connect 11 0 5 0;
#X connect 12 0 4 0;
#X connect 13 0 12 0;
#X connect 14 0 9 0;
#X connect 15 0 16 0;
#X connect 17 0 4 1;
#X connect 17 0 24 0;
#X connect 18 0 5 1;
#X restore 1600 432 pd waterflow;
#X obj 1564 175 f;
#X obj 1604 175 == 0;
#X obj 1564 199 tgl 19 0 empty empty empty 0 -10 0 12 #fcfcfc #000000 #000000 0 1;
#X obj 1564 223 sel 1 0;
#X floatatom 1614 331 5 0 0 0 - - - 0;
#X obj 1771 215 del 1000;
#X obj 1564 142 t b b;
#X obj 1748 161 t b b b;
#X msg 1794 185 stop;
#X text 1761 130 a timeout ..;
#X floatatom 1759 370 5 0 0 0 - - - 0;
#X obj 2010 256 random 10000;
#X obj 2010 280 / 10000;
#X msg 2010 304 \$1 1000;
#X obj 2010 233 bng 19 250 50 0 empty empty empty 0 -10 0 12 #fcfcfc #000000 #000000;
#X obj 1363 128 t b b;
#X obj 1363 204 del;
#X obj 1395 152 random 800;
#X obj 213 140 expr ($f1-12.2)/4.8*104 + 54;
#X obj 81 295 del 1000;
#X obj 58 247 t b b b;
#X msg 104 271 stop;
#X msg 58 325 1;
#X msg 81 349 0;
#X text 85 218 a timeout ..;
#X obj 774 109 r trigger\$0;
#X obj 607 274 r trigger\$0;
#X obj 58 187 r trigger\$0;
#N canvas 98 90 495 539 triggersource 0;
#X obj 87 296 pd~;
#X msg 87 226 pd~ start playersource.pd;
#X msg 107 250 pd~ stop;
#X obj 329 342 adc~;
#X text 36 198 playersource simulation;
#X text 273 224 <== player enter platform;
#X text 273 248 <== player leave platform;
#X obj 329 376 trig2bang~;
#X obj 211 376 trig2bang~;
#X obj 211 436 spigot;
#X obj 281 436 spigot;
#X obj 320 413 tgl 19 0 empty empty empty 0 -10 0 12 #fcfcfc #000000 #000000 0 1;
#X obj 250 413 tgl 19 0 empty empty empty 0 -10 0 12 #fcfcfc #000000 #000000 0 1;
#X obj 165 43 tgl 19 0 empty empty simulation? 0 -10 0 12 #feffc6 #000000 #000000 0 1;
#X obj 165 67 sel 1 0;
#X obj 165 121 t b b;
#X msg 197 151 1 0;
#X obj 235 121 t b b;
#X obj 220 309 unpack f f;
#X obj 225 482 outlet;
#X msg 267 151 0 1;
#X obj 316 75 loadbang;
#X obj 316 99 del 50;
#X obj 57 19 inlet;
#X connect 0 1 8 0;
#X connect 1 0 0 0;
#X connect 2 0 0 0;
#X connect 3 0 7 0;
#X connect 7 0 10 0;
#X connect 8 0 9 0;
#X connect 9 0 19 0;
#X connect 10 0 19 0;
#X connect 11 0 10 1;
#X connect 12 0 9 1;
#X connect 13 0 14 0;
#X connect 14 0 15 0;
#X connect 14 1 17 0;
#X connect 15 0 1 0;
#X connect 15 1 16 0;
#X connect 16 0 18 0;
#X connect 17 0 2 0;
#X connect 17 1 20 0;
#X connect 18 0 12 0;
#X connect 18 1 11 0;
#X connect 20 0 18 0;
#X connect 21 0 22 0;
#X connect 22 0 20 0;
#X connect 23 0 13 0;
#X restore 483 63 pd triggersource;
#X obj 483 126 s trigger\$0;
#X obj 483 97 bng 19 250 50 0 empty empty empty 0 -10 0 12 #fcfcfc #000000 #000000;
#X obj 1363 228 t b b;
#X obj 1395 176 + 200;
#X floatatom 1395 200 5 0 0 0 - - - 0;
#X obj 483 34 tgl 19 0 empty empty simulation? 0 -10 0 12 #feffc6 #000000 #000000 0 1;
#X obj 1569 300 * 24;
#X msg 1425 410 1;
#X obj 1614 376 spigot;
#X msg 1425 338 0;
#X obj 1425 362 pipe 5000;
#X obj 1425 386 bng 19 250 50 0 empty empty empty 0 -10 0 12 #fcfcfc #000000 #000000;
#X obj 1653 353 tgl 19 0 empty empty empty 0 -10 0 12 #fcfcfc #000000 #000000 0 1;
#X obj 1748 342 * 0;
#X text 1368 436 to remove BIG pop noise \, hard to understand but giving enough warm-up time helps, f 24;
#X text 1280 57 Hey! Watch out. [delay] is NOT [pipe]. so un-fired bang will just vanish!, f 74;
#X text 1303 83 however \, this sounds good! it gives us some random streams!;
#X obj 779 300 * 2;
#X text 811 298 <== **;
#X text 1610 301 <== **;
#X connect 0 0 6 0;
#X connect 1 0 0 0;
#X connect 2 0 3 0;
#X connect 2 1 3 1;
#X connect 3 0 4 0;
#X connect 4 0 5 0;
#X connect 5 0 47 0;
#X connect 5 0 14 1;
#X connect 5 0 49 1;
#X connect 6 0 2 0;
#X connect 6 1 8 0;
#X connect 7 0 48 0;
#X connect 7 0 13 1;
#X connect 8 0 7 0;
#X connect 9 0 138 0;
#X connect 10 0 9 0;
#X connect 11 0 9 0;
#X connect 12 0 14 0;
#X connect 12 0 49 0;
#X connect 12 0 54 0;
#X connect 13 0 15 0;
#X connect 14 0 13 0;
#X connect 15 0 42 0;
#X connect 15 0 42 1;
#X connect 16 0 15 1;
#X connect 17 0 16 0;
#X connect 18 0 60 0;
#X connect 19 0 18 0;
#X connect 20 0 18 0;
#X connect 21 0 61 0;
#X connect 22 0 24 0;
#X connect 22 0 31 0;
#X connect 23 0 26 0;
#X connect 24 0 23 0;
#X connect 25 0 28 0;
#X connect 26 0 25 0;
#X connect 27 0 30 0;
#X connect 28 0 27 0;
#X connect 29 0 31 1;
#X connect 30 0 29 0;
#X connect 31 0 35 0;
#X connect 32 0 33 0;
#X connect 33 0 24 1;
#X connect 33 0 23 1;
#X connect 33 0 26 1;
#X connect 33 0 25 1;
#X connect 33 0 28 1;
#X connect 33 0 27 1;
#X connect 33 0 30 1;
#X connect 33 0 29 1;
#X connect 34 0 22 0;
#X connect 35 0 36 0;
#X connect 35 0 36 1;
#X connect 37 0 35 1;
#X connect 38 0 43 0;
#X connect 39 0 40 0;
#X connect 40 0 110 0;
#X connect 43 0 37 0;
#X connect 44 0 38 0;
#X connect 45 0 34 0;
#X connect 49 0 13 0;
#X connect 50 0 51 0;
#X connect 50 0 52 0;
#X connect 51 0 50 1;
#X connect 52 0 53 0;
#X connect 53 0 11 0;
#X connect 53 0 66 0;
#X connect 53 1 10 0;
#X connect 54 0 60 1;
#X connect 55 0 20 0;
#X connect 56 0 50 0;
#X connect 56 1 57 0;
#X connect 57 0 19 0;
#X connect 57 1 55 0;
#X connect 57 2 58 0;
#X connect 58 0 55 0;
#X connect 60 0 17 0;
#X connect 60 0 62 0;
#X connect 61 0 13 0;
#X connect 63 0 64 0;
#X connect 64 0 65 0;
#X connect 65 0 0 0;
#X connect 66 0 63 0;
#X connect 67 0 73 0;
#X connect 68 0 67 0;
#X connect 69 0 70 0;
#X connect 69 1 70 1;
#X connect 70 0 71 0;
#X connect 71 0 72 0;
#X connect 72 0 89 0;
#X connect 72 0 81 1;
#X connect 72 0 91 1;
#X connect 73 0 69 0;
#X connect 73 1 75 0;
#X connect 74 0 90 0;
#X connect 74 0 80 1;
#X connect 75 0 74 0;
#X connect 76 0 127 0;
#X connect 77 0 76 0;
#X connect 78 0 76 0;
#X connect 79 0 81 0;
#X connect 79 0 91 0;
#X connect 79 0 96 0;
#X connect 80 0 82 0;
#X connect 81 0 80 0;
#X connect 82 0 88 0;
#X connect 82 0 88 1;
#X connect 83 0 82 1;
#X connect 84 0 83 0;
#X connect 85 0 134 0;
#X connect 86 0 85 0;
#X connect 87 0 85 0;
#X connect 91 0 80 0;
#X connect 92 0 93 0;
#X connect 92 0 94 0;
#X connect 93 0 92 1;
#X connect 94 0 95 0;
#X connect 95 0 78 0;
#X connect 95 0 106 0;
#X connect 95 1 77 0;
#X connect 96 0 129 0;
#X connect 97 0 87 0;
#X connect 98 0 92 0;
#X connect 98 1 99 0;
#X connect 99 0 86 0;
#X connect 99 1 97 0;
#X connect 99 2 100 0;
#X connect 100 0 97 0;
#X connect 103 0 104 0;
#X connect 104 0 105 0;
#X connect 105 0 67 0;
#X connect 106 0 103 0;
#X connect 107 0 108 0;
#X connect 107 1 109 0;
#X connect 108 0 123 0;
#X connect 109 0 124 0;
#X connect 110 0 45 0;
#X connect 111 0 115 0;
#X connect 112 0 114 0;
#X connect 112 1 111 0;
#X connect 112 2 113 0;
#X connect 113 0 111 0;
#X connect 114 0 44 0;
#X connect 115 0 44 0;
#X connect 117 0 56 0;
#X connect 117 0 107 0;
#X connect 118 0 21 0;
#X connect 119 0 112 0;
#X connect 120 0 122 0;
#X connect 122 0 121 0;
#X connect 123 0 130 0;
#X connect 123 1 98 0;
#X connect 124 0 108 1;
#X connect 124 0 125 0;
#X connect 126 0 120 0;
#X connect 127 0 79 0;
#X connect 128 0 133 0;
#X connect 129 0 134 1;
#X connect 130 0 131 0;
#X connect 131 0 132 0;
#X connect 132 0 128 0;
#X connect 133 0 129 1;
#X connect 134 0 84 0;
#X connect 134 0 102 0;
#X connect 138 0 12 0;
