#N canvas 391 18 368 813 12;
#X obj 54 757 dac~;
#X obj 136 361 noise~;
#X obj 130 314 phasor~ 100.2;
#X obj 122 294 phasor~ 99.8;
#X obj 121 505 *~;
#X obj 136 428 *~;
#X obj 136 402 lop~ 2;
#X obj 136 381 lop~ 2;
#X obj 137 472 *~ 500;
#X obj 121 339 -~ 1;
#X obj 42 506 +~ 20;
#X obj 121 450 clip~ -0.5 0.5;
#X obj 154 681 delwrite~ \$0-comb 100;
#X obj 154 657 +~;
#X obj 170 607 lop~ 3000;
#X obj 72 553 vd~ \$0-comb 80;
#X obj 170 584 *~ 0.2;
#X floatatom 164 250 5 0 0 0 - - - 0;
#X obj 255 281 * 1.004;
#X obj 163 227 line;
#X msg 162 203 \$1 2000;
#X floatatom 162 177 5 0 0 0 - - - 0;
#X obj 162 74 metro 4000;
#X obj 162 44 tgl 19 0 empty empty empty 0 -10 0 12 #fcfcfc #000000 #000000 0 1;
#X obj 162 126 * 2;
#X obj 162 152 + 1400;
#X obj 162 102 random 200;
#X obj 162 20 loadbang;
#X obj 94 663 adc~;
#X obj 47 714 *~;
#X obj 87 713 *~;
#X obj 47 629 *~ 2;
#X connect 1 0 7 0;
#X connect 2 0 9 0;
#X connect 3 0 9 0;
#X connect 4 0 13 0;
#X connect 5 0 8 0;
#X connect 6 0 5 0;
#X connect 6 0 5 1;
#X connect 7 0 6 0;
#X connect 8 0 4 1;
#X connect 8 0 10 0;
#X connect 9 0 11 0;
#X connect 10 0 15 0;
#X connect 11 0 4 0;
#X connect 13 0 12 0;
#X connect 14 0 13 1;
#X connect 15 0 16 0;
#X connect 15 0 31 0;
#X connect 16 0 14 0;
#X connect 17 0 3 0;
#X connect 17 0 18 0;
#X connect 18 0 2 0;
#X connect 19 0 17 0;
#X connect 20 0 19 0;
#X connect 21 0 20 0;
#X connect 22 0 26 0;
#X connect 23 0 22 0;
#X connect 24 0 25 0;
#X connect 25 0 21 0;
#X connect 26 0 24 0;
#X connect 27 0 23 0;
#X connect 28 0 29 1;
#X connect 28 1 30 1;
#X connect 29 0 0 0;
#X connect 30 0 0 1;
#X connect 31 0 29 0;
#X connect 31 0 30 0;
