#N canvas 482 8 1366 695 12;
#X obj 311 137 unpack f f f;
#X obj 208 606 outlet~;
#X obj 223 352 -~;
#X obj 272 335 sig~ 1;
#X obj 273 388 -~;
#X obj 331 323 *~;
#X obj 255 434 *~;
#X obj 209 505 +~;
#X obj 255 474 /~;
#X obj 399 275 sig~ 1;
#X obj 400 337 -~;
#X obj 311 253 line~;
#X obj 90 243 line~;
#N canvas 866 135 459 350 hv.vline 0;
#X obj 12 34 t a b;
#X msg 154 62 0;
#N canvas 274 138 570 383 dbl-pipe 0;
#X obj 22 22 inlet;
#X obj 82 22 inlet;
#X obj 182 22 inlet;
#X obj 22 64 pipe 0;
#X obj 82 64 pipe 0;
#X obj 22 86 outlet;
#X obj 82 86 outlet;
#X obj 132 64 pipe 0;
#X obj 132 86 outlet;
#X obj 132 22 inlet;
#X connect 0 0 3 0;
#X connect 0 0 4 0;
#X connect 1 0 4 0;
#X connect 2 0 3 1;
#X connect 2 0 4 1;
#X connect 2 0 7 1;
#X connect 3 0 5 0;
#X connect 4 0 6 0;
#X connect 7 0 8 0;
#X connect 9 0 7 0;
#X restore 12 94 pd dbl-pipe;
#X obj 12 64 unpack f f f f;
#X obj 24 126 pack f f f;
#X obj 12 12 inlet;
#X obj 24 148 outlet;
#X connect 0 0 3 0;
#X connect 0 1 1 0;
#X connect 1 0 2 3;
#X connect 2 0 4 0;
#X connect 2 1 4 1;
#X connect 2 2 4 2;
#X connect 3 0 2 0;
#X connect 3 1 2 1;
#X connect 3 2 2 2;
#X connect 3 3 2 3;
#X connect 4 0 6 0;
#X connect 5 0 0 0;
#X restore 213 81 pd hv.vline;
#X obj 213 105 t a b a;
#X obj 454 177 sig~;
#X msg 90 206 0 \, 1 \$1;
#X obj 176 240 samphold~;
#X obj 50 166 unpack f f f;
#X obj 236 182 line~;
#X obj 330 349 exp~;
#X obj 454 283 exp~;
#X obj 222 536 delwrite~ \$0-env 0;
#X obj 176 215 delread~ \$0-env 0;
#X obj 213 57 inlet;
#X obj 454 92 inlet;
#X msg 236 154 -1 \, 0 1;
#X connect 0 0 11 0;
#X connect 0 2 15 0;
#X connect 2 0 6 0;
#X connect 3 0 4 0;
#X connect 4 0 6 1;
#X connect 5 0 20 0;
#X connect 6 0 8 0;
#X connect 7 0 22 0;
#X connect 7 0 1 0;
#X connect 8 0 7 1;
#X connect 9 0 10 0;
#X connect 10 0 8 1;
#X connect 11 0 2 0;
#X connect 12 0 5 0;
#X connect 13 0 14 0;
#X connect 14 0 18 0;
#X connect 14 1 26 0;
#X connect 14 2 0 0;
#X connect 15 0 5 1;
#X connect 15 0 21 0;
#X connect 16 0 12 0;
#X connect 17 0 2 1;
#X connect 17 0 7 0;
#X connect 18 1 16 0;
#X connect 19 0 17 1;
#X connect 20 0 4 1;
#X connect 21 0 10 1;
#X connect 23 0 17 0;
#X connect 24 0 13 0;
#X connect 25 0 15 0;
#X connect 26 0 19 0;
