#N canvas 9 25 1366 695 12;
#X obj 171 109 hsl 64 18 0 1 0 1 empty empty empty -2 6 1 8 #fcfcfc #000000 #000000 3307 1;
#X obj 161 213 phasor~;
#X obj 161 170 sig~;
#X obj 161 192 lop~ 0.8;
#X obj 238 638 dac~;
#X obj 161 149 * 40;
#X obj 273 350 sig~;
#X obj 94 332 -~ 0.75;
#X obj 211 332 -~ 0.5;
#X obj 330 332 -~ 0.25;
#X obj 47 481 sig~ 1;
#X obj 47 507 /~;
#X obj 94 482 +~ 1;
#X obj 94 462 *~;
#X obj 94 440 *~;
#X obj 162 481 sig~ 1;
#X obj 162 507 /~;
#X obj 211 482 +~ 1;
#X obj 211 462 *~;
#X obj 211 439 *~;
#X obj 283 481 sig~ 1;
#X obj 283 507 /~;
#X obj 330 482 +~ 1;
#X obj 330 461 *~;
#X obj 330 438 *~;
#X obj 395 481 sig~ 1;
#X obj 395 507 /~;
#X obj 442 482 +~ 1;
#X obj 442 461 *~;
#X obj 442 437 *~;
#X obj 505 443 noise~;
#X obj 458 414 +~;
#X obj 346 416 +~;
#X obj 227 418 +~;
#X obj 110 418 +~;
#X obj 442 314 +~;
#X obj 330 311 +~;
#X obj 211 310 +~;
#X obj 94 310 +~;
#X obj 505 464 lop~ 20;
#X obj 505 486 lop~ 20;
#X obj 94 353 cos~;
#X obj 211 352 cos~;
#X obj 330 352 cos~;
#X obj 442 351 cos~;
#X obj 99 168 swap 1;
#X obj 99 190 -;
#X obj 98 233 + 2;
#X obj 99 212 * 3;
#X obj 535 519 *~ 0.5;
#X obj 476 518 *~ 10;
#X obj 96 265 delread~ \$0-a 5;
#X obj 213 266 delread~ \$0-a 10;
#X obj 332 266 delread~ \$0-a 15;
#X obj 450 267 delread~ \$0-a 20;
#X obj 128 391 vd~ \$0-b 5;
#X obj 245 392 vd~ \$0-b 10;
#X obj 364 390 vd~ \$0-b 15;
#X obj 476 388 vd~ \$0-b 20;
#X obj 476 568 delwrite~ \$0-b 20;
#X obj 535 544 delwrite~ \$0-a 20;
#X floatatom 210 144 5 0 0 0 - - - 0;
#X floatatom 457 162 5 0 0 0 - - - 0;
#X obj 448 81 f;
#X obj 457 136 random 4;
#X obj 391 135 random 2;
#X floatatom 391 159 5 0 0 0 - - - 0;
#X obj 448 106 t b b f;
#X obj 491 235 +;
#X obj 368 55 tgl 19 0 empty empty empty 0 -6 0 8 #dfdfdf #000000 #000000 0 1;
#X obj 457 184 + 1;
#X floatatom 322 183 5 0 0 0 - - - 0;
#X obj 439 235 *;
#X msg 381 209 -1;
#X obj 245 74 moses 0;
#X obj 291 104 moses 100;
#X obj 245 104 * -1;
#X obj 322 133 * -1;
#X obj 322 158 + 200;
#X msg 414 209 1;
#X obj 391 184 sel 0 1;
#X obj 368 80 metro 500;
#X obj 238 571 *~ 0.8;
#X obj 322 230 + 0.2;
#X obj 322 206 / 120;
#X obj 323 29 loadbang;
#X msg 323 53 1;
#X obj 238 605 *~;
#X obj 287 605 *~;
#X obj 296 572 adc~;
#X connect 0 0 5 0;
#X connect 0 0 45 0;
#X connect 0 0 61 0;
#X connect 1 0 35 0;
#X connect 1 0 36 0;
#X connect 1 0 37 0;
#X connect 1 0 38 0;
#X connect 2 0 3 0;
#X connect 3 0 1 0;
#X connect 5 0 2 0;
#X connect 6 0 31 0;
#X connect 6 0 34 0;
#X connect 6 0 33 0;
#X connect 6 0 32 0;
#X connect 7 0 41 0;
#X connect 8 0 42 0;
#X connect 9 0 43 0;
#X connect 10 0 11 0;
#X connect 11 0 82 0;
#X connect 12 0 11 1;
#X connect 13 0 12 0;
#X connect 14 0 13 0;
#X connect 14 0 13 1;
#X connect 15 0 16 0;
#X connect 16 0 82 0;
#X connect 17 0 16 1;
#X connect 18 0 17 0;
#X connect 19 0 18 0;
#X connect 19 0 18 1;
#X connect 20 0 21 0;
#X connect 21 0 82 0;
#X connect 22 0 21 1;
#X connect 23 0 22 0;
#X connect 24 0 23 0;
#X connect 24 0 23 1;
#X connect 25 0 26 0;
#X connect 26 0 82 0;
#X connect 27 0 26 1;
#X connect 28 0 27 0;
#X connect 29 0 28 0;
#X connect 29 0 28 1;
#X connect 30 0 39 0;
#X connect 31 0 29 1;
#X connect 32 0 24 1;
#X connect 33 0 19 1;
#X connect 34 0 14 1;
#X connect 35 0 44 0;
#X connect 36 0 9 0;
#X connect 37 0 8 0;
#X connect 38 0 7 0;
#X connect 39 0 40 0;
#X connect 40 0 49 0;
#X connect 40 0 50 0;
#X connect 41 0 14 0;
#X connect 42 0 19 0;
#X connect 43 0 24 0;
#X connect 44 0 29 0;
#X connect 45 0 46 0;
#X connect 45 1 46 1;
#X connect 46 0 48 0;
#X connect 47 0 6 0;
#X connect 48 0 47 0;
#X connect 49 0 60 0;
#X connect 50 0 59 0;
#X connect 51 0 38 1;
#X connect 52 0 37 1;
#X connect 53 0 36 1;
#X connect 54 0 35 1;
#X connect 55 0 34 1;
#X connect 56 0 33 1;
#X connect 57 0 32 1;
#X connect 58 0 31 1;
#X connect 62 0 70 0;
#X connect 63 0 67 0;
#X connect 64 0 62 0;
#X connect 65 0 66 0;
#X connect 66 0 80 0;
#X connect 67 0 65 0;
#X connect 67 1 64 0;
#X connect 67 2 68 1;
#X connect 68 0 74 0;
#X connect 69 0 81 0;
#X connect 70 0 72 1;
#X connect 71 0 63 1;
#X connect 71 0 84 0;
#X connect 72 0 68 0;
#X connect 73 0 72 0;
#X connect 74 0 76 0;
#X connect 74 1 75 0;
#X connect 75 0 71 0;
#X connect 75 1 77 0;
#X connect 76 0 71 0;
#X connect 77 0 78 0;
#X connect 78 0 71 0;
#X connect 79 0 72 0;
#X connect 80 0 73 0;
#X connect 80 1 79 0;
#X connect 81 0 63 0;
#X connect 82 0 87 0;
#X connect 82 0 88 0;
#X connect 83 0 0 0;
#X connect 84 0 83 0;
#X connect 85 0 86 0;
#X connect 86 0 69 0;
#X connect 87 0 4 0;
#X connect 88 0 4 1;
#X connect 89 0 87 1;
#X connect 89 1 88 1;
