#N canvas 178 102 942 619 12;
#X obj 76 301 mtof;
#X floatatom 76 278 5 0 150 0 - \$0-pit - 0;
#X obj 67 248 noise~;
#X floatatom 76 326 5 0 0 0 - - - 0;
#X text 120 247 white noise \, test signal;
#X obj 67 384 bp~;
#X text 105 384 band-pass filter;
#X floatatom 85 356 5 0 1000 0 - \$0-q - 0;
#X text 120 277 <-- cutoff (pitch units);
#X text 121 326 <-- cutoff (Hertz);
#X text 131 356 <-- Q (selectivity);
#X obj 202 126 bng 19 250 50 0 empty empty empty 0 -10 0 12 #fcfcfc #000000 #000000;
#X obj 120 103 bng 19 250 50 0 empty empty empty 0 -10 0 12 #fcfcfc #000000 #000000;
#X obj 72 511 dac~;
#X obj 75 478 *~;
#X obj 109 441 hsl 60 19 0 1 0 0 empty empty empty -2 -10 0 12 #fcfcfc #000000 #000000 0 1;
#X msg 85 162 60;
#X msg 165 201 1;
#X msg 133 165 100;
#X msg 212 201 10;
#X text 63 104 brown;
#X text 251 123 white;
#X connect 0 0 3 0;
#X connect 1 0 0 0;
#X connect 2 0 5 0;
#X connect 3 0 5 1;
#X connect 5 0 14 0;
#X connect 7 0 5 2;
#X connect 11 0 18 0;
#X connect 11 0 19 0;
#X connect 12 0 16 0;
#X connect 12 0 17 0;
#X connect 14 0 13 0;
#X connect 14 0 13 1;
#X connect 15 0 14 1;
#X connect 16 0 0 0;
#X connect 17 0 5 2;
#X connect 18 0 0 0;
#X connect 19 0 5 2;
