#N canvas 152 25 1150 774 12;
#X obj 332 421 *~;
#X obj 332 398 +~ 0.2;
#X obj 332 442 *~ 0.3;
#X obj 349 580 dac~;
#X obj 391 520 *~;
#X obj 331 520 *~;
#X obj 407 474 cos~;
#X obj 407 448 -~ 0.25;
#X obj 407 426 *~ 0.25;
#X obj 347 498 cos~;
#X obj 347 474 -~ 0.25;
#X obj 407 404 sig~ 0.51;
#X obj 332 376 vd~ \$0-d 0;
#X obj 450 305 mtof;
#X obj 441 273 noise~;
#X floatatom 450 330 5 0 0 0 - - - 0;
#X obj 441 362 bp~;
#X obj 520 210 bng 19 250 50 0 empty empty empty 0 -10 0 12 #fcfcfc #000000 #000000;
#X obj 482 211 bng 19 250 50 0 empty empty empty 0 -10 0 12 #fcfcfc #000000 #000000;
#X msg 482 237 60;
#X obj 522 316 +~ 1;
#X obj 524 566 +~;
#X obj 552 541 +~;
#X obj 525 588 clip~ 0 1;
#X obj 696 446 hip~ 0;
#X obj 697 402 lop~ 3;
#X obj 697 423 lop~ 3;
#X obj 636 450 *~;
#X obj 657 498 *~;
#X obj 635 380 max~ 0.4;
#X obj 635 402 -~ 0.4;
#X obj 635 425 *~ 8;
#X obj 697 467 *~ 20;
#X obj 492 451 hip~ 0;
#X obj 493 502 *~;
#X obj 561 407 *~;
#X obj 560 384 +~ 0.5;
#X obj 561 431 -~ 0.125;
#X obj 493 428 lop~ 0.5;
#X obj 493 407 lop~ 0.5;
#X obj 493 472 *~ 50;
#X msg 520 234 80;
#X obj 525 625 delwrite~ \$0-d 1000;
#X obj 522 294 osc~ 0.01;
#X obj 522 339 *~ 0.25;
#X msg 531 257 10;
#X msg 493 261 3;
#X obj 482 185 sel 0 1;
#X obj 501 148 hradio 19 1 0 2 empty empty empty 0 -10 0 12 #fcfcfc #000000 #000000 0;
#X obj 501 97 loadbang;
#X msg 501 121 1;
#X connect 0 0 2 0;
#X connect 1 0 0 0;
#X connect 2 0 4 0;
#X connect 2 0 5 0;
#X connect 4 0 3 1;
#X connect 5 0 3 0;
#X connect 6 0 4 1;
#X connect 7 0 6 0;
#X connect 7 0 10 0;
#X connect 8 0 7 0;
#X connect 9 0 5 1;
#X connect 10 0 9 0;
#X connect 11 0 8 0;
#X connect 12 0 1 0;
#X connect 13 0 15 0;
#X connect 14 0 16 0;
#X connect 15 0 16 1;
#X connect 16 0 0 1;
#X connect 16 0 39 0;
#X connect 16 0 25 0;
#X connect 17 0 41 0;
#X connect 17 0 45 0;
#X connect 18 0 19 0;
#X connect 18 0 46 0;
#X connect 19 0 13 0;
#X connect 20 0 44 0;
#X connect 21 0 23 0;
#X connect 22 0 21 1;
#X connect 23 0 42 0;
#X connect 24 0 32 0;
#X connect 25 0 26 0;
#X connect 26 0 24 0;
#X connect 27 0 28 0;
#X connect 28 0 22 1;
#X connect 29 0 30 0;
#X connect 30 0 31 0;
#X connect 31 0 27 0;
#X connect 31 0 27 1;
#X connect 32 0 28 1;
#X connect 33 0 40 0;
#X connect 34 0 22 0;
#X connect 35 0 37 0;
#X connect 36 0 35 0;
#X connect 36 0 35 1;
#X connect 37 0 34 1;
#X connect 38 0 33 0;
#X connect 39 0 38 0;
#X connect 40 0 34 0;
#X connect 41 0 13 0;
#X connect 43 0 20 0;
#X connect 44 0 21 0;
#X connect 44 0 36 0;
#X connect 44 0 29 0;
#X connect 45 0 16 2;
#X connect 46 0 16 2;
#X connect 47 0 18 0;
#X connect 47 1 17 0;
#X connect 48 0 47 0;
#X connect 49 0 50 0;
#X connect 50 0 48 0;
