#N canvas 11 82 681 317 12;
#X declare -stdpath ./;
#X obj 23 29 receive platform;
#X obj 23 53 list trim;
#X obj 23 121 tgl 19 0 empty empty stair 0 -10 0 12 #fcfcfc #000000 #000000 0 1;
#X obj 23 77 route Stair Fluid Rubble Slope SpeedArea Terrain;
#X obj 88 121 tgl 19 0 empty empty fluid 0 -10 0 12 #fcfcfc #000000 #000000 0 1;
#X obj 154 121 tgl 19 0 empty empty rubble 0 -10 0 12 #fcfcfc #000000 #000000 0 1;
#X obj 219 121 tgl 19 0 empty empty slope 0 -10 0 12 #fcfcfc #000000 #000000 0 1;
#X obj 285 121 tgl 19 0 empty empty speedarea 0 -10 0 12 #fcfcfc #000000 #000000 0 1;
#X obj 360 121 tgl 19 0 empty empty terrain 0 -10 0 12 #fcfcfc #000000 #000000 0 1;
#X obj 23 160 sel 1 0;
#X obj 88 160 sel 1 0;
#X obj 154 160 sel 1 0;
#X obj 219 160 sel 1 0;
#X obj 285 160 sel 1 0;
#X obj 360 160 sel 1 0;
#N canvas 21 34 1366 695 rubble 0;
#X obj 250 428 +~;
#X obj 259 237 delwrite~ G07-del 30;
#X obj 543 434 line~;
#X obj 392 441 *~;
#X obj 498 381 line~;
#X obj 355 383 *~;
#X obj 307 351 line~;
#X obj 268 348 *~;
#X obj 286 268 line~;
#X obj 250 268 *~;
#X obj 512 133 + 1;
#X obj 512 156 mod 4;
#X obj 477 144 f;
#X obj 477 182 t f b;
#X obj 477 79 tgl 19 0 empty empty empty 0 -6 0 8 #dfdfdf #000000 #000000 0 1;
#X floatatom 565 131 5 10 1000 0 - - - 0;
#X obj 477 289 route 0 1 2 3;
#X obj 268 302 delread~ G07-del 30;
#X obj 355 357 delread~ G07-del 17;
#X obj 392 415 delread~ G07-del 11;
#X obj 565 166 * 4;
#X obj 521 234 expr 2 * $f1/1000 - 0.7;
#X floatatom 249 176 5 30 1000 0 - - - 0;
#X text 291 176 frequency;
#X text 425 79 on/off;
#X obj 411 493 declare -stdpath ./;
#X obj 477 262 pack f f 200, f 13;
#X obj 249 122 loadbang;
#X msg 249 148 80;
#X obj 477 105 metro;
#X obj 565 81 loadbang;
#X msg 565 105 50;
#X obj 297 644 dac~;
#X obj 300 611 *~;
#X obj 342 575 hsl 60 19 0 1 0 0 empty empty empty -2 -10 0 12 #fcfcfc #000000 #000000 0 1;
#X obj 148 218 phasor~;
#X obj 859 155 loadbang;
#X msg 845 192 \; table20 sinesum 256 1 1 1 1 0 0 0 0 1 0 0 0 0 0 0 1 0 0 0 0 0 0 1 0 0 0 0 0 0 1 0 0 0 0 1 0 0 0 0 0 1 0 0 0 0 1 \, normalize 0.4;
#N canvas 0 22 450 278 (subpatch) 0;
#X array table20 259 float 1;
#A 0 -0.294693 0 0.294693 0.4 0.28948 0.10749 0.022875 0.0789655 0.181673 0.218249 0.171348 0.115564 0.119192 0.169863 0.201356 0.178657 0.137857 0.138353 0.188891 0.23571 0.22487 0.164534 0.115848 0.125265 0.176634 0.214361 0.205655 0.169043 0.14204 0.134157 0.124033 0.0997798 0.0859507 0.118173 0.195202 0.270956 0.301868 0.293569 0.285908 0.289835 0.256276 0.128881 -0.0684912 -0.215994 -0.195335 -0.0145421 0.174701 0.203986 0.0451069 -0.159794 -0.231026 -0.119011 0.0575033 0.135323 0.0628509 -0.0665307 -0.124779 -0.0776696 0.000279083 0.0247376 -0.00546273 -0.0222151 0.017933 0.0755681 0.0749102 4.97367e-06 -0.0729564 -0.0490464 0.0834901 0.232853 0.286943 0.213202 0.0759584 -0.0357248 -0.0863297 -0.101697 -0.115455 -0.125625 -0.107127 -0.0530433 0.012152 0.0608637 0.0902219 0.111597 0.119683 0.0910146 0.0236817 -0.0326555 -0.0100379 0.100844 0.216022 0.223032 0.094995 -0.0649958 -0.110291 0.00678482 0.180334 0.247439 0.144699 -0.0319975 -0.124321 -0.0648335 0.0680811 0.141409 0.100343 0.00354248 -0.0636733 -0.0891566 -0.131987 -0.227286 -0.316392 -0.293048 -0.12222 0.100475 0.222686 0.173879 0.0281889 -0.0714016 -0.0482686 0.0482418 0.108884 0.0773858 -0.00559103 -0.0590099 -0.0454391 0.00509731 0.0411467 0.0421476 0.0225557 2.40108e-06 -0.0225508 -0.0421448 -0.0411506 -0.00510821 0.0454302 0.0590142 0.0056084 -0.0773706 -0.108887 -0.0482625 0.048252 0.0714103 -0.0281575 -0.173853 -0.222693 -0.100517 0.122172 0.293026 0.316402 0.22731 0.132002 0.0891614 0.063682 -0.00352253 -0.100324 -0.141412 -0.0681076 0.0648079 0.124324 0.0320316 -0.144663 -0.247435 -0.180365 -0.00682225 0.110282 0.0650224 -0.0949583 -0.223017 -0.216038 -0.100873 0.010022 0.0326611 -0.0236657 -0.0910033 -0.119682 -0.111601 -0.0902271 -0.0608718 -0.0121649 0.0530291 0.107119 0.125625 0.115458 0.101699 0.0863353 0.0357423 -0.0759289 -0.213176 -0.28694 -0.232878 -0.0835252 0.0490278 0.0729642 1.4921e-05 -0.0749008 -0.0755765 -0.0179463 0.0222127 0.00547055 -0.0247352 -0.000292052 0.0776522 0.12478 0.0665546 -0.062824 -0.135322 -0.0575355 0.118973 0.23102 0.159828 -0.0450604 -0.203969 -0.174729 0.014495 0.195309 0.21601 0.0685338 -0.128843 -0.25626 -0.289835 -0.285909 -0.293565 -0.30187 -0.270969 -0.195221 -0.118186 -0.0859518 -0.0997742 -0.124029 -0.134156 -0.142036 -0.169035 -0.205649 -0.214364 -0.176646 -0.125273 -0.115843 -0.16452 -0.22486 -0.235715 -0.188904 -0.13836 -0.137851 -0.178647 -0.201357 -0.169874 -0.1192 -0.115557 -0.171333 -0.218246 -0.181691 -0.0789875 -0.0228734 -0.107456 -0.289441 -0.399997 -0.294741 -7.20325e-05 0.294645;
#X coords 0 1 258 -1 200 140 1;
#X restore 846 302 graph;
#X obj 22 211 line~;
#X obj 22 244 tabosc4~ table20;
#X obj 682 96 + 30;
#X obj 682 20 tgl 19 0 empty empty empty 0 -10 0 12 #fcfcfc #000000 #000000 0 1;
#X obj 688 160 line;
#X obj 682 46 metro 3000;
#X msg 682 120 \$1 1000;
#X obj 521 207 random 1500;
#X obj 682 72 random 80;
#X obj 181 250 *~ 0.5;
#X obj 71 35 receive posY;
#X floatatom 71 60 5 0 0 1 posY - - 0;
#X text 160 55 12.21 - 13 // jump 17;
#X obj 71 89 - 12.2;
#X obj 71 137 + 80;
#X obj 437 623 vline~;
#X msg 437 599 \$1 100;
#X obj 520 15 loadbang;
#X obj 71 113 * -10;
#X obj 437 574 * 0.1;
#X obj 601 547 inlet;
#X connect 0 0 33 0;
#X connect 2 0 3 1;
#X connect 3 0 0 1;
#X connect 4 0 5 1;
#X connect 5 0 0 1;
#X connect 6 0 7 1;
#X connect 7 0 0 1;
#X connect 8 0 9 1;
#X connect 9 0 0 0;
#X connect 10 0 11 0;
#X connect 11 0 12 1;
#X connect 12 0 10 0;
#X connect 12 0 13 0;
#X connect 13 0 26 0;
#X connect 13 1 46 0;
#X connect 14 0 29 0;
#X connect 15 0 20 0;
#X connect 15 0 29 1;
#X connect 16 0 8 0;
#X connect 16 1 6 0;
#X connect 16 2 4 0;
#X connect 16 3 2 0;
#X connect 17 0 7 0;
#X connect 18 0 5 0;
#X connect 19 0 3 0;
#X connect 20 0 26 2;
#X connect 21 0 26 1;
#X connect 22 0 35 0;
#X connect 22 0 39 0;
#X connect 26 0 16 0;
#X connect 27 0 28 0;
#X connect 28 0 22 0;
#X connect 29 0 12 0;
#X connect 30 0 31 0;
#X connect 31 0 15 0;
#X connect 33 0 32 0;
#X connect 33 0 32 1;
#X connect 34 0 33 1;
#X connect 35 0 48 0;
#X connect 36 0 37 0;
#X connect 39 0 40 0;
#X connect 40 0 1 0;
#X connect 40 0 9 0;
#X connect 41 0 45 0;
#X connect 42 0 44 0;
#X connect 43 0 15 0;
#X connect 44 0 47 0;
#X connect 45 0 43 0;
#X connect 46 0 21 0;
#X connect 47 0 41 0;
#X connect 48 0 9 0;
#X connect 49 0 50 0;
#X connect 50 0 52 0;
#X connect 52 0 57 0;
#X connect 53 0 22 0;
#X connect 54 0 33 1;
#X connect 55 0 54 0;
#X connect 56 0 42 0;
#X connect 56 0 14 0;
#X connect 57 0 53 0;
#X connect 58 0 55 0;
#X connect 59 0 58 0;
#X restore 193 215 pd rubble;
#N canvas 21 39 1207 653 fluid 1;
#X obj 1097 301 line;
#X msg 1097 219 0 \, 1 9000;
#X obj 1097 349 swap 1;
#X obj 1097 373 -;
#X obj 1097 397 * 300;
#X obj 1097 421 + 600;
#X obj 1097 325 trigger float float;
#X obj 1227 383 + 100;
#X obj 1227 359 * 2000;
#X obj 749 236 line;
#X msg 781 210 1 800;
#X msg 717 210 0 800;
#X obj 749 260 * 24;
#X obj 749 284 + 4;
#N canvas 235 30 358 287 openpipe 0;
#X obj 197 77 * 3;
#X obj 231 77 * 5;
#X obj 265 77 * 7;
#X obj 163 77 * 1;
#X obj 73 46 inlet~;
#X obj 93 237 outlet~;
#X obj 163 29 inlet length;
#X obj 93 122 bp~ 1 30;
#X obj 113 146 bp~ 1 30;
#X obj 133 170 bp~ 1 30;
#X obj 153 194 bp~ 1 30;
#X obj 163 53 trigger f f f f;
#X connect 0 0 8 1;
#X connect 1 0 9 1;
#X connect 2 0 10 1;
#X connect 3 0 7 1;
#X connect 4 0 7 0;
#X connect 4 0 8 0;
#X connect 4 0 9 0;
#X connect 4 0 10 0;
#X connect 6 0 11 0;
#X connect 7 0 5 0;
#X connect 8 0 5 0;
#X connect 9 0 5 0;
#X connect 10 0 5 0;
#X connect 11 0 3 0;
#X connect 11 1 0 0;
#X connect 11 2 1 0;
#X connect 11 3 2 0;
#X restore 780 419 pd openpipe;
#N canvas 632 44 452 430 waterflow 0;
#X obj 55 242 osc~;
#X obj 55 192 line~;
#X obj 95 350 *~;
#X obj 112 326 *~;
#X obj 55 72 metro 6;
#X obj 55 144 + 800;
#X obj 112 301 *~ 0.9;
#X obj 112 277 lop~ 10;
#N canvas 509 84 378 370 bilexp 0;
#X obj 55 197 expr exp($f1);
#X obj 55 69 random 8192;
#X obj 55 157 * 9;
#X obj 55 133 / 4096;
#X obj 123 108 > 4096;
#X obj 123 132 sel 0 1, f 11;
#X msg 123 156 -1;
#X msg 160 156 1;
#X obj 55 230 *;
#X obj 55 254 / 23000;
#X obj 55 45 t b;
#X obj 55 21 inlet;
#X obj 55 278 outlet;
#X obj 55 109 mod 4096;
#X text 55 306 exponential -8103/23000 ~ +8103/23000;
#X text 53 320 == exponential -0.352 ~ +0.352;
#X connect 0 0 8 0;
#X connect 1 0 4 0;
#X connect 1 0 13 0;
#X connect 2 0 0 0;
#X connect 3 0 2 0;
#X connect 4 0 5 0;
#X connect 5 0 6 0;
#X connect 5 1 7 0;
#X connect 6 0 8 1;
#X connect 7 0 8 1;
#X connect 8 0 9 0;
#X connect 9 0 12 0;
#X connect 10 0 1 0;
#X connect 11 0 10 0;
#X connect 13 0 3 0;
#X restore 55 96 pd bilexp;
#X obj 112 253 clip~ 0 1;
#X obj 55 168 pack 1 2.689;
#X obj 55 120 * 1600;
#X msg 55 48 1;
#X obj 55 24 loadbang;
#X obj 112 229 fexpr~ $x1 - $x1[-1];
#X obj 95 374 *~ 0.3;
#X obj 95 398 outlet~;
#X obj 129 43 inlet rate;
#X obj 153 93 inlet depth;
#X text 153 119 exponential -563 ~ +563;
#X text 183 173 exponential +236 ~ +1363;
#X text 229 73 900 -> 600;
#X text 193 153 exponential +336 ~ +1463;
#X text 193 193 exponential +36 ~ +1163;
#X floatatom 261 29 5 0 0 0 - - - 0;
#X connect 0 0 2 0;
#X connect 1 0 0 0;
#X connect 1 0 14 0;
#X connect 2 0 15 0;
#X connect 3 0 2 1;
#X connect 4 0 8 0;
#X connect 5 0 10 0;
#X connect 6 0 3 0;
#X connect 6 0 3 1;
#X connect 7 0 6 0;
#X connect 8 0 11 0;
#X connect 9 0 7 0;
#X connect 10 0 1 0;
#X connect 11 0 5 0;
#X connect 12 0 4 0;
#X connect 13 0 12 0;
#X connect 14 0 9 0;
#X connect 15 0 16 0;
#X connect 17 0 4 1;
#X connect 17 0 24 0;
#X connect 18 0 5 1;
#X restore 749 368 pd waterflow;
#X obj 781 506 *~;
#X obj 797 483 lop~ 0.5;
#X obj 797 460 sig~;
#X obj 878 272 line;
#X msg 878 215 1 300;
#X msg 901 239 0 1200;
#N canvas 46 59 394 536 bubblefactory 0;
#N canvas 332 25 570 560 bubble 0;
#X obj 60 405 osc~;
#X obj 60 444 *~;
#X obj 30 61 inlet;
#X obj 60 469 outlet~;
#N canvas 231 126 309 251 env4pow 0;
#X obj 73 69 vline~;
#X obj 72 95 *~;
#X obj 72 120 *~;
#X obj 24 157 -~;
#X obj 24 181 outlet~;
#X msg 73 42 1 0 0 \, 0 \$1 0;
#X obj 73 18 inlet;
#X obj 23 119 sig~ 1;
#X obj 82 181 outlet~;
#X connect 0 0 1 0;
#X connect 0 0 1 1;
#X connect 1 0 2 0;
#X connect 1 0 2 1;
#X connect 2 0 3 1;
#X connect 2 0 8 0;
#X connect 3 0 4 0;
#X connect 5 0 0 0;
#X connect 6 0 5 0;
#X connect 7 0 3 0;
#X restore 60 325 pd env4pow;
#X obj 30 83 unpack f f;
#X obj 125 347 *~;
#X obj 30 146 spigot;
#X obj 67 123 != 0;
#X obj 30 240 swap 1;
#X obj 124 369 lop~ 120;
#X obj 30 263 /;
#X obj 30 189 + 0.4;
#X obj 124 395 *~;
#X obj 186 325 swap 1;
#X obj 186 348 -;
#X obj 30 168 t f f f;
#X obj 186 369 + 0.1;
#X obj 141 179 / 3;
#X obj 141 199 + 0.6;
#X obj 60 370 +~;
#X obj 60 347 *~ 2000;
#X obj 306 88 inlet base;
#X obj 306 138 * 2;
#X obj 76 274 *;
#X obj 76 296 +;
#X obj 306 113 * 800;
#X obj 225 128 swap 1;
#X obj 226 153 -;
#X obj 29 287 *;
#X obj 224 177 * 80;
#X connect 0 0 1 0;
#X connect 1 0 3 0;
#X connect 2 0 5 0;
#X connect 4 0 21 0;
#X connect 4 1 6 0;
#X connect 5 0 7 0;
#X connect 5 1 8 0;
#X connect 5 1 18 0;
#X connect 6 0 10 0;
#X connect 7 0 16 0;
#X connect 8 0 7 1;
#X connect 9 0 11 0;
#X connect 9 1 11 1;
#X connect 10 0 13 0;
#X connect 11 0 29 0;
#X connect 12 0 9 0;
#X connect 13 0 1 1;
#X connect 14 0 15 0;
#X connect 14 1 15 1;
#X connect 15 0 17 0;
#X connect 16 0 12 0;
#X connect 16 1 24 0;
#X connect 16 2 14 0;
#X connect 17 0 13 1;
#X connect 18 0 19 0;
#X connect 19 0 6 1;
#X connect 20 0 0 0;
#X connect 21 0 20 0;
#X connect 22 0 26 0;
#X connect 22 0 27 0;
#X connect 23 0 24 1;
#X connect 24 0 25 0;
#X connect 25 0 20 1;
#X connect 26 0 23 0;
#X connect 26 0 25 1;
#X connect 27 0 28 0;
#X connect 27 1 28 0;
#X connect 28 0 30 0;
#X connect 29 0 4 0;
#X connect 30 0 29 1;
#X restore 28 375 pd bubble;
#X obj 114 134 random 1000;
#X obj 114 157 / 1000;
#X obj 28 325 pack f f f;
#X obj 28 197 pack f f;
#X obj 28 284 poly 4 1;
#X obj 28 350 route 1 2 3 4;
#X obj 28 134 random 1000;
#X obj 28 157 / 1000;
#X obj 28 229 spigot;
#X obj 200 134 random 100;
#X obj 98 89 t b b b;
#N canvas 0 0 570 560 bubble 0;
#X obj 60 405 osc~;
#X obj 60 444 *~;
#X obj 30 61 inlet;
#X obj 60 469 outlet~;
#N canvas 0 0 450 300 env4pow 0;
#X obj 210 157 vline~;
#X obj 209 183 *~;
#X obj 209 208 *~;
#X obj 161 245 -~;
#X obj 161 269 outlet~;
#X msg 210 130 1 0 0 \, 0 \$1 0;
#X obj 210 106 inlet;
#X obj 160 207 sig~ 1;
#X obj 219 269 outlet~;
#X connect 0 0 1 0;
#X connect 0 0 1 1;
#X connect 1 0 2 0;
#X connect 1 0 2 1;
#X connect 2 0 3 1;
#X connect 2 0 8 0;
#X connect 3 0 4 0;
#X connect 5 0 0 0;
#X connect 6 0 5 0;
#X connect 7 0 3 0;
#X restore 60 325 pd env4pow;
#X obj 30 83 unpack f f;
#X obj 125 347 *~;
#X obj 30 146 spigot;
#X obj 67 123 != 0;
#X obj 30 240 swap 1;
#X obj 124 369 lop~ 120;
#X obj 30 263 /;
#X obj 30 189 + 0.4;
#X obj 124 395 *~;
#X obj 186 325 swap 1;
#X obj 186 348 -;
#X obj 30 168 t f f f;
#X obj 186 369 + 0.1;
#X obj 141 179 / 3;
#X obj 141 199 + 0.6;
#X obj 60 370 +~;
#X obj 60 347 *~ 2000;
#X obj 306 88 inlet base;
#X obj 306 138 * 2;
#X obj 76 274 *;
#X obj 76 296 +;
#X obj 306 113 * 800;
#X obj 225 128 swap 1;
#X obj 226 153 -;
#X obj 29 287 *;
#X obj 224 177 * 80;
#X connect 0 0 1 0;
#X connect 1 0 3 0;
#X connect 2 0 5 0;
#X connect 4 0 21 0;
#X connect 4 1 6 0;
#X connect 5 0 7 0;
#X connect 5 1 8 0;
#X connect 5 1 18 0;
#X connect 6 0 10 0;
#X connect 7 0 16 0;
#X connect 8 0 7 1;
#X connect 9 0 11 0;
#X connect 9 1 11 1;
#X connect 10 0 13 0;
#X connect 11 0 29 0;
#X connect 12 0 9 0;
#X connect 13 0 1 1;
#X connect 14 0 15 0;
#X connect 14 1 15 1;
#X connect 15 0 17 0;
#X connect 16 0 12 0;
#X connect 16 1 24 0;
#X connect 16 2 14 0;
#X connect 17 0 13 1;
#X connect 18 0 19 0;
#X connect 19 0 6 1;
#X connect 20 0 0 0;
#X connect 21 0 20 0;
#X connect 22 0 26 0;
#X connect 22 0 27 0;
#X connect 23 0 24 1;
#X connect 24 0 25 0;
#X connect 25 0 20 1;
#X connect 26 0 23 0;
#X connect 26 0 25 1;
#X connect 27 0 28 0;
#X connect 27 1 28 0;
#X connect 28 0 30 0;
#X connect 29 0 4 0;
#X connect 30 0 29 1;
#X restore 38 399 pd bubble;
#N canvas -8 55 563 560 bubble 0;
#X obj 60 405 osc~;
#X obj 60 444 *~;
#X obj 30 61 inlet;
#X obj 60 469 outlet~;
#N canvas 0 0 450 300 env4pow 0;
#X obj 210 157 vline~;
#X obj 209 183 *~;
#X obj 209 208 *~;
#X obj 161 245 -~;
#X obj 161 269 outlet~;
#X msg 210 130 1 0 0 \, 0 \$1 0;
#X obj 210 106 inlet;
#X obj 160 207 sig~ 1;
#X obj 219 269 outlet~;
#X connect 0 0 1 0;
#X connect 0 0 1 1;
#X connect 1 0 2 0;
#X connect 1 0 2 1;
#X connect 2 0 3 1;
#X connect 2 0 8 0;
#X connect 3 0 4 0;
#X connect 5 0 0 0;
#X connect 6 0 5 0;
#X connect 7 0 3 0;
#X restore 60 325 pd env4pow;
#X obj 30 83 unpack f f;
#X obj 125 347 *~;
#X obj 30 146 spigot;
#X obj 67 123 != 0;
#X obj 30 240 swap 1;
#X obj 124 369 lop~ 120;
#X obj 30 263 /;
#X obj 30 189 + 0.4;
#X obj 124 395 *~;
#X obj 186 325 swap 1;
#X obj 186 348 -;
#X obj 30 168 t f f f;
#X obj 186 369 + 0.1;
#X obj 141 179 / 3;
#X obj 141 199 + 0.6;
#X obj 60 370 +~;
#X obj 60 347 *~ 2000;
#X obj 306 88 inlet base;
#X obj 306 138 * 2;
#X obj 76 274 *;
#X obj 76 296 +;
#X obj 306 113 * 800;
#X obj 225 128 swap 1;
#X obj 225 152 -;
#X obj 29 287 *;
#X obj 225 182 * 80;
#X connect 0 0 1 0;
#X connect 1 0 3 0;
#X connect 2 0 5 0;
#X connect 4 0 21 0;
#X connect 4 1 6 0;
#X connect 5 0 7 0;
#X connect 5 1 8 0;
#X connect 5 1 18 0;
#X connect 6 0 10 0;
#X connect 7 0 16 0;
#X connect 8 0 7 1;
#X connect 9 0 11 0;
#X connect 9 1 11 1;
#X connect 10 0 13 0;
#X connect 11 0 29 0;
#X connect 12 0 9 0;
#X connect 13 0 1 1;
#X connect 14 0 15 0;
#X connect 14 1 15 1;
#X connect 15 0 17 0;
#X connect 16 0 12 0;
#X connect 16 1 24 0;
#X connect 16 2 14 0;
#X connect 17 0 13 1;
#X connect 18 0 19 0;
#X connect 19 0 6 1;
#X connect 20 0 0 0;
#X connect 21 0 20 0;
#X connect 22 0 26 0;
#X connect 22 0 27 0;
#X connect 23 0 24 1;
#X connect 24 0 25 0;
#X connect 25 0 20 1;
#X connect 26 0 23 0;
#X connect 26 0 25 1;
#X connect 27 0 28 0;
#X connect 27 1 28 1;
#X connect 28 0 30 0;
#X connect 29 0 4 0;
#X connect 30 0 29 1;
#X restore 48 423 pd bubble;
#N canvas 0 25 570 560 bubble 0;
#X obj 60 405 osc~;
#X obj 60 444 *~;
#X obj 30 61 inlet;
#X obj 60 469 outlet~;
#N canvas 0 25 450 300 env4pow 0;
#X obj 210 157 vline~;
#X obj 209 183 *~;
#X obj 209 208 *~;
#X obj 161 245 -~;
#X obj 161 269 outlet~;
#X msg 210 130 1 0 0 \, 0 \$1 0;
#X obj 210 106 inlet;
#X obj 160 207 sig~ 1;
#X obj 219 269 outlet~;
#X connect 0 0 1 0;
#X connect 0 0 1 1;
#X connect 1 0 2 0;
#X connect 1 0 2 1;
#X connect 2 0 3 1;
#X connect 2 0 8 0;
#X connect 3 0 4 0;
#X connect 5 0 0 0;
#X connect 6 0 5 0;
#X connect 7 0 3 0;
#X restore 60 325 pd env4pow;
#X obj 30 83 unpack f f;
#X obj 125 347 *~;
#X obj 30 146 spigot;
#X obj 67 123 != 0;
#X obj 30 240 swap 1;
#X obj 124 369 lop~ 120;
#X obj 30 263 /;
#X obj 30 189 + 0.4;
#X obj 124 395 *~;
#X obj 186 325 swap 1;
#X obj 186 348 -;
#X obj 30 168 t f f f;
#X obj 186 369 + 0.1;
#X obj 141 179 / 3;
#X obj 141 199 + 0.6;
#X obj 60 370 +~;
#X obj 60 347 *~ 2000;
#X obj 306 88 inlet base;
#X obj 306 138 * 2;
#X obj 76 274 *;
#X obj 76 296 +;
#X obj 306 113 * 800;
#X obj 225 128 swap 1;
#X obj 226 153 -;
#X obj 29 287 *;
#X obj 224 177 * 80;
#X connect 0 0 1 0;
#X connect 1 0 3 0;
#X connect 2 0 5 0;
#X connect 4 0 21 0;
#X connect 4 1 6 0;
#X connect 5 0 7 0;
#X connect 5 1 8 0;
#X connect 5 1 18 0;
#X connect 6 0 10 0;
#X connect 7 0 16 0;
#X connect 8 0 7 1;
#X connect 9 0 11 0;
#X connect 9 1 11 1;
#X connect 10 0 13 0;
#X connect 11 0 29 0;
#X connect 12 0 9 0;
#X connect 13 0 1 1;
#X connect 14 0 15 0;
#X connect 14 1 15 1;
#X connect 15 0 17 0;
#X connect 16 0 12 0;
#X connect 16 1 24 0;
#X connect 16 2 14 0;
#X connect 17 0 13 1;
#X connect 18 0 19 0;
#X connect 19 0 6 1;
#X connect 20 0 0 0;
#X connect 21 0 20 0;
#X connect 22 0 26 0;
#X connect 22 0 27 0;
#X connect 23 0 24 1;
#X connect 24 0 25 0;
#X connect 25 0 20 1;
#X connect 26 0 23 0;
#X connect 26 0 25 1;
#X connect 27 0 28 0;
#X connect 27 1 28 0;
#X connect 28 0 30 0;
#X connect 29 0 4 0;
#X connect 30 0 29 1;
#X restore 58 447 pd bubble;
#X obj 29 490 outlet~;
#X obj 98 60 t b b, f 21;
#X obj 242 374 random 10000;
#X obj 242 398 / 10000;
#X text 252 344 random [0 - 1);
#X obj 200 158 > 0;
#X obj 30 75 bng 19 250 50 0 empty empty empty 0 -10 0 12 #fcfcfc #000000 #000000;
#X obj 98 12 inlet;
#X connect 0 0 15 0;
#X connect 1 0 2 0;
#X connect 2 0 4 1;
#X connect 3 0 6 0;
#X connect 4 0 9 0;
#X connect 5 0 3 0;
#X connect 5 1 3 1;
#X connect 5 2 3 2;
#X connect 6 0 0 0;
#X connect 6 1 12 0;
#X connect 6 2 13 0;
#X connect 6 3 14 0;
#X connect 7 0 8 0;
#X connect 8 0 4 0;
#X connect 9 0 5 0;
#X connect 10 0 20 0;
#X connect 11 0 7 0;
#X connect 11 1 1 0;
#X connect 11 2 10 0;
#X connect 12 0 15 0;
#X connect 13 0 15 0;
#X connect 14 0 15 0;
#X connect 16 0 11 0;
#X connect 16 1 17 0;
#X connect 17 0 18 0;
#X connect 18 0 0 1;
#X connect 18 0 14 1;
#X connect 18 0 13 1;
#X connect 18 0 12 1;
#X connect 20 0 9 1;
#X connect 22 0 16 0;
#X connect 22 0 21 0;
#X restore 577 279 pd bubblefactory;
#N canvas 411 147 659 449 chord 0;
#X obj 73 155 -~ 0.5;
#X obj 73 209 clip~ -0.5 0.5;
#X obj 73 240 cos~;
#X obj 207 323 hip~ 5;
#X obj 207 386 outlet~;
#X obj 73 182 *~ 3;
#X obj 73 130 phasor~ 220;
#X obj 207 155 -~ 0.5;
#X obj 207 209 clip~ -0.5 0.5;
#X obj 207 240 cos~;
#X obj 207 182 *~ 3;
#X obj 342 158 -~ 0.5;
#X obj 342 212 clip~ -0.5 0.5;
#X obj 342 243 cos~;
#X obj 342 185 *~ 3;
#X obj 477 158 -~ 0.5;
#X obj 477 212 clip~ -0.5 0.5;
#X obj 477 243 cos~;
#X obj 477 185 *~ 3;
#X obj 207 130 phasor~ 251;
#X obj 342 133 phasor~ 281;
#X obj 477 133 phasor~ 311;
#X text 236 44 test sound for phaser;
#X obj 207 356 *~ 0.2;
#X floatatom 112 26 5 0 0 0 - - - 0;
#X obj 179 80 * 1.14;
#X obj 304 84 * 1.27;
#X obj 448 86 * 1.41;
#X obj 56 21 inlet;
#X connect 0 0 5 0;
#X connect 1 0 2 0;
#X connect 2 0 3 0;
#X connect 3 0 23 0;
#X connect 5 0 1 0;
#X connect 6 0 0 0;
#X connect 7 0 10 0;
#X connect 8 0 9 0;
#X connect 9 0 3 0;
#X connect 10 0 8 0;
#X connect 11 0 14 0;
#X connect 12 0 13 0;
#X connect 13 0 3 0;
#X connect 14 0 12 0;
#X connect 15 0 18 0;
#X connect 16 0 17 0;
#X connect 17 0 3 0;
#X connect 18 0 16 0;
#X connect 19 0 7 0;
#X connect 20 0 11 0;
#X connect 21 0 15 0;
#X connect 23 0 4 0;
#X connect 24 0 6 0;
#X connect 24 0 25 0;
#X connect 24 0 26 0;
#X connect 24 0 27 0;
#X connect 25 0 19 0;
#X connect 26 0 20 0;
#X connect 27 0 21 0;
#X connect 28 0 24 0;
#X restore 183 310 pd chord;
#X obj 200 374 rpole~;
#X obj 200 349 rzero_rev~;
#X obj 200 423 rpole~;
#X obj 200 398 rzero_rev~;
#X obj 200 471 rpole~;
#X obj 200 446 rzero_rev~;
#X obj 200 520 rpole~;
#X obj 200 495 rzero_rev~;
#X obj 182 550 +~;
#X obj 366 369 phasor~ 0.3;
#X obj 366 401 expr~ 1 - 0.03 - 0.6*abs($v1-0.5)*abs($v1-0.5), f 17;
#X obj 193 189 pipe 500;
#X obj 182 574 *~;
#X obj 182 598 dac~;
#X obj 37 440 vline~;
#X obj 37 391 * 0.1;
#X obj 183 46 receive posY;
#X floatatom 183 71 5 0 0 1 posY - - 0;
#X text 272 66 12.21 - 17+;
#X obj 781 536 dac~;
#X msg 37 416 \$1 500;
#X obj 37 362 tgl 19 0 empty empty empty 0 -10 0 12 #fcfcfc #000000 #000000 0 1;
#X floatatom 183 134 5 0 0 0 - - - 0;
#X text 2045 591 |||||||||||;
#X floatatom 1097 445 5 0 0 0 - - - 0;
#X floatatom 1227 407 5 0 0 0 - - - 0;
#X floatatom 796 263 5 0 0 0 - - - 0;
#N canvas 632 44 452 430 waterflow 0;
#X obj 55 242 osc~;
#X obj 55 192 line~;
#X obj 95 350 *~;
#X obj 112 326 *~;
#X obj 55 72 metro 6;
#X obj 55 144 + 800;
#X obj 112 301 *~ 0.9;
#X obj 112 277 lop~ 10;
#N canvas 555 196 378 370 bilexp 0;
#X obj 55 197 expr exp($f1);
#X obj 55 69 random 8192;
#X obj 55 157 * 9;
#X obj 55 133 / 4096;
#X obj 123 108 > 4096;
#X obj 123 132 sel 0 1, f 11;
#X msg 123 156 -1;
#X msg 160 156 1;
#X obj 55 230 *;
#X obj 55 254 / 23000;
#X obj 55 45 t b;
#X obj 55 21 inlet;
#X obj 55 278 outlet;
#X obj 55 109 mod 4096;
#X text 55 306 exponential -8103/23000 ~ +8103/23000;
#X text 53 320 == exponential -0.352 ~ +0.352;
#X connect 0 0 8 0;
#X connect 1 0 4 0;
#X connect 1 0 13 0;
#X connect 2 0 0 0;
#X connect 3 0 2 0;
#X connect 4 0 5 0;
#X connect 5 0 6 0;
#X connect 5 1 7 0;
#X connect 6 0 8 1;
#X connect 7 0 8 1;
#X connect 8 0 9 0;
#X connect 9 0 12 0;
#X connect 10 0 1 0;
#X connect 11 0 10 0;
#X connect 13 0 3 0;
#X restore 55 96 pd bilexp;
#X obj 112 253 clip~ 0 1;
#X obj 55 168 pack 1 2.689;
#X obj 55 120 * 1600;
#X msg 55 48 1;
#X obj 55 24 loadbang;
#X obj 112 229 fexpr~ $x1 - $x1[-1];
#X obj 95 374 *~ 0.3;
#X obj 95 398 outlet~;
#X obj 129 43 inlet rate;
#X obj 153 93 inlet depth;
#X text 153 119 exponential -563 ~ +563;
#X text 183 173 exponential +236 ~ +1363;
#X text 229 73 900 -> 600;
#X text 193 153 exponential +336 ~ +1463;
#X text 193 193 exponential +36 ~ +1163;
#X floatatom 261 29 5 0 0 0 - - - 0;
#X connect 0 0 2 0;
#X connect 1 0 0 0;
#X connect 1 0 14 0;
#X connect 2 0 15 0;
#X connect 3 0 2 1;
#X connect 4 0 8 0;
#X connect 5 0 10 0;
#X connect 6 0 3 0;
#X connect 6 0 3 1;
#X connect 7 0 6 0;
#X connect 8 0 11 0;
#X connect 9 0 7 0;
#X connect 10 0 1 0;
#X connect 11 0 5 0;
#X connect 12 0 4 0;
#X connect 13 0 12 0;
#X connect 14 0 9 0;
#X connect 15 0 16 0;
#X connect 17 0 4 1;
#X connect 17 0 24 0;
#X connect 18 0 5 1;
#X restore 780 392 pd waterflow;
#X obj 744 135 f;
#X obj 784 135 == 0;
#X obj 744 159 tgl 19 0 empty empty empty 0 -10 0 12 #fcfcfc #000000 #000000 0 1;
#X obj 744 183 sel 1 0;
#X floatatom 793 327 5 0 0 0 - - - 0;
#X obj 901 175 del 1000;
#X obj 744 102 t b b;
#X obj 878 121 t b b b;
#X msg 924 145 stop;
#X text 948 118 a timeout ..;
#X obj 878 302 * 6;
#X obj 577 303 *~ 0.03;
#X floatatom 889 330 5 0 0 0 - - - 0;
#X obj 1190 216 random 10000;
#X obj 1190 240 / 10000;
#X msg 1190 264 \$1 1000;
#X obj 1190 193 bng 19 250 50 0 empty empty empty 0 -10 0 12 #fcfcfc #000000 #000000;
#X obj 1887 301 line;
#X msg 1887 219 0 \, 1 9000;
#X obj 1887 349 swap 1;
#X obj 1887 373 -;
#X obj 1887 397 * 300;
#X obj 1887 421 + 600;
#X obj 1887 325 trigger float float;
#X obj 2017 383 + 100;
#X obj 2017 359 * 2000;
#X obj 1539 236 line;
#X msg 1571 210 1 800;
#X msg 1507 210 0 800;
#X obj 1539 260 * 24;
#X obj 1539 284 + 4;
#N canvas 235 30 358 287 openpipe 0;
#X obj 197 77 * 3;
#X obj 231 77 * 5;
#X obj 265 77 * 7;
#X obj 163 77 * 1;
#X obj 73 46 inlet~;
#X obj 93 237 outlet~;
#X obj 163 29 inlet length;
#X obj 93 122 bp~ 1 30;
#X obj 113 146 bp~ 1 30;
#X obj 133 170 bp~ 1 30;
#X obj 153 194 bp~ 1 30;
#X obj 163 53 trigger f f f f;
#X connect 0 0 8 1;
#X connect 1 0 9 1;
#X connect 2 0 10 1;
#X connect 3 0 7 1;
#X connect 4 0 7 0;
#X connect 4 0 8 0;
#X connect 4 0 9 0;
#X connect 4 0 10 0;
#X connect 6 0 11 0;
#X connect 7 0 5 0;
#X connect 8 0 5 0;
#X connect 9 0 5 0;
#X connect 10 0 5 0;
#X connect 11 0 3 0;
#X connect 11 1 0 0;
#X connect 11 2 1 0;
#X connect 11 3 2 0;
#X restore 1570 419 pd openpipe;
#N canvas 632 44 452 430 waterflow 0;
#X obj 55 242 osc~;
#X obj 55 192 line~;
#X obj 95 350 *~;
#X obj 112 326 *~;
#X obj 55 72 metro 6;
#X obj 55 144 + 800;
#X obj 112 301 *~ 0.9;
#X obj 112 277 lop~ 10;
#N canvas 509 84 378 370 bilexp 0;
#X obj 55 197 expr exp($f1);
#X obj 55 69 random 8192;
#X obj 55 157 * 9;
#X obj 55 133 / 4096;
#X obj 123 108 > 4096;
#X obj 123 132 sel 0 1, f 11;
#X msg 123 156 -1;
#X msg 160 156 1;
#X obj 55 230 *;
#X obj 55 254 / 23000;
#X obj 55 45 t b;
#X obj 55 21 inlet;
#X obj 55 278 outlet;
#X obj 55 109 mod 4096;
#X text 55 306 exponential -8103/23000 ~ +8103/23000;
#X text 53 320 == exponential -0.352 ~ +0.352;
#X connect 0 0 8 0;
#X connect 1 0 4 0;
#X connect 1 0 13 0;
#X connect 2 0 0 0;
#X connect 3 0 2 0;
#X connect 4 0 5 0;
#X connect 5 0 6 0;
#X connect 5 1 7 0;
#X connect 6 0 8 1;
#X connect 7 0 8 1;
#X connect 8 0 9 0;
#X connect 9 0 12 0;
#X connect 10 0 1 0;
#X connect 11 0 10 0;
#X connect 13 0 3 0;
#X restore 55 96 pd bilexp;
#X obj 112 253 clip~ 0 1;
#X obj 55 168 pack 1 2.689;
#X obj 55 120 * 1600;
#X msg 55 48 1;
#X obj 55 24 loadbang;
#X obj 112 229 fexpr~ $x1 - $x1[-1];
#X obj 95 374 *~ 0.3;
#X obj 95 398 outlet~;
#X obj 129 43 inlet rate;
#X obj 153 93 inlet depth;
#X text 153 119 exponential -563 ~ +563;
#X text 183 173 exponential +236 ~ +1363;
#X text 229 73 900 -> 600;
#X text 193 153 exponential +336 ~ +1463;
#X text 193 193 exponential +36 ~ +1163;
#X floatatom 261 29 5 0 0 0 - - - 0;
#X connect 0 0 2 0;
#X connect 1 0 0 0;
#X connect 1 0 14 0;
#X connect 2 0 15 0;
#X connect 3 0 2 1;
#X connect 4 0 8 0;
#X connect 5 0 10 0;
#X connect 6 0 3 0;
#X connect 6 0 3 1;
#X connect 7 0 6 0;
#X connect 8 0 11 0;
#X connect 9 0 7 0;
#X connect 10 0 1 0;
#X connect 11 0 5 0;
#X connect 12 0 4 0;
#X connect 13 0 12 0;
#X connect 14 0 9 0;
#X connect 15 0 16 0;
#X connect 17 0 4 1;
#X connect 17 0 24 0;
#X connect 18 0 5 1;
#X restore 1539 368 pd waterflow;
#X obj 1571 506 *~;
#X obj 1587 483 lop~ 0.5;
#X obj 1587 460 sig~;
#X obj 1668 272 line;
#X msg 1668 215 1 300;
#X msg 1691 239 0 1200;
#N canvas 46 59 394 536 bubblefactory 0;
#N canvas 332 25 570 560 bubble 0;
#X obj 60 405 osc~;
#X obj 60 444 *~;
#X obj 30 61 inlet;
#X obj 60 469 outlet~;
#N canvas 231 126 309 251 env4pow 0;
#X obj 73 69 vline~;
#X obj 72 95 *~;
#X obj 72 120 *~;
#X obj 24 157 -~;
#X obj 24 181 outlet~;
#X msg 73 42 1 0 0 \, 0 \$1 0;
#X obj 73 18 inlet;
#X obj 23 119 sig~ 1;
#X obj 82 181 outlet~;
#X connect 0 0 1 0;
#X connect 0 0 1 1;
#X connect 1 0 2 0;
#X connect 1 0 2 1;
#X connect 2 0 3 1;
#X connect 2 0 8 0;
#X connect 3 0 4 0;
#X connect 5 0 0 0;
#X connect 6 0 5 0;
#X connect 7 0 3 0;
#X restore 60 325 pd env4pow;
#X obj 30 83 unpack f f;
#X obj 125 347 *~;
#X obj 30 146 spigot;
#X obj 67 123 != 0;
#X obj 30 240 swap 1;
#X obj 124 369 lop~ 120;
#X obj 30 263 /;
#X obj 30 189 + 0.4;
#X obj 124 395 *~;
#X obj 186 325 swap 1;
#X obj 186 348 -;
#X obj 30 168 t f f f;
#X obj 186 369 + 0.1;
#X obj 141 179 / 3;
#X obj 141 199 + 0.6;
#X obj 60 370 +~;
#X obj 60 347 *~ 2000;
#X obj 306 88 inlet base;
#X obj 306 138 * 2;
#X obj 76 274 *;
#X obj 76 296 +;
#X obj 306 113 * 800;
#X obj 225 128 swap 1;
#X obj 226 153 -;
#X obj 29 287 *;
#X obj 224 177 * 80;
#X connect 0 0 1 0;
#X connect 1 0 3 0;
#X connect 2 0 5 0;
#X connect 4 0 21 0;
#X connect 4 1 6 0;
#X connect 5 0 7 0;
#X connect 5 1 8 0;
#X connect 5 1 18 0;
#X connect 6 0 10 0;
#X connect 7 0 16 0;
#X connect 8 0 7 1;
#X connect 9 0 11 0;
#X connect 9 1 11 1;
#X connect 10 0 13 0;
#X connect 11 0 29 0;
#X connect 12 0 9 0;
#X connect 13 0 1 1;
#X connect 14 0 15 0;
#X connect 14 1 15 1;
#X connect 15 0 17 0;
#X connect 16 0 12 0;
#X connect 16 1 24 0;
#X connect 16 2 14 0;
#X connect 17 0 13 1;
#X connect 18 0 19 0;
#X connect 19 0 6 1;
#X connect 20 0 0 0;
#X connect 21 0 20 0;
#X connect 22 0 26 0;
#X connect 22 0 27 0;
#X connect 23 0 24 1;
#X connect 24 0 25 0;
#X connect 25 0 20 1;
#X connect 26 0 23 0;
#X connect 26 0 25 1;
#X connect 27 0 28 0;
#X connect 27 1 28 0;
#X connect 28 0 30 0;
#X connect 29 0 4 0;
#X connect 30 0 29 1;
#X restore 28 375 pd bubble;
#X obj 114 134 random 1000;
#X obj 114 157 / 1000;
#X obj 28 325 pack f f f;
#X obj 28 197 pack f f;
#X obj 28 284 poly 4 1;
#X obj 28 350 route 1 2 3 4;
#X obj 28 134 random 1000;
#X obj 28 157 / 1000;
#X obj 28 229 spigot;
#X obj 200 134 random 100;
#X obj 98 89 t b b b;
#N canvas 0 0 570 560 bubble 0;
#X obj 60 405 osc~;
#X obj 60 444 *~;
#X obj 30 61 inlet;
#X obj 60 469 outlet~;
#N canvas 0 0 450 300 env4pow 0;
#X obj 210 157 vline~;
#X obj 209 183 *~;
#X obj 209 208 *~;
#X obj 161 245 -~;
#X obj 161 269 outlet~;
#X msg 210 130 1 0 0 \, 0 \$1 0;
#X obj 210 106 inlet;
#X obj 160 207 sig~ 1;
#X obj 219 269 outlet~;
#X connect 0 0 1 0;
#X connect 0 0 1 1;
#X connect 1 0 2 0;
#X connect 1 0 2 1;
#X connect 2 0 3 1;
#X connect 2 0 8 0;
#X connect 3 0 4 0;
#X connect 5 0 0 0;
#X connect 6 0 5 0;
#X connect 7 0 3 0;
#X restore 60 325 pd env4pow;
#X obj 30 83 unpack f f;
#X obj 125 347 *~;
#X obj 30 146 spigot;
#X obj 67 123 != 0;
#X obj 30 240 swap 1;
#X obj 124 369 lop~ 120;
#X obj 30 263 /;
#X obj 30 189 + 0.4;
#X obj 124 395 *~;
#X obj 186 325 swap 1;
#X obj 186 348 -;
#X obj 30 168 t f f f;
#X obj 186 369 + 0.1;
#X obj 141 179 / 3;
#X obj 141 199 + 0.6;
#X obj 60 370 +~;
#X obj 60 347 *~ 2000;
#X obj 306 88 inlet base;
#X obj 306 138 * 2;
#X obj 76 274 *;
#X obj 76 296 +;
#X obj 306 113 * 800;
#X obj 225 128 swap 1;
#X obj 226 153 -;
#X obj 29 287 *;
#X obj 224 177 * 80;
#X connect 0 0 1 0;
#X connect 1 0 3 0;
#X connect 2 0 5 0;
#X connect 4 0 21 0;
#X connect 4 1 6 0;
#X connect 5 0 7 0;
#X connect 5 1 8 0;
#X connect 5 1 18 0;
#X connect 6 0 10 0;
#X connect 7 0 16 0;
#X connect 8 0 7 1;
#X connect 9 0 11 0;
#X connect 9 1 11 1;
#X connect 10 0 13 0;
#X connect 11 0 29 0;
#X connect 12 0 9 0;
#X connect 13 0 1 1;
#X connect 14 0 15 0;
#X connect 14 1 15 1;
#X connect 15 0 17 0;
#X connect 16 0 12 0;
#X connect 16 1 24 0;
#X connect 16 2 14 0;
#X connect 17 0 13 1;
#X connect 18 0 19 0;
#X connect 19 0 6 1;
#X connect 20 0 0 0;
#X connect 21 0 20 0;
#X connect 22 0 26 0;
#X connect 22 0 27 0;
#X connect 23 0 24 1;
#X connect 24 0 25 0;
#X connect 25 0 20 1;
#X connect 26 0 23 0;
#X connect 26 0 25 1;
#X connect 27 0 28 0;
#X connect 27 1 28 0;
#X connect 28 0 30 0;
#X connect 29 0 4 0;
#X connect 30 0 29 1;
#X restore 38 399 pd bubble;
#N canvas -8 55 563 560 bubble 0;
#X obj 60 405 osc~;
#X obj 60 444 *~;
#X obj 30 61 inlet;
#X obj 60 469 outlet~;
#N canvas 0 0 450 300 env4pow 0;
#X obj 210 157 vline~;
#X obj 209 183 *~;
#X obj 209 208 *~;
#X obj 161 245 -~;
#X obj 161 269 outlet~;
#X msg 210 130 1 0 0 \, 0 \$1 0;
#X obj 210 106 inlet;
#X obj 160 207 sig~ 1;
#X obj 219 269 outlet~;
#X connect 0 0 1 0;
#X connect 0 0 1 1;
#X connect 1 0 2 0;
#X connect 1 0 2 1;
#X connect 2 0 3 1;
#X connect 2 0 8 0;
#X connect 3 0 4 0;
#X connect 5 0 0 0;
#X connect 6 0 5 0;
#X connect 7 0 3 0;
#X restore 60 325 pd env4pow;
#X obj 30 83 unpack f f;
#X obj 125 347 *~;
#X obj 30 146 spigot;
#X obj 67 123 != 0;
#X obj 30 240 swap 1;
#X obj 124 369 lop~ 120;
#X obj 30 263 /;
#X obj 30 189 + 0.4;
#X obj 124 395 *~;
#X obj 186 325 swap 1;
#X obj 186 348 -;
#X obj 30 168 t f f f;
#X obj 186 369 + 0.1;
#X obj 141 179 / 3;
#X obj 141 199 + 0.6;
#X obj 60 370 +~;
#X obj 60 347 *~ 2000;
#X obj 306 88 inlet base;
#X obj 306 138 * 2;
#X obj 76 274 *;
#X obj 76 296 +;
#X obj 306 113 * 800;
#X obj 225 128 swap 1;
#X obj 225 152 -;
#X obj 29 287 *;
#X obj 225 182 * 80;
#X connect 0 0 1 0;
#X connect 1 0 3 0;
#X connect 2 0 5 0;
#X connect 4 0 21 0;
#X connect 4 1 6 0;
#X connect 5 0 7 0;
#X connect 5 1 8 0;
#X connect 5 1 18 0;
#X connect 6 0 10 0;
#X connect 7 0 16 0;
#X connect 8 0 7 1;
#X connect 9 0 11 0;
#X connect 9 1 11 1;
#X connect 10 0 13 0;
#X connect 11 0 29 0;
#X connect 12 0 9 0;
#X connect 13 0 1 1;
#X connect 14 0 15 0;
#X connect 14 1 15 1;
#X connect 15 0 17 0;
#X connect 16 0 12 0;
#X connect 16 1 24 0;
#X connect 16 2 14 0;
#X connect 17 0 13 1;
#X connect 18 0 19 0;
#X connect 19 0 6 1;
#X connect 20 0 0 0;
#X connect 21 0 20 0;
#X connect 22 0 26 0;
#X connect 22 0 27 0;
#X connect 23 0 24 1;
#X connect 24 0 25 0;
#X connect 25 0 20 1;
#X connect 26 0 23 0;
#X connect 26 0 25 1;
#X connect 27 0 28 0;
#X connect 27 1 28 1;
#X connect 28 0 30 0;
#X connect 29 0 4 0;
#X connect 30 0 29 1;
#X restore 48 423 pd bubble;
#N canvas 0 25 570 560 bubble 0;
#X obj 60 405 osc~;
#X obj 60 444 *~;
#X obj 30 61 inlet;
#X obj 60 469 outlet~;
#N canvas 0 25 450 300 env4pow 0;
#X obj 210 157 vline~;
#X obj 209 183 *~;
#X obj 209 208 *~;
#X obj 161 245 -~;
#X obj 161 269 outlet~;
#X msg 210 130 1 0 0 \, 0 \$1 0;
#X obj 210 106 inlet;
#X obj 160 207 sig~ 1;
#X obj 219 269 outlet~;
#X connect 0 0 1 0;
#X connect 0 0 1 1;
#X connect 1 0 2 0;
#X connect 1 0 2 1;
#X connect 2 0 3 1;
#X connect 2 0 8 0;
#X connect 3 0 4 0;
#X connect 5 0 0 0;
#X connect 6 0 5 0;
#X connect 7 0 3 0;
#X restore 60 325 pd env4pow;
#X obj 30 83 unpack f f;
#X obj 125 347 *~;
#X obj 30 146 spigot;
#X obj 67 123 != 0;
#X obj 30 240 swap 1;
#X obj 124 369 lop~ 120;
#X obj 30 263 /;
#X obj 30 189 + 0.4;
#X obj 124 395 *~;
#X obj 186 325 swap 1;
#X obj 186 348 -;
#X obj 30 168 t f f f;
#X obj 186 369 + 0.1;
#X obj 141 179 / 3;
#X obj 141 199 + 0.6;
#X obj 60 370 +~;
#X obj 60 347 *~ 2000;
#X obj 306 88 inlet base;
#X obj 306 138 * 2;
#X obj 76 274 *;
#X obj 76 296 +;
#X obj 306 113 * 800;
#X obj 225 128 swap 1;
#X obj 226 153 -;
#X obj 29 287 *;
#X obj 224 177 * 80;
#X connect 0 0 1 0;
#X connect 1 0 3 0;
#X connect 2 0 5 0;
#X connect 4 0 21 0;
#X connect 4 1 6 0;
#X connect 5 0 7 0;
#X connect 5 1 8 0;
#X connect 5 1 18 0;
#X connect 6 0 10 0;
#X connect 7 0 16 0;
#X connect 8 0 7 1;
#X connect 9 0 11 0;
#X connect 9 1 11 1;
#X connect 10 0 13 0;
#X connect 11 0 29 0;
#X connect 12 0 9 0;
#X connect 13 0 1 1;
#X connect 14 0 15 0;
#X connect 14 1 15 1;
#X connect 15 0 17 0;
#X connect 16 0 12 0;
#X connect 16 1 24 0;
#X connect 16 2 14 0;
#X connect 17 0 13 1;
#X connect 18 0 19 0;
#X connect 19 0 6 1;
#X connect 20 0 0 0;
#X connect 21 0 20 0;
#X connect 22 0 26 0;
#X connect 22 0 27 0;
#X connect 23 0 24 1;
#X connect 24 0 25 0;
#X connect 25 0 20 1;
#X connect 26 0 23 0;
#X connect 26 0 25 1;
#X connect 27 0 28 0;
#X connect 27 1 28 0;
#X connect 28 0 30 0;
#X connect 29 0 4 0;
#X connect 30 0 29 1;
#X restore 58 447 pd bubble;
#X obj 29 490 outlet~;
#X obj 98 60 t b b, f 21;
#X obj 242 374 random 10000;
#X obj 242 398 / 10000;
#X text 252 344 random [0 - 1);
#X obj 200 158 > 0;
#X obj 30 75 bng 19 250 50 0 empty empty empty 0 -10 0 12 #fcfcfc #000000 #000000;
#X obj 98 12 inlet;
#X connect 0 0 15 0;
#X connect 1 0 2 0;
#X connect 2 0 4 1;
#X connect 3 0 6 0;
#X connect 4 0 9 0;
#X connect 5 0 3 0;
#X connect 5 1 3 1;
#X connect 5 2 3 2;
#X connect 6 0 0 0;
#X connect 6 1 12 0;
#X connect 6 2 13 0;
#X connect 6 3 14 0;
#X connect 7 0 8 0;
#X connect 8 0 4 0;
#X connect 9 0 5 0;
#X connect 10 0 20 0;
#X connect 11 0 7 0;
#X connect 11 1 1 0;
#X connect 11 2 10 0;
#X connect 12 0 15 0;
#X connect 13 0 15 0;
#X connect 14 0 15 0;
#X connect 16 0 11 0;
#X connect 16 1 17 0;
#X connect 17 0 18 0;
#X connect 18 0 0 1;
#X connect 18 0 14 1;
#X connect 18 0 13 1;
#X connect 18 0 12 1;
#X connect 20 0 9 1;
#X connect 22 0 16 0;
#X connect 22 0 21 0;
#X restore 1367 279 pd bubblefactory;
#X obj 1571 536 dac~;
#X floatatom 1887 445 5 0 0 0 - - - 0;
#X floatatom 2017 407 5 0 0 0 - - - 0;
#X floatatom 1586 263 5 0 0 0 - - - 0;
#N canvas 632 44 452 430 waterflow 0;
#X obj 55 242 osc~;
#X obj 55 192 line~;
#X obj 95 350 *~;
#X obj 112 326 *~;
#X obj 55 72 metro 6;
#X obj 55 144 + 800;
#X obj 112 301 *~ 0.9;
#X obj 112 277 lop~ 10;
#N canvas 555 196 378 370 bilexp 0;
#X obj 55 197 expr exp($f1);
#X obj 55 69 random 8192;
#X obj 55 157 * 9;
#X obj 55 133 / 4096;
#X obj 123 108 > 4096;
#X obj 123 132 sel 0 1, f 11;
#X msg 123 156 -1;
#X msg 160 156 1;
#X obj 55 230 *;
#X obj 55 254 / 23000;
#X obj 55 45 t b;
#X obj 55 21 inlet;
#X obj 55 278 outlet;
#X obj 55 109 mod 4096;
#X text 55 306 exponential -8103/23000 ~ +8103/23000;
#X text 53 320 == exponential -0.352 ~ +0.352;
#X connect 0 0 8 0;
#X connect 1 0 4 0;
#X connect 1 0 13 0;
#X connect 2 0 0 0;
#X connect 3 0 2 0;
#X connect 4 0 5 0;
#X connect 5 0 6 0;
#X connect 5 1 7 0;
#X connect 6 0 8 1;
#X connect 7 0 8 1;
#X connect 8 0 9 0;
#X connect 9 0 12 0;
#X connect 10 0 1 0;
#X connect 11 0 10 0;
#X connect 13 0 3 0;
#X restore 55 96 pd bilexp;
#X obj 112 253 clip~ 0 1;
#X obj 55 168 pack 1 2.689;
#X obj 55 120 * 1600;
#X msg 55 48 1;
#X obj 55 24 loadbang;
#X obj 112 229 fexpr~ $x1 - $x1[-1];
#X obj 95 374 *~ 0.3;
#X obj 95 398 outlet~;
#X obj 129 43 inlet rate;
#X obj 153 93 inlet depth;
#X text 153 119 exponential -563 ~ +563;
#X text 183 173 exponential +236 ~ +1363;
#X text 229 73 900 -> 600;
#X text 193 153 exponential +336 ~ +1463;
#X text 193 193 exponential +36 ~ +1163;
#X floatatom 261 29 5 0 0 0 - - - 0;
#X connect 0 0 2 0;
#X connect 1 0 0 0;
#X connect 1 0 14 0;
#X connect 2 0 15 0;
#X connect 3 0 2 1;
#X connect 4 0 8 0;
#X connect 5 0 10 0;
#X connect 6 0 3 0;
#X connect 6 0 3 1;
#X connect 7 0 6 0;
#X connect 8 0 11 0;
#X connect 9 0 7 0;
#X connect 10 0 1 0;
#X connect 11 0 5 0;
#X connect 12 0 4 0;
#X connect 13 0 12 0;
#X connect 14 0 9 0;
#X connect 15 0 16 0;
#X connect 17 0 4 1;
#X connect 17 0 24 0;
#X connect 18 0 5 1;
#X restore 1570 392 pd waterflow;
#X obj 1534 135 f;
#X obj 1574 135 == 0;
#X obj 1534 159 tgl 19 0 empty empty empty 0 -10 0 12 #fcfcfc #000000 #000000 0 1;
#X obj 1534 183 sel 1 0;
#X floatatom 1583 327 5 0 0 0 - - - 0;
#X obj 1691 175 del 1000;
#X obj 1534 102 t b b;
#X obj 1668 121 t b b b;
#X msg 1714 145 stop;
#X text 1681 90 a timeout ..;
#X obj 1668 302 * 6;
#X obj 1367 303 *~ 0.03;
#X floatatom 1679 330 5 0 0 0 - - - 0;
#X obj 1980 216 random 10000;
#X obj 1980 240 / 10000;
#X msg 1980 264 \$1 1000;
#X obj 1980 193 bng 19 250 50 0 empty empty empty 0 -10 0 12 #fcfcfc #000000 #000000;
#X obj 1263 88 t b b;
#X obj 1350 44 del;
#X floatatom 1330 184 5 0 0 0 - - - 0;
#X obj 1350 68 bng 19 250 50 0 empty empty empty 0 -10 0 12 #fcfcfc #000000 #000000;
#X obj 1330 160 random 800;
#X obj 183 100 expr ($f1-12.2)/4.8*104 + 54;
#X obj 51 255 del 1000;
#X obj 28 207 t b b b;
#X msg 74 231 stop;
#X msg 28 285 1;
#X msg 51 309 0;
#X text 55 178 a timeout ..;
#X obj 744 69 r trigger\$0;
#X obj 577 234 r trigger\$0;
#X obj 1367 234 r trigger\$0;
#X obj 28 147 r trigger\$0;
#X connect 0 0 6 0;
#X connect 1 0 0 0;
#X connect 2 0 3 0;
#X connect 2 1 3 1;
#X connect 3 0 4 0;
#X connect 4 0 5 0;
#X connect 5 0 48 0;
#X connect 5 0 15 1;
#X connect 5 0 51 1;
#X connect 6 0 2 0;
#X connect 6 1 8 0;
#X connect 7 0 49 0;
#X connect 7 0 14 1;
#X connect 8 0 7 0;
#X connect 9 0 12 0;
#X connect 10 0 9 0;
#X connect 11 0 9 0;
#X connect 12 0 13 0;
#X connect 13 0 15 0;
#X connect 13 0 51 0;
#X connect 13 0 56 0;
#X connect 14 0 16 0;
#X connect 15 0 14 0;
#X connect 16 0 43 0;
#X connect 16 0 43 1;
#X connect 17 0 16 1;
#X connect 18 0 17 0;
#X connect 19 0 62 0;
#X connect 20 0 19 0;
#X connect 21 0 19 0;
#X connect 22 0 63 0;
#X connect 23 0 25 0;
#X connect 23 0 32 0;
#X connect 24 0 27 0;
#X connect 25 0 24 0;
#X connect 26 0 29 0;
#X connect 27 0 26 0;
#X connect 28 0 31 0;
#X connect 29 0 28 0;
#X connect 30 0 32 1;
#X connect 31 0 30 0;
#X connect 32 0 36 0;
#X connect 33 0 34 0;
#X connect 34 0 25 1;
#X connect 34 0 24 1;
#X connect 34 0 27 1;
#X connect 34 0 26 1;
#X connect 34 0 29 1;
#X connect 34 0 28 1;
#X connect 34 0 31 1;
#X connect 34 0 30 1;
#X connect 35 0 23 0;
#X connect 36 0 37 0;
#X connect 36 0 37 1;
#X connect 38 0 36 1;
#X connect 39 0 44 0;
#X connect 40 0 41 0;
#X connect 41 0 119 0;
#X connect 44 0 38 0;
#X connect 45 0 39 0;
#X connect 46 0 35 0;
#X connect 50 0 12 1;
#X connect 51 0 14 0;
#X connect 52 0 53 0;
#X connect 52 0 54 0;
#X connect 53 0 52 1;
#X connect 54 0 55 0;
#X connect 55 0 11 0;
#X connect 55 0 68 0;
#X connect 55 1 10 0;
#X connect 56 0 62 1;
#X connect 57 0 21 0;
#X connect 58 0 52 0;
#X connect 58 1 59 0;
#X connect 59 0 20 0;
#X connect 59 1 57 0;
#X connect 59 2 60 0;
#X connect 60 0 57 0;
#X connect 62 0 18 0;
#X connect 62 0 64 0;
#X connect 63 0 14 0;
#X connect 65 0 66 0;
#X connect 66 0 67 0;
#X connect 67 0 0 0;
#X connect 68 0 65 0;
#X connect 69 0 75 0;
#X connect 70 0 69 0;
#X connect 71 0 72 0;
#X connect 71 1 72 1;
#X connect 72 0 73 0;
#X connect 73 0 74 0;
#X connect 74 0 93 0;
#X connect 74 0 84 1;
#X connect 74 0 96 1;
#X connect 75 0 71 0;
#X connect 75 1 77 0;
#X connect 76 0 94 0;
#X connect 76 0 83 1;
#X connect 77 0 76 0;
#X connect 78 0 81 0;
#X connect 79 0 78 0;
#X connect 80 0 78 0;
#X connect 81 0 82 0;
#X connect 82 0 84 0;
#X connect 82 0 96 0;
#X connect 82 0 101 0;
#X connect 83 0 85 0;
#X connect 84 0 83 0;
#X connect 85 0 92 0;
#X connect 85 0 92 1;
#X connect 86 0 85 1;
#X connect 87 0 86 0;
#X connect 88 0 107 0;
#X connect 89 0 88 0;
#X connect 90 0 88 0;
#X connect 91 0 108 0;
#X connect 95 0 81 1;
#X connect 96 0 83 0;
#X connect 97 0 98 0;
#X connect 97 0 99 0;
#X connect 98 0 97 1;
#X connect 99 0 100 0;
#X connect 100 0 80 0;
#X connect 100 0 113 0;
#X connect 100 1 79 0;
#X connect 101 0 107 1;
#X connect 102 0 90 0;
#X connect 103 0 97 0;
#X connect 103 1 104 0;
#X connect 104 0 89 0;
#X connect 104 1 102 0;
#X connect 104 2 105 0;
#X connect 105 0 102 0;
#X connect 107 0 87 0;
#X connect 107 0 109 0;
#X connect 108 0 83 0;
#X connect 110 0 111 0;
#X connect 111 0 112 0;
#X connect 112 0 69 0;
#X connect 113 0 110 0;
#X connect 114 0 115 0;
#X connect 114 1 118 0;
#X connect 115 0 103 0;
#X connect 115 0 117 0;
#X connect 118 0 115 1;
#X connect 118 0 116 0;
#X connect 119 0 46 0;
#X connect 120 0 124 0;
#X connect 121 0 123 0;
#X connect 121 1 120 0;
#X connect 121 2 122 0;
#X connect 122 0 120 0;
#X connect 123 0 45 0;
#X connect 124 0 45 0;
#X connect 126 0 58 0;
#X connect 126 0 114 0;
#X connect 127 0 22 0;
#X connect 128 0 91 0;
#X connect 129 0 121 0;
#X restore 118 215 pd fluid;
#N canvas 485 244 1366 695 stair 0;
#X obj 481 897 *~;
#X obj 481 690 ead~ 1 10;
#X obj 568 894 *~;
#X obj 568 687 ead~ 1 10;
#X obj 701 894 *~;
#X obj 789 894 *~;
#X obj 889 896 *~;
#X obj 1032 893 *~;
#X obj 1132 895 *~;
#X obj 732 712 noise~;
#X obj 732 733 hip~ 300;
#X obj 392 689 ead~ 1 30;
#X obj 393 895 *~;
#X obj 408 793 bp~ 6666 40;
#X obj 496 792 bp~ 7012 40;
#X obj 583 791 bp~ 1500 35;
#X obj 716 791 bp~ 4535 45;
#X obj 804 792 bp~ 8325 40;
#X obj 905 792 bp~ 11023 46;
#X obj 1049 792 bp~ 3567 40;
#X obj 481 958 *~ 0.33;
#X obj 1236 896 *~;
#X obj 789 954 *~ 0.33;
#X obj 1131 948 *~ 0.33;
#X obj 1148 793 bp~ 4290 20;
#X obj 1252 794 bp~ 6470 20;
#X obj 1236 689 ead~ 1 8;
#X obj 1032 686 ead~ 1 40;
#X obj 1132 688 ead~ 1 22;
#X obj 889 689 ead~ 1 11;
#X obj 789 687 ead~ 1 45;
#X obj 701 687 ead~ 1 70;
#X obj 1143 252 del 1;
#X obj 1143 296 del 2;
#X obj 1143 341 del 3;
#X obj 1143 385 del 4;
#X obj 1143 423 del 5;
#X obj 1143 465 del 6;
#X obj 1143 509 del 7;
#X obj 973 368 +;
#X obj 950 393 +;
#X obj 996 343 +;
#X obj 1088 243 +;
#X obj 1065 268 +;
#X obj 1042 293 +;
#X obj 1019 318 +;
#X floatatom 1185 253 5 0 0 0 - - - 0;
#X floatatom 1183 298 5 0 0 0 - - - 0;
#X obj 1100 189 + 0;
#X floatatom 1186 343 5 0 0 0 - - - 0;
#X floatatom 1185 386 5 0 0 0 - - - 0;
#X floatatom 1186 423 5 0 0 0 - - - 0;
#X floatatom 1186 468 5 0 0 0 - - - 0;
#X floatatom 1189 513 5 0 0 0 - - - 0;
#X floatatom 1188 556 5 0 0 0 - - - 0;
#X obj 1143 555 del 8;
#X obj 1111 218 + 0;
#X obj 992 59 select 0 1 2 3 4 5 6 7;
#X obj 992 -26 metro 125;
#X obj 992 -51 tgl 15 0 empty empty empty 0 -6 0 8 #fcfcfc #000000 #000000 0 1;
#X obj 992 6 f;
#X obj 1023 6 + 1;
#X obj 992 33 mod 8;
#X floatatom 1099 -64 5 0 0 0 - - - 0;
#X obj 993 103 t b;
#X msg 952 554 1;
#X msg 988 555 2;
#X msg 1029 554 3;
#X obj 948 599 sel 1 2 3;
#X obj 1290 1085 *~ 1;
#X obj 1285 1126 dac~;
#X obj 1289 1057 *~ 0.5;
#X obj 1464 892 *~;
#X obj 1464 685 ead~ 1 10;
#X obj 1551 889 *~;
#X obj 1551 682 ead~ 1 10;
#X obj 1684 889 *~;
#X obj 1772 889 *~;
#X obj 1872 891 *~;
#X obj 2015 888 *~;
#X obj 2115 890 *~;
#X obj 1715 707 noise~;
#X obj 1715 728 hip~ 300;
#X obj 1375 684 ead~ 1 30;
#X obj 1376 890 *~;
#X obj 1391 788 bp~ 6666 40;
#X obj 1479 787 bp~ 7012 40;
#X obj 1566 786 bp~ 1500 35;
#X obj 1699 786 bp~ 4535 45;
#X obj 1787 787 bp~ 8325 40;
#X obj 1888 787 bp~ 11023 46;
#X obj 2032 787 bp~ 3567 40;
#X obj 1464 953 *~ 0.33;
#X obj 2219 891 *~;
#X obj 1772 949 *~ 0.33;
#X obj 2114 943 *~ 0.33;
#X obj 2131 788 bp~ 4290 20;
#X obj 2235 789 bp~ 6470 20;
#X obj 2219 684 ead~ 1 8;
#X obj 2015 681 ead~ 1 40;
#X obj 2115 683 ead~ 1 22;
#X obj 1872 684 ead~ 1 11;
#X obj 1772 682 ead~ 1 45;
#X obj 1684 682 ead~ 1 70;
#X obj 1609 239 del 1;
#X obj 1609 283 del 2;
#X obj 1609 328 del 3;
#X obj 1609 372 del 4;
#X obj 1609 410 del 5;
#X obj 1609 452 del 6;
#X obj 1609 496 del 7;
#X obj 1439 355 +;
#X obj 1416 380 +;
#X obj 1462 330 +;
#X obj 1554 230 +;
#X obj 1531 255 +;
#X obj 1508 280 +;
#X obj 1485 305 +;
#X floatatom 1651 240 5 0 0 0 - - - 0;
#X floatatom 1649 285 5 0 0 0 - - - 0;
#X obj 1566 176 + 0;
#X floatatom 1652 330 5 0 0 0 - - - 0;
#X floatatom 1651 373 5 0 0 0 - - - 0;
#X floatatom 1652 410 5 0 0 0 - - - 0;
#X floatatom 1652 455 5 0 0 0 - - - 0;
#X floatatom 1655 500 5 0 0 0 - - - 0;
#X floatatom 1654 543 5 0 0 0 - - - 0;
#X obj 1609 542 del 8;
#X obj 1577 205 + 0;
#X obj 1443 139 t b;
#X msg 1418 541 1;
#X msg 1454 542 2;
#X msg 1495 541 3;
#X obj 1414 586 sel 1 2 3;
#X floatatom 1589 89 5 0 0 0 - - - 0;
#X floatatom 1100 165 5 0 0 0 - - - 0;
#X obj 1589 -4 tgl 19 0 empty empty empty 0 -10 0 12 #fcfcfc #000000 #000000 0 1;
#X obj 1589 28 metro 5000;
#X obj 1589 57 random 50;
#X msg 1589 -28 1;
#X msg 991 -77 1;
#X obj 599 -46 receive posY;
#X floatatom 599 -21 5 0 0 1 posY - - 0;
#X obj 599 8 - 12.2;
#X text 688 -26 12.21 - 14.7;
#X obj 1100 117 loadbang;
#X msg 1100 141 1;
#X obj 1176 -111 tgl 19 0 empty empty empty 0 -10 0 12 #fcfcfc #000000 #000000 0 1;
#X obj 1196 -139 inlet;
#X floatatom 599 56 5 0 0 0 - - - 0;
#X obj 599 32 expr 400-$f1*0.4*350;
#X connect 0 0 20 0;
#X connect 1 0 0 0;
#X connect 2 0 20 0;
#X connect 3 0 2 0;
#X connect 4 0 22 0;
#X connect 5 0 22 0;
#X connect 6 0 22 0;
#X connect 7 0 23 0;
#X connect 8 0 23 0;
#X connect 9 0 10 0;
#X connect 10 0 13 0;
#X connect 10 0 14 0;
#X connect 10 0 15 0;
#X connect 10 0 16 0;
#X connect 10 0 17 0;
#X connect 10 0 18 0;
#X connect 10 0 19 0;
#X connect 10 0 24 0;
#X connect 10 0 25 0;
#X connect 11 0 12 0;
#X connect 12 0 20 0;
#X connect 13 0 12 1;
#X connect 14 0 0 1;
#X connect 15 0 2 1;
#X connect 16 0 4 1;
#X connect 17 0 5 1;
#X connect 18 0 6 1;
#X connect 19 0 7 1;
#X connect 20 0 71 0;
#X connect 21 0 23 0;
#X connect 22 0 71 0;
#X connect 23 0 71 0;
#X connect 24 0 8 1;
#X connect 25 0 21 1;
#X connect 26 0 21 0;
#X connect 27 0 7 0;
#X connect 28 0 8 0;
#X connect 29 0 6 0;
#X connect 30 0 5 0;
#X connect 31 0 4 0;
#X connect 32 0 33 0;
#X connect 32 0 65 0;
#X connect 33 0 34 0;
#X connect 34 0 35 0;
#X connect 35 0 36 0;
#X connect 35 0 66 0;
#X connect 35 0 67 0;
#X connect 36 0 37 0;
#X connect 37 0 38 0;
#X connect 38 0 55 0;
#X connect 39 0 40 1;
#X connect 39 0 38 1;
#X connect 39 0 53 0;
#X connect 40 0 55 0;
#X connect 40 0 54 0;
#X connect 41 0 39 1;
#X connect 41 0 37 1;
#X connect 41 0 52 0;
#X connect 42 0 43 1;
#X connect 42 0 47 0;
#X connect 42 0 33 1;
#X connect 43 0 44 1;
#X connect 43 0 34 1;
#X connect 43 0 49 0;
#X connect 44 0 45 1;
#X connect 44 0 35 1;
#X connect 44 0 50 0;
#X connect 45 0 41 1;
#X connect 45 0 36 1;
#X connect 45 0 51 0;
#X connect 48 0 42 0;
#X connect 48 0 43 0;
#X connect 48 0 44 0;
#X connect 48 0 45 0;
#X connect 48 0 41 0;
#X connect 48 0 39 0;
#X connect 48 0 40 0;
#X connect 48 0 56 0;
#X connect 56 0 42 1;
#X connect 56 0 46 0;
#X connect 56 0 32 1;
#X connect 57 0 64 0;
#X connect 57 2 129 0;
#X connect 57 4 64 0;
#X connect 57 6 129 0;
#X connect 58 0 60 0;
#X connect 59 0 58 0;
#X connect 60 0 61 0;
#X connect 60 0 62 0;
#X connect 61 0 60 1;
#X connect 62 0 57 0;
#X connect 63 0 58 1;
#X connect 64 0 32 0;
#X connect 65 0 68 0;
#X connect 66 0 68 0;
#X connect 67 0 68 0;
#X connect 68 0 11 0;
#X connect 68 0 1 0;
#X connect 68 0 3 0;
#X connect 68 1 31 0;
#X connect 68 1 30 0;
#X connect 68 1 29 0;
#X connect 68 2 27 0;
#X connect 68 2 28 0;
#X connect 68 2 26 0;
#X connect 69 0 70 0;
#X connect 69 0 70 1;
#X connect 71 0 69 0;
#X connect 72 0 92 0;
#X connect 73 0 72 0;
#X connect 74 0 92 0;
#X connect 75 0 74 0;
#X connect 76 0 94 0;
#X connect 77 0 94 0;
#X connect 78 0 94 0;
#X connect 79 0 95 0;
#X connect 80 0 95 0;
#X connect 81 0 82 0;
#X connect 82 0 85 0;
#X connect 82 0 86 0;
#X connect 82 0 87 0;
#X connect 82 0 88 0;
#X connect 82 0 89 0;
#X connect 82 0 90 0;
#X connect 82 0 91 0;
#X connect 82 0 96 0;
#X connect 82 0 97 0;
#X connect 83 0 84 0;
#X connect 84 0 92 0;
#X connect 85 0 84 1;
#X connect 86 0 72 1;
#X connect 87 0 74 1;
#X connect 88 0 76 1;
#X connect 89 0 77 1;
#X connect 90 0 78 1;
#X connect 91 0 79 1;
#X connect 92 0 71 0;
#X connect 93 0 95 0;
#X connect 94 0 71 0;
#X connect 95 0 71 0;
#X connect 96 0 80 1;
#X connect 97 0 93 1;
#X connect 98 0 93 0;
#X connect 99 0 79 0;
#X connect 100 0 80 0;
#X connect 101 0 78 0;
#X connect 102 0 77 0;
#X connect 103 0 76 0;
#X connect 104 0 105 0;
#X connect 104 0 130 0;
#X connect 105 0 106 0;
#X connect 106 0 107 0;
#X connect 107 0 108 0;
#X connect 107 0 131 0;
#X connect 107 0 132 0;
#X connect 108 0 109 0;
#X connect 109 0 110 0;
#X connect 110 0 127 0;
#X connect 111 0 112 1;
#X connect 111 0 110 1;
#X connect 111 0 125 0;
#X connect 112 0 127 0;
#X connect 112 0 126 0;
#X connect 113 0 111 1;
#X connect 113 0 109 1;
#X connect 113 0 124 0;
#X connect 114 0 115 1;
#X connect 114 0 119 0;
#X connect 114 0 105 1;
#X connect 115 0 116 1;
#X connect 115 0 106 1;
#X connect 115 0 121 0;
#X connect 116 0 117 1;
#X connect 116 0 107 1;
#X connect 116 0 122 0;
#X connect 117 0 113 1;
#X connect 117 0 108 1;
#X connect 117 0 123 0;
#X connect 120 0 114 0;
#X connect 120 0 115 0;
#X connect 120 0 116 0;
#X connect 120 0 117 0;
#X connect 120 0 113 0;
#X connect 120 0 111 0;
#X connect 120 0 112 0;
#X connect 120 0 128 0;
#X connect 128 0 114 1;
#X connect 128 0 118 0;
#X connect 128 0 104 1;
#X connect 129 0 104 0;
#X connect 130 0 133 0;
#X connect 131 0 133 0;
#X connect 132 0 133 0;
#X connect 133 0 83 0;
#X connect 133 0 73 0;
#X connect 133 0 75 0;
#X connect 133 1 103 0;
#X connect 133 1 102 0;
#X connect 133 1 101 0;
#X connect 133 2 99 0;
#X connect 133 2 100 0;
#X connect 133 2 98 0;
#X connect 134 0 120 0;
#X connect 135 0 48 0;
#X connect 136 0 137 0;
#X connect 137 0 138 0;
#X connect 138 0 134 0;
#X connect 139 0 136 0;
#X connect 140 0 59 0;
#X connect 141 0 142 0;
#X connect 142 0 143 0;
#X connect 143 0 150 0;
#X connect 145 0 146 0;
#X connect 146 0 135 0;
#X connect 147 0 59 0;
#X connect 147 0 136 0;
#X connect 148 0 147 0;
#X connect 149 0 63 0;
#X connect 150 0 149 0;
#X restore 38 215 pd stair;
#N canvas 349 43 538 641 speedarea 0;
#X obj 308 525 inlet;
#X obj 53 212 samphold~;
#X floatatom 53 117 5 0 0 0 - - - 0;
#X floatatom 176 117 5 0 0 0 - - - 0;
#X obj 53 287 *~ 48;
#X obj 53 312 +~ 36;
#X msg 222 150 0;
#X msg 53 57 32 96.33;
#X obj 53 87 unpack float float;
#X obj 53 369 mtof~;
#X text 255 144 reset phase, f 5;
#X text 63 339 pitch from 36 to 84;
#X obj 53 147 phasor~;
#X obj 176 182 phasor~;
#X obj 53 33 loadbang;
#X obj 54 579 dac~;
#X obj 54 499 *~;
#X obj 53 410 osc~;
#X obj 53 450 vcf~;
#X obj 99 477 nbx 5 17 -1e+37 1e+37 0 1 empty empty empty 0 -10 0 12 #fcfcfc #000000 #000000 0.45 256;
#X obj 106 418 nbx 5 17 -1e+37 1e+37 0 1 empty empty empty 0 -10 0 12 #fcfcfc #000000 #000000 255 256;
#X obj 139 449 nbx 5 17 -1e+37 1e+37 0 0 empty empty empty 0 -10 0 12 #fcfcfc #000000 #000000 0 256;
#X obj 54 523 *~;
#X obj 187 247 receive posY;
#X floatatom 187 272 5 0 0 1 posY - - 0;
#X text 276 267 12.21 - 12.21;
#X obj 215 583 vline~;
#X msg 215 559 \$1 100;
#X obj 215 534 * 1;
#X obj 217 503 tgl 19 0 empty empty empty 0 -10 0 12 #fcfcfc #000000 #000000 0 1;
#X obj 299 372 nbx 5 17 -1e+37 1e+37 0 1 empty empty empty 0 -10 0 12 #fcfcfc #000000 #000000 0.5 256;
#X obj 299 394 osc~;
#X obj 299 418 snapshot~;
#X obj 288 312 loadbang;
#X obj 288 336 metro 100;
#X floatatom 299 442 5 0 0 0 - - - 0;
#X obj 242 329 bng 19 250 50 0 empty empty empty 0 -10 0 12 #fcfcfc #000000 #000000;
#X obj 299 465 * 30;
#X obj 299 489 + 60;
#X obj 335 20 tgl 19 0 empty empty empty 0 -10 0 12 #fcfcfc #000000 #000000 0 1;
#X obj 335 68 random 4;
#X obj 335 92 sel 0 1 2 3;
#X msg 335 116 96.33;
#X msg 353 140 95.92;
#X msg 372 164 95.33;
#X msg 390 188 96.93;
#X obj 229 28 loadbang;
#X obj 335 44 metro 5000;
#X connect 0 0 28 0;
#X connect 1 0 4 0;
#X connect 2 0 12 0;
#X connect 3 0 13 0;
#X connect 4 0 5 0;
#X connect 5 0 9 0;
#X connect 6 0 12 1;
#X connect 6 0 13 1;
#X connect 7 0 8 0;
#X connect 8 0 2 0;
#X connect 8 1 3 0;
#X connect 9 0 17 0;
#X connect 12 0 1 0;
#X connect 13 0 1 1;
#X connect 14 0 7 0;
#X connect 16 0 22 0;
#X connect 17 0 18 0;
#X connect 18 0 16 0;
#X connect 19 0 16 1;
#X connect 20 0 18 1;
#X connect 21 0 18 2;
#X connect 22 0 15 0;
#X connect 22 0 15 1;
#X connect 23 0 24 0;
#X connect 26 0 22 1;
#X connect 27 0 26 0;
#X connect 28 0 27 0;
#X connect 29 0 28 0;
#X connect 30 0 31 0;
#X connect 31 0 32 0;
#X connect 32 0 35 0;
#X connect 33 0 34 0;
#X connect 34 0 32 0;
#X connect 35 0 37 0;
#X connect 36 0 34 0;
#X connect 37 0 38 0;
#X connect 38 0 21 0;
#X connect 39 0 47 0;
#X connect 40 0 41 0;
#X connect 41 0 42 0;
#X connect 41 1 43 0;
#X connect 41 2 44 0;
#X connect 41 3 45 0;
#X connect 42 0 3 0;
#X connect 43 0 3 0;
#X connect 44 0 3 0;
#X connect 45 0 3 0;
#X connect 46 0 39 0;
#X connect 47 0 40 0;
#X restore 325 215 pd speedarea;
#X connect 0 0 1 0;
#X connect 1 0 3 0;
#X connect 2 0 9 0;
#X connect 2 0 17 0;
#X connect 3 0 2 0;
#X connect 3 1 4 0;
#X connect 3 2 5 0;
#X connect 3 3 6 0;
#X connect 3 4 7 0;
#X connect 3 5 8 0;
#X connect 4 0 10 0;
#X connect 5 0 11 0;
#X connect 5 0 15 0;
#X connect 6 0 12 0;
#X connect 7 0 13 0;
#X connect 7 0 18 0;
#X connect 8 0 14 0;
