#N canvas 13 142 352 213 12;
#N canvas 23 104 1366 695 stair 0;
#X obj 481 897 *~;
#X obj 481 690 ead~ 1 10;
#X obj 568 894 *~;
#X obj 568 687 ead~ 1 10;
#X obj 701 894 *~;
#X obj 789 894 *~;
#X obj 889 896 *~;
#X obj 1032 893 *~;
#X obj 1132 895 *~;
#X obj 732 712 noise~;
#X obj 732 733 hip~ 300;
#X obj 392 689 ead~ 1 30;
#X obj 393 895 *~;
#X obj 408 793 bp~ 6666 40;
#X obj 496 792 bp~ 7012 40;
#X obj 583 791 bp~ 1500 35;
#X obj 716 791 bp~ 4535 45;
#X obj 804 792 bp~ 8325 40;
#X obj 905 792 bp~ 11023 46;
#X obj 1049 792 bp~ 3567 40;
#X obj 481 958 *~ 0.33;
#X obj 1236 896 *~;
#X obj 789 954 *~ 0.33;
#X obj 1131 948 *~ 0.33;
#X obj 1148 793 bp~ 4290 20;
#X obj 1252 794 bp~ 6470 20;
#X obj 1236 689 ead~ 1 8;
#X obj 1032 686 ead~ 1 40;
#X obj 1132 688 ead~ 1 22;
#X obj 889 689 ead~ 1 11;
#X obj 789 687 ead~ 1 45;
#X obj 701 687 ead~ 1 70;
#X obj 1143 252 del 1;
#X obj 1143 296 del 2;
#X obj 1143 341 del 3;
#X obj 1143 385 del 4;
#X obj 1143 423 del 5;
#X obj 1143 465 del 6;
#X obj 1143 509 del 7;
#X obj 973 368 +;
#X obj 950 393 +;
#X obj 996 343 +;
#X obj 1088 243 +;
#X obj 1065 268 +;
#X obj 1042 293 +;
#X obj 1019 318 +;
#X floatatom 1185 253 5 0 0 0 - - - 0;
#X floatatom 1183 298 5 0 0 0 - - - 0;
#X obj 1100 189 + 0;
#X floatatom 1186 343 5 0 0 0 - - - 0;
#X floatatom 1185 386 5 0 0 0 - - - 0;
#X floatatom 1186 423 5 0 0 0 - - - 0;
#X floatatom 1186 468 5 0 0 0 - - - 0;
#X floatatom 1189 513 5 0 0 0 - - - 0;
#X floatatom 1188 556 5 0 0 0 - - - 0;
#X obj 1143 555 del 8;
#X obj 1111 218 + 0;
#X obj 992 59 select 0 1 2 3 4 5 6 7;
#X obj 992 -26 metro 125;
#X obj 992 -51 tgl 15 0 empty empty empty 0 -6 0 8 #fcfcfc #000000 #000000 0 1;
#X obj 992 6 f;
#X obj 1023 6 + 1;
#X obj 992 33 mod 8;
#X floatatom 1099 -64 5 0 0 0 - - - 0;
#X obj 993 103 t b;
#X msg 952 554 1;
#X msg 988 555 2;
#X msg 1029 554 3;
#X obj 948 599 sel 1 2 3;
#X obj 1290 1085 *~ 1;
#X obj 1289 1057 *~ 0.5;
#X obj 1464 892 *~;
#X obj 1464 685 ead~ 1 10;
#X obj 1551 889 *~;
#X obj 1551 682 ead~ 1 10;
#X obj 1684 889 *~;
#X obj 1772 889 *~;
#X obj 1872 891 *~;
#X obj 2015 888 *~;
#X obj 2115 890 *~;
#X obj 1715 707 noise~;
#X obj 1715 728 hip~ 300;
#X obj 1375 684 ead~ 1 30;
#X obj 1376 890 *~;
#X obj 1391 788 bp~ 6666 40;
#X obj 1479 787 bp~ 7012 40;
#X obj 1566 786 bp~ 1500 35;
#X obj 1699 786 bp~ 4535 45;
#X obj 1787 787 bp~ 8325 40;
#X obj 1888 787 bp~ 11023 46;
#X obj 2032 787 bp~ 3567 40;
#X obj 1464 953 *~ 0.33;
#X obj 2219 891 *~;
#X obj 1772 949 *~ 0.33;
#X obj 2114 943 *~ 0.33;
#X obj 2131 788 bp~ 4290 20;
#X obj 2235 789 bp~ 6470 20;
#X obj 2219 684 ead~ 1 8;
#X obj 2015 681 ead~ 1 40;
#X obj 2115 683 ead~ 1 22;
#X obj 1872 684 ead~ 1 11;
#X obj 1772 682 ead~ 1 45;
#X obj 1684 682 ead~ 1 70;
#X obj 1609 239 del 1;
#X obj 1609 283 del 2;
#X obj 1609 328 del 3;
#X obj 1609 372 del 4;
#X obj 1609 410 del 5;
#X obj 1609 452 del 6;
#X obj 1609 496 del 7;
#X obj 1439 355 +;
#X obj 1416 380 +;
#X obj 1462 330 +;
#X obj 1554 230 +;
#X obj 1531 255 +;
#X obj 1508 280 +;
#X obj 1485 305 +;
#X floatatom 1651 240 5 0 0 0 - - - 0;
#X floatatom 1649 285 5 0 0 0 - - - 0;
#X obj 1566 176 + 0;
#X floatatom 1652 330 5 0 0 0 - - - 0;
#X floatatom 1651 373 5 0 0 0 - - - 0;
#X floatatom 1652 410 5 0 0 0 - - - 0;
#X floatatom 1652 455 5 0 0 0 - - - 0;
#X floatatom 1655 500 5 0 0 0 - - - 0;
#X floatatom 1654 543 5 0 0 0 - - - 0;
#X obj 1609 542 del 8;
#X obj 1577 205 + 0;
#X obj 1443 139 t b;
#X msg 1418 541 1;
#X msg 1454 542 2;
#X msg 1495 541 3;
#X obj 1414 586 sel 1 2 3;
#X floatatom 1589 89 5 0 0 0 - - - 0;
#X floatatom 1100 165 5 0 0 0 - - - 0;
#X obj 1589 -4 tgl 19 0 empty empty empty 0 -10 0 12 #fcfcfc #000000 #000000 0 1;
#X obj 1589 28 metro 5000;
#X obj 1589 57 random 50;
#X msg 1589 -28 1;
#X msg 991 -77 1;
#X obj 599 -46 receive posY;
#X floatatom 599 -21 5 0 0 1 posY - - 0;
#X obj 599 8 - 12.2;
#X text 688 -26 12.21 - 14.7;
#X obj 1100 117 loadbang;
#X msg 1100 141 1;
#X obj 1176 -111 tgl 19 0 empty empty empty 0 -10 0 12 #fcfcfc #000000 #000000 0 1;
#X obj 1196 -139 inlet;
#X floatatom 599 56 5 0 0 0 - - - 0;
#X obj 599 32 expr 400-$f1*0.4*350;
#X obj 1290 1115 outlet~;
#X connect 0 0 20 0;
#X connect 1 0 0 0;
#X connect 2 0 20 0;
#X connect 3 0 2 0;
#X connect 4 0 22 0;
#X connect 5 0 22 0;
#X connect 6 0 22 0;
#X connect 7 0 23 0;
#X connect 8 0 23 0;
#X connect 9 0 10 0;
#X connect 10 0 13 0;
#X connect 10 0 14 0;
#X connect 10 0 15 0;
#X connect 10 0 16 0;
#X connect 10 0 17 0;
#X connect 10 0 18 0;
#X connect 10 0 19 0;
#X connect 10 0 24 0;
#X connect 10 0 25 0;
#X connect 11 0 12 0;
#X connect 12 0 20 0;
#X connect 13 0 12 1;
#X connect 14 0 0 1;
#X connect 15 0 2 1;
#X connect 16 0 4 1;
#X connect 17 0 5 1;
#X connect 18 0 6 1;
#X connect 19 0 7 1;
#X connect 20 0 70 0;
#X connect 21 0 23 0;
#X connect 22 0 70 0;
#X connect 23 0 70 0;
#X connect 24 0 8 1;
#X connect 25 0 21 1;
#X connect 26 0 21 0;
#X connect 27 0 7 0;
#X connect 28 0 8 0;
#X connect 29 0 6 0;
#X connect 30 0 5 0;
#X connect 31 0 4 0;
#X connect 32 0 33 0;
#X connect 32 0 65 0;
#X connect 33 0 34 0;
#X connect 34 0 35 0;
#X connect 35 0 36 0;
#X connect 35 0 66 0;
#X connect 35 0 67 0;
#X connect 36 0 37 0;
#X connect 37 0 38 0;
#X connect 38 0 55 0;
#X connect 39 0 40 1;
#X connect 39 0 38 1;
#X connect 39 0 53 0;
#X connect 40 0 55 0;
#X connect 40 0 54 0;
#X connect 41 0 39 1;
#X connect 41 0 37 1;
#X connect 41 0 52 0;
#X connect 42 0 43 1;
#X connect 42 0 47 0;
#X connect 42 0 33 1;
#X connect 43 0 44 1;
#X connect 43 0 34 1;
#X connect 43 0 49 0;
#X connect 44 0 45 1;
#X connect 44 0 35 1;
#X connect 44 0 50 0;
#X connect 45 0 41 1;
#X connect 45 0 36 1;
#X connect 45 0 51 0;
#X connect 48 0 42 0;
#X connect 48 0 43 0;
#X connect 48 0 44 0;
#X connect 48 0 45 0;
#X connect 48 0 41 0;
#X connect 48 0 39 0;
#X connect 48 0 40 0;
#X connect 48 0 56 0;
#X connect 56 0 42 1;
#X connect 56 0 46 0;
#X connect 56 0 32 1;
#X connect 57 0 64 0;
#X connect 57 2 128 0;
#X connect 57 4 64 0;
#X connect 57 6 128 0;
#X connect 58 0 60 0;
#X connect 59 0 58 0;
#X connect 60 0 61 0;
#X connect 60 0 62 0;
#X connect 61 0 60 1;
#X connect 62 0 57 0;
#X connect 63 0 58 1;
#X connect 64 0 32 0;
#X connect 65 0 68 0;
#X connect 66 0 68 0;
#X connect 67 0 68 0;
#X connect 68 0 11 0;
#X connect 68 0 1 0;
#X connect 68 0 3 0;
#X connect 68 1 31 0;
#X connect 68 1 30 0;
#X connect 68 1 29 0;
#X connect 68 2 27 0;
#X connect 68 2 28 0;
#X connect 68 2 26 0;
#X connect 69 0 150 0;
#X connect 70 0 69 0;
#X connect 71 0 91 0;
#X connect 72 0 71 0;
#X connect 73 0 91 0;
#X connect 74 0 73 0;
#X connect 75 0 93 0;
#X connect 76 0 93 0;
#X connect 77 0 93 0;
#X connect 78 0 94 0;
#X connect 79 0 94 0;
#X connect 80 0 81 0;
#X connect 81 0 84 0;
#X connect 81 0 85 0;
#X connect 81 0 86 0;
#X connect 81 0 87 0;
#X connect 81 0 88 0;
#X connect 81 0 89 0;
#X connect 81 0 90 0;
#X connect 81 0 95 0;
#X connect 81 0 96 0;
#X connect 82 0 83 0;
#X connect 83 0 91 0;
#X connect 84 0 83 1;
#X connect 85 0 71 1;
#X connect 86 0 73 1;
#X connect 87 0 75 1;
#X connect 88 0 76 1;
#X connect 89 0 77 1;
#X connect 90 0 78 1;
#X connect 91 0 70 0;
#X connect 92 0 94 0;
#X connect 93 0 70 0;
#X connect 94 0 70 0;
#X connect 95 0 79 1;
#X connect 96 0 92 1;
#X connect 97 0 92 0;
#X connect 98 0 78 0;
#X connect 99 0 79 0;
#X connect 100 0 77 0;
#X connect 101 0 76 0;
#X connect 102 0 75 0;
#X connect 103 0 104 0;
#X connect 103 0 129 0;
#X connect 104 0 105 0;
#X connect 105 0 106 0;
#X connect 106 0 107 0;
#X connect 106 0 130 0;
#X connect 106 0 131 0;
#X connect 107 0 108 0;
#X connect 108 0 109 0;
#X connect 109 0 126 0;
#X connect 110 0 111 1;
#X connect 110 0 109 1;
#X connect 110 0 124 0;
#X connect 111 0 126 0;
#X connect 111 0 125 0;
#X connect 112 0 110 1;
#X connect 112 0 108 1;
#X connect 112 0 123 0;
#X connect 113 0 114 1;
#X connect 113 0 118 0;
#X connect 113 0 104 1;
#X connect 114 0 115 1;
#X connect 114 0 105 1;
#X connect 114 0 120 0;
#X connect 115 0 116 1;
#X connect 115 0 106 1;
#X connect 115 0 121 0;
#X connect 116 0 112 1;
#X connect 116 0 107 1;
#X connect 116 0 122 0;
#X connect 119 0 113 0;
#X connect 119 0 114 0;
#X connect 119 0 115 0;
#X connect 119 0 116 0;
#X connect 119 0 112 0;
#X connect 119 0 110 0;
#X connect 119 0 111 0;
#X connect 119 0 127 0;
#X connect 127 0 113 1;
#X connect 127 0 117 0;
#X connect 127 0 103 1;
#X connect 128 0 103 0;
#X connect 129 0 132 0;
#X connect 130 0 132 0;
#X connect 131 0 132 0;
#X connect 132 0 82 0;
#X connect 132 0 72 0;
#X connect 132 0 74 0;
#X connect 132 1 102 0;
#X connect 132 1 101 0;
#X connect 132 1 100 0;
#X connect 132 2 98 0;
#X connect 132 2 99 0;
#X connect 132 2 97 0;
#X connect 133 0 119 0;
#X connect 134 0 48 0;
#X connect 135 0 136 0;
#X connect 136 0 137 0;
#X connect 137 0 133 0;
#X connect 138 0 135 0;
#X connect 139 0 59 0;
#X connect 140 0 141 0;
#X connect 141 0 142 0;
#X connect 142 0 149 0;
#X connect 144 0 145 0;
#X connect 145 0 134 0;
#X connect 146 0 59 0;
#X connect 146 0 135 0;
#X connect 147 0 146 0;
#X connect 148 0 63 0;
#X connect 149 0 148 0;
#X restore 41 116 pd stair;
#X obj 41 35 loadbang;
#X obj 41 76 tgl 19 0 empty empty empty 0 -10 0 12 #fcfcfc #000000 #000000 0 1;
#X obj 41 166 dac~;
#X msg 161 99 \; pd dsp 1;
#X connect 0 0 3 0;
#X connect 0 0 3 1;
#X connect 1 0 2 0;
#X connect 1 0 4 0;
#X connect 2 0 0 0;
