#N canvas 296 8 707 657 12;
#X declare -stdpath ./;
#X obj 23 20 receive platform;
#X obj 55 74 list trim;
#X obj 55 142 tgl 19 0 stair empty stair 0 -10 0 12 #fcfcfc #000000 #000000 0 1;
#X obj 55 98 route Stair Fluid Rubble Slope SpeedArea Terrain;
#X obj 110 162 tgl 19 0 fluid empty fluid 0 -10 0 12 #fcfcfc #000000 #000000 0 1;
#X obj 166 142 tgl 19 0 rubble empty rubble 0 -10 0 12 #fcfcfc #000000 #000000 0 1;
#X obj 221 162 tgl 19 0 slope empty slope 0 -10 0 12 #fcfcfc #000000 #000000 0 1;
#X obj 277 142 tgl 19 0 speedarea empty speedarea 0 -10 0 12 #fcfcfc #000000 #000000 0 1;
#X obj 332 162 tgl 19 0 terrain empty terrain 0 -10 0 12 #fcfcfc #000000 #000000 0 1;
#X obj 209 415 loadbang;
#X obj 209 439 tgl 19 0 empty empty empty 0 -10 0 12 #fcfcfc #000000 #000000 0 1;
#N canvas 21 34 1366 695 rubble 0;
#X obj 250 428 +~;
#X obj 259 237 delwrite~ G07-del 30;
#X obj 543 434 line~;
#X obj 392 441 *~;
#X obj 498 381 line~;
#X obj 355 383 *~;
#X obj 307 351 line~;
#X obj 268 348 *~;
#X obj 286 268 line~;
#X obj 250 268 *~;
#X obj 512 133 + 1;
#X obj 512 156 mod 4;
#X obj 477 144 f;
#X obj 477 182 t f b;
#X obj 477 79 tgl 19 0 empty empty empty 0 -6 0 8 #dfdfdf #000000 #000000 0 1;
#X floatatom 565 131 5 10 1000 0 - - - 0;
#X obj 477 289 route 0 1 2 3;
#X obj 268 302 delread~ G07-del 30;
#X obj 355 357 delread~ G07-del 17;
#X obj 392 415 delread~ G07-del 11;
#X obj 565 166 * 4;
#X obj 521 234 expr 2 * $f1/1000 - 0.7;
#X floatatom 249 176 5 30 1000 0 - - - 0;
#X text 291 176 frequency;
#X text 425 79 on/off;
#X obj 411 493 declare -stdpath ./;
#X obj 477 262 pack f f 200, f 13;
#X obj 249 122 loadbang;
#X msg 249 148 80;
#X obj 477 105 metro;
#X obj 565 81 loadbang;
#X msg 565 105 50;
#X obj 297 644 dac~;
#X obj 300 611 *~;
#X obj 342 575 hsl 60 19 0 1 0 0 empty empty empty -2 -10 0 12 #fcfcfc #000000 #000000 0 1;
#X obj 148 218 phasor~;
#X obj 859 155 loadbang;
#X msg 845 192 \; table20 sinesum 256 1 1 1 1 0 0 0 0 1 0 0 0 0 0 0 1 0 0 0 0 0 0 1 0 0 0 0 0 0 1 0 0 0 0 1 0 0 0 0 0 1 0 0 0 0 1 \, normalize 0.4;
#N canvas 0 22 450 278 (subpatch) 0;
#X array table20 259 float 1;
#A 0 -0.294693 0 0.294693 0.4 0.28948 0.10749 0.022875 0.0789655 0.181673 0.218249 0.171348 0.115564 0.119192 0.169863 0.201356 0.178657 0.137857 0.138353 0.188891 0.23571 0.22487 0.164534 0.115848 0.125265 0.176634 0.214361 0.205655 0.169043 0.14204 0.134157 0.124033 0.0997798 0.0859507 0.118173 0.195202 0.270956 0.301868 0.293569 0.285908 0.289835 0.256276 0.128881 -0.0684912 -0.215994 -0.195335 -0.0145421 0.174701 0.203986 0.0451069 -0.159794 -0.231026 -0.119011 0.0575033 0.135323 0.0628509 -0.0665307 -0.124779 -0.0776696 0.000279083 0.0247376 -0.00546273 -0.0222151 0.017933 0.0755681 0.0749102 4.97367e-06 -0.0729564 -0.0490464 0.0834901 0.232853 0.286943 0.213202 0.0759584 -0.0357248 -0.0863297 -0.101697 -0.115455 -0.125625 -0.107127 -0.0530433 0.012152 0.0608637 0.0902219 0.111597 0.119683 0.0910146 0.0236817 -0.0326555 -0.0100379 0.100844 0.216022 0.223032 0.094995 -0.0649958 -0.110291 0.00678482 0.180334 0.247439 0.144699 -0.0319975 -0.124321 -0.0648335 0.0680811 0.141409 0.100343 0.00354248 -0.0636733 -0.0891566 -0.131987 -0.227286 -0.316392 -0.293048 -0.12222 0.100475 0.222686 0.173879 0.0281889 -0.0714016 -0.0482686 0.0482418 0.108884 0.0773858 -0.00559103 -0.0590099 -0.0454391 0.00509731 0.0411467 0.0421476 0.0225557 2.40108e-06 -0.0225508 -0.0421448 -0.0411506 -0.00510821 0.0454302 0.0590142 0.0056084 -0.0773706 -0.108887 -0.0482625 0.048252 0.0714103 -0.0281575 -0.173853 -0.222693 -0.100517 0.122172 0.293026 0.316402 0.22731 0.132002 0.0891614 0.063682 -0.00352253 -0.100324 -0.141412 -0.0681076 0.0648079 0.124324 0.0320316 -0.144663 -0.247435 -0.180365 -0.00682225 0.110282 0.0650224 -0.0949583 -0.223017 -0.216038 -0.100873 0.010022 0.0326611 -0.0236657 -0.0910033 -0.119682 -0.111601 -0.0902271 -0.0608718 -0.0121649 0.0530291 0.107119 0.125625 0.115458 0.101699 0.0863353 0.0357423 -0.0759289 -0.213176 -0.28694 -0.232878 -0.0835252 0.0490278 0.0729642 1.4921e-05 -0.0749008 -0.0755765 -0.0179463 0.0222127 0.00547055 -0.0247352 -0.000292052 0.0776522 0.12478 0.0665546 -0.062824 -0.135322 -0.0575355 0.118973 0.23102 0.159828 -0.0450604 -0.203969 -0.174729 0.014495 0.195309 0.21601 0.0685338 -0.128843 -0.25626 -0.289835 -0.285909 -0.293565 -0.30187 -0.270969 -0.195221 -0.118186 -0.0859518 -0.0997742 -0.124029 -0.134156 -0.142036 -0.169035 -0.205649 -0.214364 -0.176646 -0.125273 -0.115843 -0.16452 -0.22486 -0.235715 -0.188904 -0.13836 -0.137851 -0.178647 -0.201357 -0.169874 -0.1192 -0.115557 -0.171333 -0.218246 -0.181691 -0.0789875 -0.0228734 -0.107456 -0.289441 -0.399997 -0.294741 -7.20325e-05 0.294645;
#X coords 0 1 258 -1 200 140 1;
#X restore 846 302 graph;
#X obj 22 211 line~;
#X obj 22 244 tabosc4~ table20;
#X obj 682 96 + 30;
#X obj 682 20 tgl 19 0 empty empty empty 0 -10 0 12 #fcfcfc #000000 #000000 0 1;
#X obj 688 160 line;
#X obj 682 46 metro 3000;
#X msg 682 120 \$1 1000;
#X obj 521 207 random 1500;
#X obj 682 72 random 80;
#X obj 181 250 *~ 0.5;
#X obj 71 35 receive posY;
#X floatatom 71 60 5 0 0 1 posY - - 0;
#X text 160 55 12.21 - 13 // jump 17;
#X obj 71 89 - 12.2;
#X obj 71 137 + 80;
#X obj 437 623 vline~;
#X msg 437 599 \$1 100;
#X obj 520 15 loadbang;
#X obj 71 113 * -10;
#X obj 437 574 * 0.1;
#X obj 601 547 inlet;
#X connect 0 0 33 0;
#X connect 2 0 3 1;
#X connect 3 0 0 1;
#X connect 4 0 5 1;
#X connect 5 0 0 1;
#X connect 6 0 7 1;
#X connect 7 0 0 1;
#X connect 8 0 9 1;
#X connect 9 0 0 0;
#X connect 10 0 11 0;
#X connect 11 0 12 1;
#X connect 12 0 10 0;
#X connect 12 0 13 0;
#X connect 13 0 26 0;
#X connect 13 1 46 0;
#X connect 14 0 29 0;
#X connect 15 0 20 0;
#X connect 15 0 29 1;
#X connect 16 0 8 0;
#X connect 16 1 6 0;
#X connect 16 2 4 0;
#X connect 16 3 2 0;
#X connect 17 0 7 0;
#X connect 18 0 5 0;
#X connect 19 0 3 0;
#X connect 20 0 26 2;
#X connect 21 0 26 1;
#X connect 22 0 35 0;
#X connect 22 0 39 0;
#X connect 26 0 16 0;
#X connect 27 0 28 0;
#X connect 28 0 22 0;
#X connect 29 0 12 0;
#X connect 30 0 31 0;
#X connect 31 0 15 0;
#X connect 33 0 32 0;
#X connect 33 0 32 1;
#X connect 34 0 33 1;
#X connect 35 0 48 0;
#X connect 36 0 37 0;
#X connect 39 0 40 0;
#X connect 40 0 1 0;
#X connect 40 0 9 0;
#X connect 41 0 45 0;
#X connect 42 0 44 0;
#X connect 43 0 15 0;
#X connect 44 0 47 0;
#X connect 45 0 43 0;
#X connect 46 0 21 0;
#X connect 47 0 41 0;
#X connect 48 0 9 0;
#X connect 49 0 50 0;
#X connect 50 0 52 0;
#X connect 52 0 57 0;
#X connect 53 0 22 0;
#X connect 54 0 33 1;
#X connect 55 0 54 0;
#X connect 56 0 42 0;
#X connect 56 0 14 0;
#X connect 57 0 53 0;
#X connect 58 0 55 0;
#X connect 59 0 58 0;
#X restore 498 194 pd rubble;
#X text 216 380 player default sound;
#N canvas 156 186 450 300 bypass 0;
#X obj 144 59 inlet~;
#X obj 143 154 *~;
#X obj 225 119 vline~;
#X msg 225 89 \$1 1000;
#X obj 143 188 dac~;
#X obj 225 59 inlet;
#X connect 0 0 1 0;
#X connect 1 0 4 0;
#X connect 1 0 4 1;
#X connect 2 0 1 1;
#X connect 3 0 2 0;
#X connect 5 0 3 0;
#X restore 210 571 pd bypass;
#X obj 270 542 tgl 19 0 empty grounded grounded? 22 8 0 12 #fcfcfc #000000 #000000 0 1;
#X obj 498 245 tgl 19 0 empty speedarea speedarea 0 -10 0 12 #fcfcfc #000000 #000000 0 1;
#X obj 498 164 tgl 19 0 empty rubble rubble 0 -10 0 12 #fcfcfc #000000 #000000 0 1;
#X obj 568 84 tgl 19 0 empty fluid fluid 0 -10 0 12 #fcfcfc #000000 #000000 0 1;
#X obj 23 47 t b a;
#X obj 55 225 v stair;
#X obj 100 192 v fluid;
#X obj 166 225 v rubble;
#X obj 184 196 v slope;
#X obj 253 199 v speedarea;
#X obj 348 221 v terrain;
#X obj 23 312 tgl 19 0 grounded empty grounded? 22 10 0 12 #fcfcfc #000000 #000000 0 1;
#X obj 23 372 tgl 19 0 empty empty empty 0 -10 0 12 #fcfcfc #000000 #000000 0 1;
#X obj 23 264 expr stair+fluid+rubble+slope+speedarea+terrain;
#X obj 23 288 == 0;
#X obj 223 492 send~ playeraudio;
#X msg 46 402 Fluid \$1;
#X obj 23 402 tgl 19 0 empty empty empty 0 -10 0 12 #fcfcfc #000000 #000000 0 1;
#X msg 46 372 Stair \$1;
#X obj 23 432 tgl 19 0 empty empty empty 0 -10 0 12 #fcfcfc #000000 #000000 0 1;
#X obj 23 462 tgl 19 0 empty empty empty 0 -10 0 12 #fcfcfc #000000 #000000 0 1;
#X obj 23 492 tgl 19 0 empty empty empty 0 -10 0 12 #fcfcfc #000000 #000000 0 1;
#X obj 23 522 tgl 19 0 empty empty empty 0 -10 0 12 #fcfcfc #000000 #000000 0 1;
#X obj 23 552 tgl 19 0 empty empty empty 0 -10 0 12 #fcfcfc #000000 #000000 0 1;
#X obj 23 582 tgl 19 0 empty empty empty 0 -10 0 12 #fcfcfc #000000 #000000 0 1;
#X obj 46 626 s platform;
#X text 79 344 test signals;
#X msg 46 432 Rubble \$1;
#X msg 46 462 Slope \$1;
#X msg 46 492 SpeedArea \$1;
#X msg 46 522 Terrain \$1;
#X msg 46 552 Fog \$1;
#X msg 46 582 Grass \$1;
#X obj 299 433 loadbang;
#X msg 299 457 1;
#N canvas 51 77 761 465 slope 0;
#X obj 572 356 line;
#X msg 595 323 0 1200;
#X obj 595 259 del 1000;
#X msg 618 229 stop;
#X text 642 202 a timeout ..;
#X obj 572 205 t a b b;
#X msg 572 299 \$1 300;
#X floatatom 572 380 5 0 0 0 - - - 0;
#N canvas 23 12 927 652 src 0;
#X obj 27 99 hsl 64 18 0 1 0 0 empty empty empty 20 6 1 8 #fcfcfc #000000 #000000 0 1;
#X obj 360 53 timer;
#X obj 360 269 vline~;
#X obj 24 350 metro;
#X obj 101 190 swap 1;
#X obj 101 213 -;
#X obj 24 171 t f f;
#X obj 24 219 change;
#X obj 24 147 line;
#X msg 24 123 \$1 100;
#X obj 360 29 t b b;
#X obj 360 221 pack f f;
#X obj 360 293 *~;
#X obj 360 77 min 100;
#X obj 360 101 / 100;
#X obj 133 336 * 60;
#X obj 133 364 + 3;
#X obj 83 272 random 1000;
#X obj 83 296 / 1000;
#X obj 83 359 *;
#X obj 101 236 t f f;
#X obj 83 383 +;
#X obj 360 125 sqrt;
#X msg 360 245 \$1 \, 0 \$2;
#X obj 24 374 t b b;
#X obj 101 335 * 6;
#X obj 360 197 sqrt;
#X obj 360 173 + 0.1;
#X obj 360 149 t f f;
#X obj 710 353 *~ 0.2;
#X obj 430 353 bp~ 250 2;
#X obj 500 353 bp~ 395 2;
#X obj 360 353 bp~ 125 1;
#X obj 280 353 bp~ 62.5 1;
#X obj 570 353 bp~ 560 3;
#X obj 640 353 bp~ 790 3;
#X obj 500 552 hip~ 125;
#N canvas 481 102 450 300 dfbef_a 0;
#X obj 67 77 +~;
#X obj 67 15 inlet~;
#X obj 69 167 outlet~;
#X obj 83 56 *~ 0.05;
#X obj 68 98 delwrite~ \$0-a 100;
#X obj 69 121 delread~ \$0-a 4.52;
#X obj 77 146 s~ \$0-fba;
#X obj 83 36 r~ \$0-fba;
#X connect 0 0 4 0;
#X connect 1 0 0 0;
#X connect 3 0 0 1;
#X connect 5 0 2 0;
#X connect 5 0 6 0;
#X connect 7 0 3 0;
#X restore 260 481 pd dfbef_a;
#N canvas 814 121 450 300 dfbef_b 0;
#X obj 67 77 +~;
#X obj 67 15 inlet~;
#X obj 69 167 outlet~;
#X obj 83 36 r~ \$0-fba;
#X obj 83 56 *~ 0.05;
#X obj 68 98 delwrite~ \$0-b 100;
#X obj 69 121 delread~ \$0-b 5.06;
#X connect 0 0 5 0;
#X connect 1 0 0 0;
#X connect 3 0 4 0;
#X connect 4 0 0 1;
#X connect 6 0 2 0;
#X restore 340 481 pd dfbef_b;
#N canvas 624 216 450 300 dfbef_c 0;
#X obj 67 77 +~;
#X obj 67 15 inlet~;
#X obj 69 167 outlet~;
#X obj 83 36 r~ \$0-fba;
#X obj 83 56 *~ 0.05;
#X obj 68 98 delwrite~ \$0-c 100;
#X obj 69 121 delread~ \$0-c 6.27;
#X connect 0 0 5 0;
#X connect 1 0 0 0;
#X connect 3 0 4 0;
#X connect 4 0 0 1;
#X connect 6 0 2 0;
#X restore 420 481 pd dfbef_c;
#N canvas 624 216 450 300 dfbef_d 0;
#X obj 67 77 +~;
#X obj 67 15 inlet~;
#X obj 69 167 outlet~;
#X obj 83 36 r~ \$0-fba;
#X obj 83 56 *~ 0.05;
#X obj 68 98 delwrite~ \$0-d 100;
#X obj 69 121 delread~ \$0-d 8;
#X connect 0 0 5 0;
#X connect 1 0 0 0;
#X connect 3 0 4 0;
#X connect 4 0 0 1;
#X connect 6 0 2 0;
#X restore 500 481 pd dfbef_d;
#N canvas 624 216 450 300 dfbef_e 0;
#X obj 67 77 +~;
#X obj 67 15 inlet~;
#X obj 69 167 outlet~;
#X obj 83 36 r~ \$0-fba;
#X obj 83 56 *~ 0.05;
#X obj 68 98 delwrite~ \$0-e 100;
#X obj 69 121 delread~ \$0-e 5.48;
#X connect 0 0 5 0;
#X connect 1 0 0 0;
#X connect 3 0 4 0;
#X connect 4 0 0 1;
#X connect 6 0 2 0;
#X restore 580 481 pd dfbef_e;
#N canvas 624 216 450 300 dfbef_f 0;
#X obj 67 77 +~;
#X obj 67 15 inlet~;
#X obj 69 167 outlet~;
#X obj 83 36 r~ \$0-fba;
#X obj 83 56 *~ 0.05;
#X obj 68 98 delwrite~ \$0-f 100;
#X obj 69 121 delread~ \$0-f 7.14;
#X connect 0 0 5 0;
#X connect 1 0 0 0;
#X connect 3 0 4 0;
#X connect 4 0 0 1;
#X connect 6 0 2 0;
#X restore 660 481 pd dfbef_f;
#N canvas 624 216 450 300 dfbef_g 0;
#X obj 67 77 +~;
#X obj 67 15 inlet~;
#X obj 69 167 outlet~;
#X obj 83 36 r~ \$0-fba;
#X obj 83 56 *~ 0.05;
#X obj 68 98 delwrite~ \$0-g 100;
#X obj 69 121 delread~ \$0-g 10.12;
#X connect 0 0 5 0;
#X connect 1 0 0 0;
#X connect 3 0 4 0;
#X connect 4 0 0 1;
#X connect 6 0 2 0;
#X restore 740 481 pd dfbef_g;
#N canvas 624 216 450 300 dfbef_h 0;
#X obj 67 77 +~;
#X obj 67 15 inlet~;
#X obj 69 167 outlet~;
#X obj 83 36 r~ \$0-fba;
#X obj 83 56 *~ 0.05;
#X obj 68 98 delwrite~ \$0-h 16;
#X obj 69 121 delread~ \$0-h 16;
#X connect 0 0 5 0;
#X connect 1 0 0 0;
#X connect 3 0 4 0;
#X connect 4 0 0 1;
#X connect 6 0 2 0;
#X restore 820 481 pd dfbef_h;
#X obj 500 612 dac~;
#X obj 500 582 *~ 0.2;
#X obj 500 417 *~ 1;
#X obj 24 195 > 0.1;
#X obj 24 24 inlet;
#X connect 0 0 9 0;
#X connect 1 0 13 0;
#X connect 2 0 12 0;
#X connect 2 0 12 1;
#X connect 3 0 24 0;
#X connect 4 0 5 0;
#X connect 4 1 5 1;
#X connect 5 0 20 0;
#X connect 6 0 48 0;
#X connect 6 1 4 0;
#X connect 7 0 3 0;
#X connect 8 0 6 0;
#X connect 9 0 8 0;
#X connect 10 0 1 0;
#X connect 10 1 1 1;
#X connect 11 0 23 0;
#X connect 12 0 33 0;
#X connect 12 0 32 0;
#X connect 12 0 30 0;
#X connect 12 0 31 0;
#X connect 12 0 34 0;
#X connect 12 0 35 0;
#X connect 12 0 29 0;
#X connect 13 0 14 0;
#X connect 14 0 22 0;
#X connect 15 0 16 0;
#X connect 16 0 21 1;
#X connect 17 0 18 0;
#X connect 18 0 19 0;
#X connect 19 0 21 0;
#X connect 20 0 25 0;
#X connect 20 1 15 0;
#X connect 21 0 3 1;
#X connect 22 0 28 0;
#X connect 23 0 2 0;
#X connect 24 0 10 0;
#X connect 24 1 17 0;
#X connect 25 0 19 1;
#X connect 26 0 11 0;
#X connect 27 0 26 0;
#X connect 28 0 27 0;
#X connect 28 1 11 1;
#X connect 29 0 47 0;
#X connect 30 0 47 0;
#X connect 31 0 47 0;
#X connect 32 0 47 0;
#X connect 33 0 47 0;
#X connect 34 0 47 0;
#X connect 35 0 47 0;
#X connect 36 0 46 0;
#X connect 37 0 36 0;
#X connect 38 0 36 0;
#X connect 39 0 36 0;
#X connect 40 0 36 0;
#X connect 41 0 36 0;
#X connect 42 0 36 0;
#X connect 43 0 36 0;
#X connect 44 0 36 0;
#X connect 46 0 45 0;
#X connect 46 0 45 1;
#X connect 47 0 37 0;
#X connect 47 0 44 0;
#X connect 47 0 43 0;
#X connect 47 0 42 0;
#X connect 47 0 41 0;
#X connect 47 0 40 0;
#X connect 47 0 39 0;
#X connect 47 0 38 0;
#X connect 48 0 7 0;
#X connect 49 0 0 0;
#X restore 572 404 pd src;
#X floatatom 572 177 5 0 0 0 - - - 0;
#X obj 22 24 inlet;
#X obj 22 48 tgl 19 0 empty empty empty 0 -10 0 12 #fcfcfc #000000 #000000 0 1;
#X obj 162 24 receive posY;
#X floatatom 162 49 5 0 0 1 posY - - 0;
#X text 241 51 12.21 - 17+;
#X floatatom 162 182 5 0 0 0 - - - 0;
#X obj 162 78 expr ($f1-12.2)/4.8;
#X obj 395 356 min 1;
#X obj 201 235 t a a b;
#X obj 201 297 -;
#X floatatom 201 321 5 0 0 1 difference - - 0;
#X obj 219 269 f 12.2;
#X obj 201 392 tgl 19 0 empty empty empty 0 -10 0 12 #fcfcfc #000000 #000000 0 1;
#X obj 162 419 spigot;
#X obj 162 205 t a a;
#X obj 201 344 abs;
#X obj 201 368 > 0.001;
#X obj 162 130 spigot;
#X connect 0 0 7 0;
#X connect 1 0 0 0;
#X connect 2 0 1 0;
#X connect 3 0 2 0;
#X connect 5 0 6 0;
#X connect 5 1 2 0;
#X connect 5 2 3 0;
#X connect 6 0 0 0;
#X connect 7 0 8 0;
#X connect 9 0 5 0;
#X connect 10 0 11 0;
#X connect 11 0 27 1;
#X connect 12 0 13 0;
#X connect 13 0 16 0;
#X connect 15 0 24 0;
#X connect 16 0 27 0;
#X connect 17 0 9 0;
#X connect 18 0 19 0;
#X connect 18 1 21 1;
#X connect 18 2 21 0;
#X connect 19 0 20 0;
#X connect 20 0 25 0;
#X connect 21 0 19 1;
#X connect 22 0 23 1;
#X connect 23 0 17 0;
#X connect 24 0 23 0;
#X connect 24 1 18 0;
#X connect 25 0 26 0;
#X connect 26 0 22 0;
#X connect 27 0 15 0;
#X restore 578 194 pd slope;
#X obj 578 164 tgl 19 0 empty slope slope 0 -10 0 12 #fcfcfc #000000 #000000 0 1;
#N canvas 174 52 490 434 stair 0;
#X floatatom 82 183 5 57 83 0 - - - 0;
#X obj 82 212 t b f, f 9;
#X obj 82 242 f;
#X obj 82 302 pack f f;
#X obj 118 242 + 1;
#X obj 82 272 mod 4;
#X obj 82 363 clone clone-abs 4;
#X obj 92 33 inlet;
#X obj 92 57 tgl 19 0 empty empty empty 0 -10 0 12 #fcfcfc #000000 #000000 0 1;
#X obj 82 395 dac~;
#X obj 259 44 receive posY;
#X floatatom 259 69 5 0 0 1 posY - - 0;
#X text 338 71 12.21 - 14.7+;
#X obj 259 98 expr ($f1-12.2)/2.5*26+57;
#X obj 259 122 int;
#X obj 170 153 spigot;
#X obj 259 146 change;
#X connect 0 0 1 0;
#X connect 1 0 2 0;
#X connect 1 1 3 1;
#X connect 2 0 5 0;
#X connect 3 0 6 0;
#X connect 4 0 2 1;
#X connect 5 0 3 0;
#X connect 5 0 4 0;
#X connect 6 0 9 0;
#X connect 6 0 9 1;
#X connect 7 0 8 0;
#X connect 8 0 15 1;
#X connect 10 0 11 0;
#X connect 11 0 13 0;
#X connect 13 0 14 0;
#X connect 14 0 16 0;
#X connect 15 0 0 0;
#X connect 16 0 15 0;
#X restore 498 114 pd stair;
#N canvas 0 8 1366 695 clock 0;
#X obj 93 963 *~;
#X obj 163 863 *~;
#X obj 233 963 *~;
#X obj 303 863 *~;
#X obj 373 963 *~;
#X obj 443 863 *~;
#X obj 513 963 *~;
#X obj 74 420 noise~;
#X obj 74 444 hip~ 300;
#X obj 23 863 *~;
#X obj 41 833 bp~ 6666 40;
#X obj 111 933 bp~ 7012 40;
#X obj 181 833 bp~ 1500 35;
#X obj 251 933 bp~ 4535 45;
#X obj 321 833 bp~ 8325 40;
#X obj 391 933 bp~ 11023 46;
#X obj 461 833 bp~ 3567 40;
#X obj 93 1043 *~ 0.33;
#X obj 583 863 *~;
#X obj 303 1043 *~ 0.33;
#X obj 513 1043 *~ 0.33;
#X obj 531 933 bp~ 4290 20;
#X obj 601 833 bp~ 6470 20;
#X obj 249 454 del 1;
#X obj 249 478 del 2;
#X obj 249 502 del 3;
#X obj 249 526 del 4;
#X obj 249 550 del 5;
#X obj 249 574 del 6;
#X obj 249 598 del 7;
#X obj 383 561 +;
#X obj 365 585 +;
#X obj 401 537 +;
#X obj 473 441 +;
#X obj 455 465 +;
#X obj 437 489 +;
#X obj 419 513 +;
#X floatatom 299 436 5 0 0 0 - - - 0;
#X floatatom 299 460 5 0 0 0 - - - 0;
#X obj 365 398 + 0;
#X floatatom 299 484 5 0 0 0 - - - 0;
#X floatatom 299 508 5 0 0 0 - - - 0;
#X floatatom 299 532 5 0 0 0 - - - 0;
#X floatatom 299 556 5 0 0 0 - - - 0;
#X floatatom 299 580 5 0 0 0 - - - 0;
#X floatatom 299 604 5 0 0 0 - - - 0;
#X obj 249 622 del 8;
#X obj 491 417 + 0;
#X obj 23 223 select 0 1 2 3 4 5 6 7;
#X obj 23 138 metro 125;
#X obj 23 113 tgl 15 0 empty empty empty 0 -6 0 8 #fcfcfc #000000 #000000 0 1;
#X obj 23 170 f;
#X obj 54 170 + 1;
#X obj 23 197 mod 8;
#X floatatom 83 109 5 0 0 0 - - - 0;
#X obj 249 347 t b;
#X msg 128 653 1;
#X msg 164 653 2;
#X msg 204 653 3;
#X obj 164 683 sel 1 2 3;
#X obj 650 1135 *~ 1;
#X obj 649 1107 *~ 0.5;
#X obj 719 347 t b;
#X floatatom 793 140 5 0 0 0 - - - 0;
#X floatatom 365 374 5 0 0 0 - - - 0;
#X obj 793 68 tgl 19 0 empty empty empty 0 -10 0 12 #fcfcfc #000000 #000000 0 1;
#X obj 793 92 metro 5000;
#X obj 793 116 random 50;
#X msg 793 44 1;
#X msg 43 83 1;
#X obj 414 100 receive posY;
#X floatatom 414 125 5 0 0 1 posY - - 0;
#X obj 414 154 - 12.2;
#X text 503 120 12.21 - 14.7;
#X obj 365 326 loadbang;
#X msg 365 350 1;
#X obj 23 49 tgl 19 0 empty empty empty 0 -10 0 12 #fcfcfc #000000 #000000 0 1;
#X obj 23 25 inlet;
#X floatatom 414 202 5 0 0 0 - - - 0;
#X obj 650 1165 outlet~;
#X obj 414 178 expr 400-$f1/4.8*350;
#X obj 414 225 max 50;
#X obj 23 773 ead130~;
#X obj 94 773 ead110~;
#X obj 164 773 ead110~;
#X obj 234 773 ead170~;
#X obj 304 773 ead145~;
#X obj 374 773 ead111~;
#X obj 444 773 ead140~;
#X obj 514 773 ead122~;
#X obj 584 773 ead108~;
#X obj 74 468 s~ noisesrc\$0;
#X obj 41 803 r~ noisesrc\$0;
#X obj 111 903 r~ noisesrc\$0;
#X obj 181 803 r~ noisesrc\$0;
#X obj 251 903 r~ noisesrc\$0;
#X obj 321 803 r~ noisesrc\$0;
#X obj 391 903 r~ noisesrc\$0;
#X obj 461 803 r~ noisesrc\$0;
#X obj 531 903 r~ noisesrc\$0;
#X obj 601 803 r~ noisesrc\$0;
#X obj 733 773 *~;
#X obj 803 673 *~;
#X obj 873 773 *~;
#X obj 943 673 *~;
#X obj 1013 773 *~;
#X obj 1083 673 *~;
#X obj 1153 773 *~;
#X obj 663 673 *~;
#X obj 681 643 bp~ 6666 40;
#X obj 751 743 bp~ 7012 40;
#X obj 821 643 bp~ 1500 35;
#X obj 891 743 bp~ 4535 45;
#X obj 961 643 bp~ 8325 40;
#X obj 1031 743 bp~ 11023 46;
#X obj 1101 643 bp~ 3567 40;
#X obj 733 853 *~ 0.33;
#X obj 1223 673 *~;
#X obj 943 853 *~ 0.33;
#X obj 1153 853 *~ 0.33;
#X obj 1171 743 bp~ 4290 20;
#X obj 1241 643 bp~ 6470 20;
#X obj 889 264 del 1;
#X obj 889 288 del 2;
#X obj 889 312 del 3;
#X obj 889 336 del 4;
#X obj 889 360 del 5;
#X obj 889 384 del 6;
#X obj 889 408 del 7;
#X obj 1023 371 +;
#X obj 1005 395 +;
#X obj 1041 347 +;
#X obj 1113 251 +;
#X obj 1095 275 +;
#X obj 1077 299 +;
#X obj 1059 323 +;
#X floatatom 939 246 5 0 0 0 - - - 0;
#X floatatom 939 270 5 0 0 0 - - - 0;
#X obj 1005 208 + 0;
#X floatatom 939 294 5 0 0 0 - - - 0;
#X floatatom 939 318 5 0 0 0 - - - 0;
#X floatatom 939 342 5 0 0 0 - - - 0;
#X floatatom 939 366 5 0 0 0 - - - 0;
#X floatatom 939 390 5 0 0 0 - - - 0;
#X floatatom 939 414 5 0 0 0 - - - 0;
#X obj 889 432 del 8;
#X obj 1131 227 + 0;
#X msg 768 463 1;
#X msg 804 463 2;
#X msg 844 463 3;
#X obj 804 493 sel 1 2 3;
#X floatatom 1005 184 5 0 0 0 - - - 0;
#X obj 1005 136 loadbang;
#X msg 1005 160 1;
#X obj 663 583 ead130~;
#X obj 734 583 ead110~;
#X obj 804 583 ead110~;
#X obj 874 583 ead170~;
#X obj 944 583 ead145~;
#X obj 1014 583 ead111~;
#X obj 1084 583 ead140~;
#X obj 1154 583 ead122~;
#X obj 1224 583 ead108~;
#X obj 681 613 r~ noisesrc\$0;
#X obj 751 713 r~ noisesrc\$0;
#X obj 821 613 r~ noisesrc\$0;
#X obj 891 713 r~ noisesrc\$0;
#X obj 961 613 r~ noisesrc\$0;
#X obj 1031 713 r~ noisesrc\$0;
#X obj 1101 613 r~ noisesrc\$0;
#X obj 1171 713 r~ noisesrc\$0;
#X obj 1241 613 r~ noisesrc\$0;
#X text 1255 1205 ||||||||||||;
#X connect 0 0 17 0;
#X connect 1 0 17 0;
#X connect 2 0 19 0;
#X connect 3 0 19 0;
#X connect 4 0 19 0;
#X connect 5 0 20 0;
#X connect 6 0 20 0;
#X connect 7 0 8 0;
#X connect 8 0 91 0;
#X connect 9 0 17 0;
#X connect 10 0 9 1;
#X connect 11 0 0 1;
#X connect 12 0 1 1;
#X connect 13 0 2 1;
#X connect 14 0 3 1;
#X connect 15 0 4 1;
#X connect 16 0 5 1;
#X connect 17 0 61 0;
#X connect 18 0 20 0;
#X connect 19 0 61 0;
#X connect 20 0 61 0;
#X connect 21 0 6 1;
#X connect 22 0 18 1;
#X connect 23 0 24 0;
#X connect 23 0 56 0;
#X connect 24 0 25 0;
#X connect 25 0 26 0;
#X connect 26 0 27 0;
#X connect 26 0 57 0;
#X connect 26 0 58 0;
#X connect 27 0 28 0;
#X connect 28 0 29 0;
#X connect 29 0 46 0;
#X connect 30 0 31 1;
#X connect 30 0 44 0;
#X connect 31 0 45 0;
#X connect 32 0 30 1;
#X connect 32 0 43 0;
#X connect 33 0 34 1;
#X connect 33 0 38 0;
#X connect 34 0 35 1;
#X connect 34 0 40 0;
#X connect 35 0 36 1;
#X connect 35 0 41 0;
#X connect 36 0 32 1;
#X connect 36 0 42 0;
#X connect 37 0 23 1;
#X connect 38 0 24 1;
#X connect 39 0 33 0;
#X connect 39 0 34 0;
#X connect 39 0 35 0;
#X connect 39 0 36 0;
#X connect 39 0 32 0;
#X connect 39 0 30 0;
#X connect 39 0 31 0;
#X connect 39 0 47 0;
#X connect 40 0 25 1;
#X connect 41 0 26 1;
#X connect 42 0 27 1;
#X connect 43 0 28 1;
#X connect 44 0 29 1;
#X connect 45 0 46 1;
#X connect 47 0 33 1;
#X connect 47 0 37 0;
#X connect 48 0 55 0;
#X connect 48 2 62 0;
#X connect 48 4 55 0;
#X connect 48 6 62 0;
#X connect 49 0 51 0;
#X connect 50 0 49 0;
#X connect 51 0 52 0;
#X connect 51 0 53 0;
#X connect 52 0 51 1;
#X connect 53 0 48 0;
#X connect 54 0 49 1;
#X connect 55 0 23 0;
#X connect 56 0 59 0;
#X connect 57 0 59 0;
#X connect 58 0 59 0;
#X connect 59 0 82 0;
#X connect 59 0 83 0;
#X connect 59 0 84 0;
#X connect 59 1 85 0;
#X connect 59 1 86 0;
#X connect 59 1 87 0;
#X connect 59 2 88 0;
#X connect 59 2 89 0;
#X connect 59 2 90 0;
#X connect 60 0 79 0;
#X connect 61 0 60 0;
#X connect 62 0 122 0;
#X connect 63 0 151 0;
#X connect 64 0 39 0;
#X connect 65 0 66 0;
#X connect 66 0 67 0;
#X connect 67 0 63 0;
#X connect 68 0 65 0;
#X connect 69 0 50 0;
#X connect 70 0 71 0;
#X connect 71 0 72 0;
#X connect 72 0 80 0;
#X connect 74 0 75 0;
#X connect 75 0 64 0;
#X connect 76 0 50 0;
#X connect 76 0 65 0;
#X connect 77 0 76 0;
#X connect 78 0 81 0;
#X connect 80 0 78 0;
#X connect 81 0 54 0;
#X connect 82 0 9 0;
#X connect 83 0 0 0;
#X connect 84 0 1 0;
#X connect 85 0 2 0;
#X connect 86 0 3 0;
#X connect 87 0 4 0;
#X connect 88 0 5 0;
#X connect 89 0 6 0;
#X connect 90 0 18 0;
#X connect 92 0 10 0;
#X connect 93 0 11 0;
#X connect 94 0 12 0;
#X connect 95 0 13 0;
#X connect 96 0 14 0;
#X connect 97 0 15 0;
#X connect 98 0 16 0;
#X connect 99 0 21 0;
#X connect 100 0 22 0;
#X connect 101 0 116 0;
#X connect 102 0 116 0;
#X connect 103 0 118 0;
#X connect 104 0 118 0;
#X connect 105 0 118 0;
#X connect 106 0 119 0;
#X connect 107 0 119 0;
#X connect 108 0 116 0;
#X connect 109 0 108 1;
#X connect 110 0 101 1;
#X connect 111 0 102 1;
#X connect 112 0 103 1;
#X connect 113 0 104 1;
#X connect 114 0 105 1;
#X connect 115 0 106 1;
#X connect 116 0 61 0;
#X connect 117 0 119 0;
#X connect 118 0 61 0;
#X connect 119 0 61 0;
#X connect 120 0 107 1;
#X connect 121 0 117 1;
#X connect 122 0 123 0;
#X connect 122 0 147 0;
#X connect 123 0 124 0;
#X connect 124 0 125 0;
#X connect 125 0 126 0;
#X connect 125 0 148 0;
#X connect 125 0 149 0;
#X connect 126 0 127 0;
#X connect 127 0 128 0;
#X connect 128 0 145 0;
#X connect 129 0 130 1;
#X connect 129 0 143 0;
#X connect 130 0 144 0;
#X connect 131 0 129 1;
#X connect 131 0 142 0;
#X connect 132 0 133 1;
#X connect 132 0 137 0;
#X connect 133 0 134 1;
#X connect 133 0 139 0;
#X connect 134 0 135 1;
#X connect 134 0 140 0;
#X connect 135 0 131 1;
#X connect 135 0 141 0;
#X connect 136 0 122 1;
#X connect 137 0 123 1;
#X connect 138 0 132 0;
#X connect 138 0 133 0;
#X connect 138 0 134 0;
#X connect 138 0 135 0;
#X connect 138 0 131 0;
#X connect 138 0 129 0;
#X connect 138 0 130 0;
#X connect 138 0 146 0;
#X connect 139 0 124 1;
#X connect 140 0 125 1;
#X connect 141 0 126 1;
#X connect 142 0 127 1;
#X connect 143 0 128 1;
#X connect 144 0 145 1;
#X connect 146 0 132 1;
#X connect 146 0 136 0;
#X connect 147 0 150 0;
#X connect 148 0 150 0;
#X connect 149 0 150 0;
#X connect 150 0 154 0;
#X connect 150 0 155 0;
#X connect 150 0 156 0;
#X connect 150 1 157 0;
#X connect 150 1 158 0;
#X connect 150 1 159 0;
#X connect 150 2 160 0;
#X connect 150 2 161 0;
#X connect 150 2 162 0;
#X connect 151 0 138 0;
#X connect 152 0 153 0;
#X connect 153 0 151 0;
#X connect 154 0 108 0;
#X connect 155 0 101 0;
#X connect 156 0 102 0;
#X connect 157 0 103 0;
#X connect 158 0 104 0;
#X connect 159 0 105 0;
#X connect 160 0 106 0;
#X connect 161 0 107 0;
#X connect 162 0 117 0;
#X connect 163 0 109 0;
#X connect 164 0 110 0;
#X connect 165 0 111 0;
#X connect 166 0 112 0;
#X connect 167 0 113 0;
#X connect 168 0 114 0;
#X connect 169 0 115 0;
#X connect 170 0 120 0;
#X connect 171 0 121 0;
#X restore 209 463 pd clock;
#X obj 498 84 tgl 19 0 empty stair stair 0 -10 0 12 #fcfcfc #000000 #000000 0 1;
#N canvas 0 8 1366 695 fluid* 0;
#X obj 1127 341 line;
#X msg 1127 259 0 \, 1 9000;
#X obj 1127 389 swap 1;
#X obj 1127 413 -;
#X obj 1127 437 * 300;
#X obj 1127 461 + 600;
#X obj 1127 365 trigger float float;
#X obj 1257 423 + 100;
#X obj 1257 399 * 2000;
#X obj 779 276 line;
#X msg 811 250 1 800;
#X msg 747 250 0 800;
#X obj 779 324 + 4;
#N canvas 235 30 358 287 openpipe 0;
#X obj 197 77 * 3;
#X obj 231 77 * 5;
#X obj 265 77 * 7;
#X obj 163 77 * 1;
#X obj 73 46 inlet~;
#X obj 93 237 outlet~;
#X obj 163 29 inlet length;
#X obj 93 122 bp~ 1 30;
#X obj 113 146 bp~ 1 30;
#X obj 133 170 bp~ 1 30;
#X obj 153 194 bp~ 1 30;
#X obj 163 53 trigger f f f f;
#X connect 0 0 8 1;
#X connect 1 0 9 1;
#X connect 2 0 10 1;
#X connect 3 0 7 1;
#X connect 4 0 7 0;
#X connect 4 0 8 0;
#X connect 4 0 9 0;
#X connect 4 0 10 0;
#X connect 6 0 11 0;
#X connect 7 0 5 0;
#X connect 8 0 5 0;
#X connect 9 0 5 0;
#X connect 10 0 5 0;
#X connect 11 0 3 0;
#X connect 11 1 0 0;
#X connect 11 2 1 0;
#X connect 11 3 2 0;
#X restore 810 459 pd openpipe;
#N canvas 632 44 452 430 waterflow 0;
#X obj 55 242 osc~;
#X obj 55 192 line~;
#X obj 95 350 *~;
#X obj 112 326 *~;
#X obj 55 72 metro 6;
#X obj 55 144 + 800;
#X obj 112 301 *~ 0.9;
#X obj 112 277 lop~ 10;
#N canvas 509 84 378 370 bilexp 0;
#X obj 55 197 expr exp($f1);
#X obj 55 69 random 8192;
#X obj 55 157 * 9;
#X obj 55 133 / 4096;
#X obj 123 108 > 4096;
#X obj 123 132 sel 0 1, f 11;
#X msg 123 156 -1;
#X msg 160 156 1;
#X obj 55 230 *;
#X obj 55 254 / 23000;
#X obj 55 45 t b;
#X obj 55 21 inlet;
#X obj 55 278 outlet;
#X obj 55 109 mod 4096;
#X text 55 306 exponential -8103/23000 ~ +8103/23000;
#X text 53 320 == exponential -0.352 ~ +0.352;
#X connect 0 0 8 0;
#X connect 1 0 4 0;
#X connect 1 0 13 0;
#X connect 2 0 0 0;
#X connect 3 0 2 0;
#X connect 4 0 5 0;
#X connect 5 0 6 0;
#X connect 5 1 7 0;
#X connect 6 0 8 1;
#X connect 7 0 8 1;
#X connect 8 0 9 0;
#X connect 9 0 12 0;
#X connect 10 0 1 0;
#X connect 11 0 10 0;
#X connect 13 0 3 0;
#X restore 55 96 pd bilexp;
#X obj 112 253 clip~ 0 1;
#X obj 55 168 pack 1 2.689;
#X obj 55 120 * 1600;
#X msg 55 48 1;
#X obj 55 24 loadbang;
#X obj 112 229 fexpr~ $x1 - $x1[-1];
#X obj 95 374 *~ 0.3;
#X obj 95 398 outlet~;
#X obj 129 43 inlet rate;
#X obj 153 93 inlet depth;
#X text 153 119 exponential -563 ~ +563;
#X text 183 173 exponential +236 ~ +1363;
#X text 229 73 900 -> 600;
#X text 193 153 exponential +336 ~ +1463;
#X text 193 193 exponential +36 ~ +1163;
#X floatatom 261 29 5 0 0 0 - - - 0;
#X connect 0 0 2 0;
#X connect 1 0 0 0;
#X connect 1 0 14 0;
#X connect 2 0 15 0;
#X connect 3 0 2 1;
#X connect 4 0 8 0;
#X connect 5 0 10 0;
#X connect 6 0 3 0;
#X connect 6 0 3 1;
#X connect 7 0 6 0;
#X connect 8 0 11 0;
#X connect 9 0 7 0;
#X connect 10 0 1 0;
#X connect 11 0 5 0;
#X connect 12 0 4 0;
#X connect 13 0 12 0;
#X connect 14 0 9 0;
#X connect 15 0 16 0;
#X connect 17 0 4 1;
#X connect 17 0 24 0;
#X connect 18 0 5 1;
#X restore 779 408 pd waterflow;
#X obj 811 546 *~;
#X obj 828 523 lop~ 0.5;
#X obj 828 500 sig~;
#X obj 908 312 line;
#X msg 908 255 1 300;
#X msg 931 279 0 1200;
#N canvas 46 59 394 536 bubblefactory 0;
#N canvas 332 25 570 560 bubble 0;
#X obj 60 405 osc~;
#X obj 60 444 *~;
#X obj 30 61 inlet;
#X obj 60 469 outlet~;
#N canvas 231 126 309 251 env4pow 0;
#X obj 73 69 vline~;
#X obj 72 95 *~;
#X obj 72 120 *~;
#X obj 24 157 -~;
#X obj 24 181 outlet~;
#X msg 73 42 1 0 0 \, 0 \$1 0;
#X obj 73 18 inlet;
#X obj 23 119 sig~ 1;
#X obj 82 181 outlet~;
#X connect 0 0 1 0;
#X connect 0 0 1 1;
#X connect 1 0 2 0;
#X connect 1 0 2 1;
#X connect 2 0 3 1;
#X connect 2 0 8 0;
#X connect 3 0 4 0;
#X connect 5 0 0 0;
#X connect 6 0 5 0;
#X connect 7 0 3 0;
#X restore 60 325 pd env4pow;
#X obj 30 83 unpack f f;
#X obj 125 347 *~;
#X obj 30 146 spigot;
#X obj 67 123 != 0;
#X obj 30 240 swap 1;
#X obj 124 369 lop~ 120;
#X obj 30 263 /;
#X obj 30 189 + 0.4;
#X obj 124 395 *~;
#X obj 186 325 swap 1;
#X obj 186 348 -;
#X obj 30 168 t f f f;
#X obj 186 369 + 0.1;
#X obj 141 179 / 3;
#X obj 141 199 + 0.6;
#X obj 60 370 +~;
#X obj 60 347 *~ 2000;
#X obj 306 88 inlet base;
#X obj 306 138 * 2;
#X obj 76 274 *;
#X obj 76 296 +;
#X obj 306 113 * 800;
#X obj 225 128 swap 1;
#X obj 226 153 -;
#X obj 29 287 *;
#X obj 224 177 * 80;
#X connect 0 0 1 0;
#X connect 1 0 3 0;
#X connect 2 0 5 0;
#X connect 4 0 21 0;
#X connect 4 1 6 0;
#X connect 5 0 7 0;
#X connect 5 1 8 0;
#X connect 5 1 18 0;
#X connect 6 0 10 0;
#X connect 7 0 16 0;
#X connect 8 0 7 1;
#X connect 9 0 11 0;
#X connect 9 1 11 1;
#X connect 10 0 13 0;
#X connect 11 0 29 0;
#X connect 12 0 9 0;
#X connect 13 0 1 1;
#X connect 14 0 15 0;
#X connect 14 1 15 1;
#X connect 15 0 17 0;
#X connect 16 0 12 0;
#X connect 16 1 24 0;
#X connect 16 2 14 0;
#X connect 17 0 13 1;
#X connect 18 0 19 0;
#X connect 19 0 6 1;
#X connect 20 0 0 0;
#X connect 21 0 20 0;
#X connect 22 0 26 0;
#X connect 22 0 27 0;
#X connect 23 0 24 1;
#X connect 24 0 25 0;
#X connect 25 0 20 1;
#X connect 26 0 23 0;
#X connect 26 0 25 1;
#X connect 27 0 28 0;
#X connect 27 1 28 0;
#X connect 28 0 30 0;
#X connect 29 0 4 0;
#X connect 30 0 29 1;
#X restore 28 375 pd bubble;
#X obj 114 134 random 1000;
#X obj 114 157 / 1000;
#X obj 28 325 pack f f f;
#X obj 28 197 pack f f;
#X obj 28 284 poly 4 1;
#X obj 28 350 route 1 2 3 4;
#X obj 28 134 random 1000;
#X obj 28 157 / 1000;
#X obj 28 229 spigot;
#X obj 200 134 random 100;
#X obj 98 89 t b b b;
#N canvas 0 0 570 560 bubble 0;
#X obj 60 405 osc~;
#X obj 60 444 *~;
#X obj 30 61 inlet;
#X obj 60 469 outlet~;
#N canvas 0 0 450 300 env4pow 0;
#X obj 210 157 vline~;
#X obj 209 183 *~;
#X obj 209 208 *~;
#X obj 161 245 -~;
#X obj 161 269 outlet~;
#X msg 210 130 1 0 0 \, 0 \$1 0;
#X obj 210 106 inlet;
#X obj 160 207 sig~ 1;
#X obj 219 269 outlet~;
#X connect 0 0 1 0;
#X connect 0 0 1 1;
#X connect 1 0 2 0;
#X connect 1 0 2 1;
#X connect 2 0 3 1;
#X connect 2 0 8 0;
#X connect 3 0 4 0;
#X connect 5 0 0 0;
#X connect 6 0 5 0;
#X connect 7 0 3 0;
#X restore 60 325 pd env4pow;
#X obj 30 83 unpack f f;
#X obj 125 347 *~;
#X obj 30 146 spigot;
#X obj 67 123 != 0;
#X obj 30 240 swap 1;
#X obj 124 369 lop~ 120;
#X obj 30 263 /;
#X obj 30 189 + 0.4;
#X obj 124 395 *~;
#X obj 186 325 swap 1;
#X obj 186 348 -;
#X obj 30 168 t f f f;
#X obj 186 369 + 0.1;
#X obj 141 179 / 3;
#X obj 141 199 + 0.6;
#X obj 60 370 +~;
#X obj 60 347 *~ 2000;
#X obj 306 88 inlet base;
#X obj 306 138 * 2;
#X obj 76 274 *;
#X obj 76 296 +;
#X obj 306 113 * 800;
#X obj 225 128 swap 1;
#X obj 226 153 -;
#X obj 29 287 *;
#X obj 224 177 * 80;
#X connect 0 0 1 0;
#X connect 1 0 3 0;
#X connect 2 0 5 0;
#X connect 4 0 21 0;
#X connect 4 1 6 0;
#X connect 5 0 7 0;
#X connect 5 1 8 0;
#X connect 5 1 18 0;
#X connect 6 0 10 0;
#X connect 7 0 16 0;
#X connect 8 0 7 1;
#X connect 9 0 11 0;
#X connect 9 1 11 1;
#X connect 10 0 13 0;
#X connect 11 0 29 0;
#X connect 12 0 9 0;
#X connect 13 0 1 1;
#X connect 14 0 15 0;
#X connect 14 1 15 1;
#X connect 15 0 17 0;
#X connect 16 0 12 0;
#X connect 16 1 24 0;
#X connect 16 2 14 0;
#X connect 17 0 13 1;
#X connect 18 0 19 0;
#X connect 19 0 6 1;
#X connect 20 0 0 0;
#X connect 21 0 20 0;
#X connect 22 0 26 0;
#X connect 22 0 27 0;
#X connect 23 0 24 1;
#X connect 24 0 25 0;
#X connect 25 0 20 1;
#X connect 26 0 23 0;
#X connect 26 0 25 1;
#X connect 27 0 28 0;
#X connect 27 1 28 0;
#X connect 28 0 30 0;
#X connect 29 0 4 0;
#X connect 30 0 29 1;
#X restore 38 399 pd bubble;
#N canvas -8 55 563 560 bubble 0;
#X obj 60 405 osc~;
#X obj 60 444 *~;
#X obj 30 61 inlet;
#X obj 60 469 outlet~;
#N canvas 0 0 450 300 env4pow 0;
#X obj 210 157 vline~;
#X obj 209 183 *~;
#X obj 209 208 *~;
#X obj 161 245 -~;
#X obj 161 269 outlet~;
#X msg 210 130 1 0 0 \, 0 \$1 0;
#X obj 210 106 inlet;
#X obj 160 207 sig~ 1;
#X obj 219 269 outlet~;
#X connect 0 0 1 0;
#X connect 0 0 1 1;
#X connect 1 0 2 0;
#X connect 1 0 2 1;
#X connect 2 0 3 1;
#X connect 2 0 8 0;
#X connect 3 0 4 0;
#X connect 5 0 0 0;
#X connect 6 0 5 0;
#X connect 7 0 3 0;
#X restore 60 325 pd env4pow;
#X obj 30 83 unpack f f;
#X obj 125 347 *~;
#X obj 30 146 spigot;
#X obj 67 123 != 0;
#X obj 30 240 swap 1;
#X obj 124 369 lop~ 120;
#X obj 30 263 /;
#X obj 30 189 + 0.4;
#X obj 124 395 *~;
#X obj 186 325 swap 1;
#X obj 186 348 -;
#X obj 30 168 t f f f;
#X obj 186 369 + 0.1;
#X obj 141 179 / 3;
#X obj 141 199 + 0.6;
#X obj 60 370 +~;
#X obj 60 347 *~ 2000;
#X obj 306 88 inlet base;
#X obj 306 138 * 2;
#X obj 76 274 *;
#X obj 76 296 +;
#X obj 306 113 * 800;
#X obj 225 128 swap 1;
#X obj 225 152 -;
#X obj 29 287 *;
#X obj 225 182 * 80;
#X connect 0 0 1 0;
#X connect 1 0 3 0;
#X connect 2 0 5 0;
#X connect 4 0 21 0;
#X connect 4 1 6 0;
#X connect 5 0 7 0;
#X connect 5 1 8 0;
#X connect 5 1 18 0;
#X connect 6 0 10 0;
#X connect 7 0 16 0;
#X connect 8 0 7 1;
#X connect 9 0 11 0;
#X connect 9 1 11 1;
#X connect 10 0 13 0;
#X connect 11 0 29 0;
#X connect 12 0 9 0;
#X connect 13 0 1 1;
#X connect 14 0 15 0;
#X connect 14 1 15 1;
#X connect 15 0 17 0;
#X connect 16 0 12 0;
#X connect 16 1 24 0;
#X connect 16 2 14 0;
#X connect 17 0 13 1;
#X connect 18 0 19 0;
#X connect 19 0 6 1;
#X connect 20 0 0 0;
#X connect 21 0 20 0;
#X connect 22 0 26 0;
#X connect 22 0 27 0;
#X connect 23 0 24 1;
#X connect 24 0 25 0;
#X connect 25 0 20 1;
#X connect 26 0 23 0;
#X connect 26 0 25 1;
#X connect 27 0 28 0;
#X connect 27 1 28 1;
#X connect 28 0 30 0;
#X connect 29 0 4 0;
#X connect 30 0 29 1;
#X restore 48 423 pd bubble;
#N canvas 0 25 570 560 bubble 0;
#X obj 60 405 osc~;
#X obj 60 444 *~;
#X obj 30 61 inlet;
#X obj 60 469 outlet~;
#N canvas 0 25 450 300 env4pow 0;
#X obj 210 157 vline~;
#X obj 209 183 *~;
#X obj 209 208 *~;
#X obj 161 245 -~;
#X obj 161 269 outlet~;
#X msg 210 130 1 0 0 \, 0 \$1 0;
#X obj 210 106 inlet;
#X obj 160 207 sig~ 1;
#X obj 219 269 outlet~;
#X connect 0 0 1 0;
#X connect 0 0 1 1;
#X connect 1 0 2 0;
#X connect 1 0 2 1;
#X connect 2 0 3 1;
#X connect 2 0 8 0;
#X connect 3 0 4 0;
#X connect 5 0 0 0;
#X connect 6 0 5 0;
#X connect 7 0 3 0;
#X restore 60 325 pd env4pow;
#X obj 30 83 unpack f f;
#X obj 125 347 *~;
#X obj 30 146 spigot;
#X obj 67 123 != 0;
#X obj 30 240 swap 1;
#X obj 124 369 lop~ 120;
#X obj 30 263 /;
#X obj 30 189 + 0.4;
#X obj 124 395 *~;
#X obj 186 325 swap 1;
#X obj 186 348 -;
#X obj 30 168 t f f f;
#X obj 186 369 + 0.1;
#X obj 141 179 / 3;
#X obj 141 199 + 0.6;
#X obj 60 370 +~;
#X obj 60 347 *~ 2000;
#X obj 306 88 inlet base;
#X obj 306 138 * 2;
#X obj 76 274 *;
#X obj 76 296 +;
#X obj 306 113 * 800;
#X obj 225 128 swap 1;
#X obj 226 153 -;
#X obj 29 287 *;
#X obj 224 177 * 80;
#X connect 0 0 1 0;
#X connect 1 0 3 0;
#X connect 2 0 5 0;
#X connect 4 0 21 0;
#X connect 4 1 6 0;
#X connect 5 0 7 0;
#X connect 5 1 8 0;
#X connect 5 1 18 0;
#X connect 6 0 10 0;
#X connect 7 0 16 0;
#X connect 8 0 7 1;
#X connect 9 0 11 0;
#X connect 9 1 11 1;
#X connect 10 0 13 0;
#X connect 11 0 29 0;
#X connect 12 0 9 0;
#X connect 13 0 1 1;
#X connect 14 0 15 0;
#X connect 14 1 15 1;
#X connect 15 0 17 0;
#X connect 16 0 12 0;
#X connect 16 1 24 0;
#X connect 16 2 14 0;
#X connect 17 0 13 1;
#X connect 18 0 19 0;
#X connect 19 0 6 1;
#X connect 20 0 0 0;
#X connect 21 0 20 0;
#X connect 22 0 26 0;
#X connect 22 0 27 0;
#X connect 23 0 24 1;
#X connect 24 0 25 0;
#X connect 25 0 20 1;
#X connect 26 0 23 0;
#X connect 26 0 25 1;
#X connect 27 0 28 0;
#X connect 27 1 28 0;
#X connect 28 0 30 0;
#X connect 29 0 4 0;
#X connect 30 0 29 1;
#X restore 58 447 pd bubble;
#X obj 29 490 outlet~;
#X obj 98 60 t b b, f 21;
#X obj 242 374 random 10000;
#X obj 242 398 / 10000;
#X text 252 344 random [0 - 1);
#X obj 200 158 > 0;
#X obj 30 75 bng 19 250 50 0 empty empty empty 0 -10 0 12 #fcfcfc #000000 #000000;
#X obj 98 12 inlet;
#X connect 0 0 15 0;
#X connect 1 0 2 0;
#X connect 2 0 4 1;
#X connect 3 0 6 0;
#X connect 4 0 9 0;
#X connect 5 0 3 0;
#X connect 5 1 3 1;
#X connect 5 2 3 2;
#X connect 6 0 0 0;
#X connect 6 1 12 0;
#X connect 6 2 13 0;
#X connect 6 3 14 0;
#X connect 7 0 8 0;
#X connect 8 0 4 0;
#X connect 9 0 5 0;
#X connect 10 0 20 0;
#X connect 11 0 7 0;
#X connect 11 1 1 0;
#X connect 11 2 10 0;
#X connect 12 0 15 0;
#X connect 13 0 15 0;
#X connect 14 0 15 0;
#X connect 16 0 11 0;
#X connect 16 1 17 0;
#X connect 17 0 18 0;
#X connect 18 0 0 1;
#X connect 18 0 14 1;
#X connect 18 0 13 1;
#X connect 18 0 12 1;
#X connect 20 0 9 1;
#X connect 22 0 16 0;
#X connect 22 0 21 0;
#X restore 607 179 pd bubblefactory;
#N canvas 411 147 659 449 chord 0;
#X obj 73 155 -~ 0.5;
#X obj 73 209 clip~ -0.5 0.5;
#X obj 73 240 cos~;
#X obj 207 323 hip~ 5;
#X obj 207 386 outlet~;
#X obj 73 182 *~ 3;
#X obj 207 155 -~ 0.5;
#X obj 207 209 clip~ -0.5 0.5;
#X obj 207 240 cos~;
#X obj 207 182 *~ 3;
#X obj 342 158 -~ 0.5;
#X obj 342 212 clip~ -0.5 0.5;
#X obj 342 243 cos~;
#X obj 342 185 *~ 3;
#X obj 477 158 -~ 0.5;
#X obj 477 212 clip~ -0.5 0.5;
#X obj 477 243 cos~;
#X obj 477 185 *~ 3;
#X text 236 44 test sound for phaser;
#X obj 207 356 *~ 0.2;
#X floatatom 112 26 5 0 0 0 - - - 0;
#X obj 179 80 * 1.14;
#X obj 304 84 * 1.27;
#X obj 448 86 * 1.41;
#X obj 56 21 inlet;
#X obj 73 130 phasor~ 220;
#X obj 207 130 phasor~ 251;
#X obj 342 133 phasor~ 281;
#X obj 477 133 phasor~ 311;
#X connect 0 0 5 0;
#X connect 1 0 2 0;
#X connect 2 0 3 0;
#X connect 3 0 19 0;
#X connect 5 0 1 0;
#X connect 6 0 9 0;
#X connect 7 0 8 0;
#X connect 8 0 3 0;
#X connect 9 0 7 0;
#X connect 10 0 13 0;
#X connect 11 0 12 0;
#X connect 12 0 3 0;
#X connect 13 0 11 0;
#X connect 14 0 17 0;
#X connect 15 0 16 0;
#X connect 16 0 3 0;
#X connect 17 0 15 0;
#X connect 19 0 4 0;
#X connect 20 0 21 0;
#X connect 20 0 22 0;
#X connect 20 0 23 0;
#X connect 20 0 25 0;
#X connect 21 0 26 0;
#X connect 22 0 27 0;
#X connect 23 0 28 0;
#X connect 24 0 20 0;
#X connect 25 0 0 0;
#X connect 26 0 6 0;
#X connect 27 0 10 0;
#X connect 28 0 14 0;
#X restore 110 350 pd chord;
#X obj 127 414 rpole~;
#X obj 127 389 rzero_rev~;
#X obj 127 463 rpole~;
#X obj 127 438 rzero_rev~;
#X obj 127 511 rpole~;
#X obj 127 486 rzero_rev~;
#X obj 127 560 rpole~;
#X obj 127 535 rzero_rev~;
#X obj 109 590 +~;
#X obj 293 409 phasor~ 0.3;
#X obj 293 441 expr~ 1 - 0.03 - 0.6*abs($v1-0.5)*abs($v1-0.5), f 17;
#X obj 110 326 pipe 500;
#X obj 109 614 *~;
#X obj 109 638 dac~;
#X obj 34 480 vline~;
#X obj 34 431 * 0.1;
#X obj 110 209 receive posY;
#X floatatom 110 234 5 0 0 1 posY - - 0;
#X text 189 236 12.21 - 17+;
#X obj 811 606 dac~;
#X msg 34 456 \$1 500;
#X obj 34 402 tgl 19 0 empty empty empty 0 -10 0 12 #fcfcfc #000000 #000000 0 1;
#X floatatom 110 297 5 0 0 0 - - - 0;
#X text 2095 631 |||||||||||;
#X floatatom 1127 485 5 0 0 0 - - - 0;
#X floatatom 1257 447 5 0 0 0 - - - 0;
#N canvas 632 44 452 430 waterflow 0;
#X obj 55 242 osc~;
#X obj 55 192 line~;
#X obj 95 350 *~;
#X obj 112 326 *~;
#X obj 55 72 metro 6;
#X obj 55 144 + 800;
#X obj 112 301 *~ 0.9;
#X obj 112 277 lop~ 10;
#N canvas 555 196 378 370 bilexp 0;
#X obj 55 197 expr exp($f1);
#X obj 55 69 random 8192;
#X obj 55 157 * 9;
#X obj 55 133 / 4096;
#X obj 123 108 > 4096;
#X obj 123 132 sel 0 1, f 11;
#X msg 123 156 -1;
#X msg 160 156 1;
#X obj 55 230 *;
#X obj 55 254 / 23000;
#X obj 55 45 t b;
#X obj 55 21 inlet;
#X obj 55 278 outlet;
#X obj 55 109 mod 4096;
#X text 55 306 exponential -8103/23000 ~ +8103/23000;
#X text 53 320 == exponential -0.352 ~ +0.352;
#X connect 0 0 8 0;
#X connect 1 0 4 0;
#X connect 1 0 13 0;
#X connect 2 0 0 0;
#X connect 3 0 2 0;
#X connect 4 0 5 0;
#X connect 5 0 6 0;
#X connect 5 1 7 0;
#X connect 6 0 8 1;
#X connect 7 0 8 1;
#X connect 8 0 9 0;
#X connect 9 0 12 0;
#X connect 10 0 1 0;
#X connect 11 0 10 0;
#X connect 13 0 3 0;
#X restore 55 96 pd bilexp;
#X obj 112 253 clip~ 0 1;
#X obj 55 168 pack 1 2.689;
#X obj 55 120 * 1600;
#X msg 55 48 1;
#X obj 55 24 loadbang;
#X obj 112 229 fexpr~ $x1 - $x1[-1];
#X obj 95 374 *~ 0.3;
#X obj 95 398 outlet~;
#X obj 129 43 inlet rate;
#X obj 153 93 inlet depth;
#X text 153 119 exponential -563 ~ +563;
#X text 183 173 exponential +236 ~ +1363;
#X text 229 73 900 -> 600;
#X text 193 153 exponential +336 ~ +1463;
#X text 193 193 exponential +36 ~ +1163;
#X floatatom 261 29 5 0 0 0 - - - 0;
#X connect 0 0 2 0;
#X connect 1 0 0 0;
#X connect 1 0 14 0;
#X connect 2 0 15 0;
#X connect 3 0 2 1;
#X connect 4 0 8 0;
#X connect 5 0 10 0;
#X connect 6 0 3 0;
#X connect 6 0 3 1;
#X connect 7 0 6 0;
#X connect 8 0 11 0;
#X connect 9 0 7 0;
#X connect 10 0 1 0;
#X connect 11 0 5 0;
#X connect 12 0 4 0;
#X connect 13 0 12 0;
#X connect 14 0 9 0;
#X connect 15 0 16 0;
#X connect 17 0 4 1;
#X connect 17 0 24 0;
#X connect 18 0 5 1;
#X restore 810 432 pd waterflow;
#X obj 774 175 f;
#X obj 814 175 == 0;
#X obj 774 199 tgl 19 0 empty empty empty 0 -10 0 12 #fcfcfc #000000 #000000 0 1;
#X obj 774 223 sel 1 0;
#X floatatom 803 349 5 0 0 0 - - - 0;
#X obj 931 215 del 1000;
#X obj 774 142 t b b;
#X obj 908 161 t b b b;
#X msg 954 185 stop;
#X text 978 158 a timeout ..;
#X obj 607 203 *~ 0.03;
#X floatatom 919 370 5 0 0 0 - - - 0;
#X obj 1220 256 random 10000;
#X obj 1220 280 / 10000;
#X msg 1220 304 \$1 1000;
#X obj 1220 213 bng 19 250 50 0 empty empty empty 0 -10 0 12 #fcfcfc #000000 #000000;
#X obj 1917 341 line;
#X msg 1917 259 0 \, 1 9000;
#X obj 1917 389 swap 1;
#X obj 1917 413 -;
#X obj 1917 437 * 300;
#X obj 1917 461 + 600;
#X obj 1917 365 trigger float float;
#X obj 2047 423 + 100;
#X obj 2047 399 * 2000;
#X obj 1569 276 line;
#X msg 1601 250 1 800;
#X msg 1537 250 0 800;
#X obj 1569 324 + 4;
#N canvas 235 30 358 287 openpipe 0;
#X obj 197 77 * 3;
#X obj 231 77 * 5;
#X obj 265 77 * 7;
#X obj 163 77 * 1;
#X obj 73 46 inlet~;
#X obj 93 237 outlet~;
#X obj 163 29 inlet length;
#X obj 93 122 bp~ 1 30;
#X obj 113 146 bp~ 1 30;
#X obj 133 170 bp~ 1 30;
#X obj 153 194 bp~ 1 30;
#X obj 163 53 trigger f f f f;
#X connect 0 0 8 1;
#X connect 1 0 9 1;
#X connect 2 0 10 1;
#X connect 3 0 7 1;
#X connect 4 0 7 0;
#X connect 4 0 8 0;
#X connect 4 0 9 0;
#X connect 4 0 10 0;
#X connect 6 0 11 0;
#X connect 7 0 5 0;
#X connect 8 0 5 0;
#X connect 9 0 5 0;
#X connect 10 0 5 0;
#X connect 11 0 3 0;
#X connect 11 1 0 0;
#X connect 11 2 1 0;
#X connect 11 3 2 0;
#X restore 1600 459 pd openpipe;
#N canvas 632 44 452 430 waterflow 0;
#X obj 55 242 osc~;
#X obj 55 192 line~;
#X obj 95 350 *~;
#X obj 112 326 *~;
#X obj 55 72 metro 6;
#X obj 55 144 + 800;
#X obj 112 301 *~ 0.9;
#X obj 112 277 lop~ 10;
#N canvas 509 84 378 370 bilexp 0;
#X obj 55 197 expr exp($f1);
#X obj 55 69 random 8192;
#X obj 55 157 * 9;
#X obj 55 133 / 4096;
#X obj 123 108 > 4096;
#X obj 123 132 sel 0 1, f 11;
#X msg 123 156 -1;
#X msg 160 156 1;
#X obj 55 230 *;
#X obj 55 254 / 23000;
#X obj 55 45 t b;
#X obj 55 21 inlet;
#X obj 55 278 outlet;
#X obj 55 109 mod 4096;
#X text 55 306 exponential -8103/23000 ~ +8103/23000;
#X text 53 320 == exponential -0.352 ~ +0.352;
#X connect 0 0 8 0;
#X connect 1 0 4 0;
#X connect 1 0 13 0;
#X connect 2 0 0 0;
#X connect 3 0 2 0;
#X connect 4 0 5 0;
#X connect 5 0 6 0;
#X connect 5 1 7 0;
#X connect 6 0 8 1;
#X connect 7 0 8 1;
#X connect 8 0 9 0;
#X connect 9 0 12 0;
#X connect 10 0 1 0;
#X connect 11 0 10 0;
#X connect 13 0 3 0;
#X restore 55 96 pd bilexp;
#X obj 112 253 clip~ 0 1;
#X obj 55 168 pack 1 2.689;
#X obj 55 120 * 1600;
#X msg 55 48 1;
#X obj 55 24 loadbang;
#X obj 112 229 fexpr~ $x1 - $x1[-1];
#X obj 95 374 *~ 0.3;
#X obj 95 398 outlet~;
#X obj 129 43 inlet rate;
#X obj 153 93 inlet depth;
#X text 153 119 exponential -563 ~ +563;
#X text 183 173 exponential +236 ~ +1363;
#X text 229 73 900 -> 600;
#X text 193 153 exponential +336 ~ +1463;
#X text 193 193 exponential +36 ~ +1163;
#X floatatom 261 29 5 0 0 0 - - - 0;
#X connect 0 0 2 0;
#X connect 1 0 0 0;
#X connect 1 0 14 0;
#X connect 2 0 15 0;
#X connect 3 0 2 1;
#X connect 4 0 8 0;
#X connect 5 0 10 0;
#X connect 6 0 3 0;
#X connect 6 0 3 1;
#X connect 7 0 6 0;
#X connect 8 0 11 0;
#X connect 9 0 7 0;
#X connect 10 0 1 0;
#X connect 11 0 5 0;
#X connect 12 0 4 0;
#X connect 13 0 12 0;
#X connect 14 0 9 0;
#X connect 15 0 16 0;
#X connect 17 0 4 1;
#X connect 17 0 24 0;
#X connect 18 0 5 1;
#X restore 1569 408 pd waterflow;
#X obj 1601 546 *~;
#X obj 1618 523 lop~ 0.5;
#X obj 1618 500 sig~;
#X obj 1748 312 line;
#X msg 1748 255 1 300;
#X msg 1771 279 0 1200;
#X floatatom 1917 485 5 0 0 0 - - - 0;
#X floatatom 2047 447 5 0 0 0 - - - 0;
#N canvas 632 44 452 430 waterflow 0;
#X obj 55 242 osc~;
#X obj 55 192 line~;
#X obj 95 350 *~;
#X obj 112 326 *~;
#X obj 55 72 metro 6;
#X obj 55 144 + 800;
#X obj 112 301 *~ 0.9;
#X obj 112 277 lop~ 10;
#N canvas 555 196 378 370 bilexp 0;
#X obj 55 197 expr exp($f1);
#X obj 55 69 random 8192;
#X obj 55 157 * 9;
#X obj 55 133 / 4096;
#X obj 123 108 > 4096;
#X obj 123 132 sel 0 1, f 11;
#X msg 123 156 -1;
#X msg 160 156 1;
#X obj 55 230 *;
#X obj 55 254 / 23000;
#X obj 55 45 t b;
#X obj 55 21 inlet;
#X obj 55 278 outlet;
#X obj 55 109 mod 4096;
#X text 55 306 exponential -8103/23000 ~ +8103/23000;
#X text 53 320 == exponential -0.352 ~ +0.352;
#X connect 0 0 8 0;
#X connect 1 0 4 0;
#X connect 1 0 13 0;
#X connect 2 0 0 0;
#X connect 3 0 2 0;
#X connect 4 0 5 0;
#X connect 5 0 6 0;
#X connect 5 1 7 0;
#X connect 6 0 8 1;
#X connect 7 0 8 1;
#X connect 8 0 9 0;
#X connect 9 0 12 0;
#X connect 10 0 1 0;
#X connect 11 0 10 0;
#X connect 13 0 3 0;
#X restore 55 96 pd bilexp;
#X obj 112 253 clip~ 0 1;
#X obj 55 168 pack 1 2.689;
#X obj 55 120 * 1600;
#X msg 55 48 1;
#X obj 55 24 loadbang;
#X obj 112 229 fexpr~ $x1 - $x1[-1];
#X obj 95 374 *~ 0.3;
#X obj 95 398 outlet~;
#X obj 129 43 inlet rate;
#X obj 153 93 inlet depth;
#X text 153 119 exponential -563 ~ +563;
#X text 183 173 exponential +236 ~ +1363;
#X text 229 73 900 -> 600;
#X text 193 153 exponential +336 ~ +1463;
#X text 193 193 exponential +36 ~ +1163;
#X floatatom 261 29 5 0 0 0 - - - 0;
#X connect 0 0 2 0;
#X connect 1 0 0 0;
#X connect 1 0 14 0;
#X connect 2 0 15 0;
#X connect 3 0 2 1;
#X connect 4 0 8 0;
#X connect 5 0 10 0;
#X connect 6 0 3 0;
#X connect 6 0 3 1;
#X connect 7 0 6 0;
#X connect 8 0 11 0;
#X connect 9 0 7 0;
#X connect 10 0 1 0;
#X connect 11 0 5 0;
#X connect 12 0 4 0;
#X connect 13 0 12 0;
#X connect 14 0 9 0;
#X connect 15 0 16 0;
#X connect 17 0 4 1;
#X connect 17 0 24 0;
#X connect 18 0 5 1;
#X restore 1600 432 pd waterflow;
#X obj 1564 175 f;
#X obj 1604 175 == 0;
#X obj 1564 199 tgl 19 0 empty empty empty 0 -10 0 12 #fcfcfc #000000 #000000 0 1;
#X obj 1564 223 sel 1 0;
#X floatatom 1614 331 5 0 0 0 - - - 0;
#X obj 1771 215 del 1000;
#X obj 1564 142 t b b;
#X obj 1748 161 t b b b;
#X msg 1794 185 stop;
#X text 1761 130 a timeout ..;
#X floatatom 1759 370 5 0 0 0 - - - 0;
#X obj 2010 256 random 10000;
#X obj 2010 280 / 10000;
#X msg 2010 304 \$1 1000;
#X obj 2010 233 bng 19 250 50 0 empty empty empty 0 -10 0 12 #fcfcfc #000000 #000000;
#X obj 1363 128 t b b;
#X obj 1363 204 del;
#X obj 1395 152 random 800;
#X obj 110 263 expr ($f1-12.2)/4.8*104 + 54;
#X obj 1363 228 t b b;
#X obj 1395 176 + 200;
#X floatatom 1395 200 5 0 0 0 - - - 0;
#X obj 1569 300 * 24;
#X msg 1425 410 1;
#X obj 1614 376 spigot;
#X msg 1425 338 0;
#X obj 1425 362 pipe 5000;
#X obj 1425 386 bng 19 250 50 0 empty empty empty 0 -10 0 12 #fcfcfc #000000 #000000;
#X obj 1653 353 tgl 19 0 empty empty empty 0 -10 0 12 #fcfcfc #000000 #000000 0 1;
#X obj 1748 342 * 0;
#X text 1368 436 to remove BIG pop noise \, hard to understand but giving enough warm-up time helps, f 24;
#X text 1280 57 Hey! Watch out. [delay] is NOT [pipe]. so un-fired bang will just vanish!, f 74;
#X text 1303 83 however \, this sounds good! it gives us some random streams!;
#X obj 779 300 * 2;
#X text 811 298 <== **;
#X text 1610 301 <== **;
#X obj 774 109 r triggerFluid;
#X obj 607 134 r triggerFluid;
#X msg 635 410 1;
#X obj 823 376 spigot;
#X msg 635 338 0;
#X obj 635 386 bng 19 250 50 0 empty empty empty 0 -10 0 12 #fcfcfc #000000 #000000;
#X obj 862 353 tgl 19 0 empty empty empty 0 -10 0 12 #fcfcfc #000000 #000000 0 1;
#X text 578 436 to remove BIG pop noise \, hard to understand but giving enough warm-up time helps, f 24;
#X obj 908 342 * 0;
#X obj 635 362 pipe 500;
#X obj 34 29 inlet;
#X obj 34 53 tgl 19 0 empty empty empty 0 -10 0 12 #fcfcfc #000000 #000000 0 1;
#X obj 958 585 vline~;
#X msg 958 561 \$1 500;
#X obj 958 507 tgl 19 0 empty empty empty 0 -10 0 12 #fcfcfc #000000 #000000 0 1;
#X obj 811 576 *~;
#X obj 1738 607 vline~;
#X msg 1738 583 \$1 500;
#X obj 1738 529 tgl 19 0 empty empty empty 0 -10 0 12 #fcfcfc #000000 #000000 0 1;
#X obj 1601 570 *~;
#X obj 1601 594 dac~;
#X obj 958 536 * 1;
#X obj 1738 558 * 1;
#X obj 370 22 r~ playeraudio;
#X obj 370 46 expr~ if(abs($v1) < 1e-05 \, 0 \, $v1);
#X obj 370 70 fexpr~ $x1[0] != 0 && $x1[-1] == 0;
#X obj 274 48 sel 1 0;
#X obj 274 171 s triggerFluid;
#X msg 274 71 1;
#X msg 324 71 0;
#X obj 274 147 spigot;
#X obj 313 124 tgl 19 0 empty empty empty 0 -10 0 12 #fcfcfc #000000 #000000 0 1;
#X obj 274 95 t b f;
#X obj 370 94 threshold~ 0.5 25 0.5 25;
#X connect 0 0 6 0;
#X connect 1 0 0 0;
#X connect 2 0 3 0;
#X connect 2 1 3 1;
#X connect 3 0 4 0;
#X connect 4 0 5 0;
#X connect 5 0 47 0;
#X connect 5 0 14 1;
#X connect 5 0 49 1;
#X connect 6 0 2 0;
#X connect 6 1 8 0;
#X connect 7 0 48 0;
#X connect 7 0 13 1;
#X connect 8 0 7 0;
#X connect 9 0 123 0;
#X connect 10 0 9 0;
#X connect 11 0 9 0;
#X connect 12 0 14 0;
#X connect 12 0 49 0;
#X connect 12 0 54 0;
#X connect 13 0 15 0;
#X connect 14 0 13 0;
#X connect 15 0 141 0;
#X connect 16 0 15 1;
#X connect 17 0 16 0;
#X connect 18 0 134 0;
#X connect 19 0 18 0;
#X connect 20 0 18 0;
#X connect 21 0 60 0;
#X connect 22 0 24 0;
#X connect 22 0 31 0;
#X connect 23 0 26 0;
#X connect 24 0 23 0;
#X connect 25 0 28 0;
#X connect 26 0 25 0;
#X connect 27 0 30 0;
#X connect 28 0 27 0;
#X connect 29 0 31 1;
#X connect 30 0 29 0;
#X connect 31 0 35 0;
#X connect 32 0 33 0;
#X connect 33 0 24 1;
#X connect 33 0 23 1;
#X connect 33 0 26 1;
#X connect 33 0 25 1;
#X connect 33 0 28 1;
#X connect 33 0 27 1;
#X connect 33 0 30 1;
#X connect 33 0 29 1;
#X connect 34 0 22 0;
#X connect 35 0 36 0;
#X connect 35 0 36 1;
#X connect 37 0 35 1;
#X connect 38 0 43 0;
#X connect 39 0 40 0;
#X connect 40 0 108 0;
#X connect 43 0 37 0;
#X connect 44 0 38 0;
#X connect 45 0 34 0;
#X connect 49 0 13 0;
#X connect 50 0 51 0;
#X connect 50 0 52 0;
#X connect 51 0 50 1;
#X connect 52 0 53 0;
#X connect 53 0 11 0;
#X connect 53 0 65 0;
#X connect 53 1 10 0;
#X connect 54 0 129 0;
#X connect 55 0 20 0;
#X connect 56 0 50 0;
#X connect 56 0 130 0;
#X connect 56 1 57 0;
#X connect 57 0 19 0;
#X connect 57 1 55 0;
#X connect 57 2 58 0;
#X connect 58 0 55 0;
#X connect 60 0 13 0;
#X connect 62 0 63 0;
#X connect 63 0 64 0;
#X connect 64 0 0 0;
#X connect 65 0 62 0;
#X connect 66 0 72 0;
#X connect 67 0 66 0;
#X connect 68 0 69 0;
#X connect 68 1 69 1;
#X connect 69 0 70 0;
#X connect 70 0 71 0;
#X connect 71 0 87 0;
#X connect 71 0 80 1;
#X connect 71 0 89 1;
#X connect 72 0 68 0;
#X connect 72 1 74 0;
#X connect 73 0 88 0;
#X connect 73 0 79 1;
#X connect 74 0 73 0;
#X connect 75 0 112 0;
#X connect 76 0 75 0;
#X connect 77 0 75 0;
#X connect 78 0 80 0;
#X connect 78 0 89 0;
#X connect 78 0 94 0;
#X connect 79 0 81 0;
#X connect 80 0 79 0;
#X connect 81 0 145 0;
#X connect 82 0 81 1;
#X connect 83 0 82 0;
#X connect 84 0 119 0;
#X connect 85 0 84 0;
#X connect 86 0 84 0;
#X connect 89 0 79 0;
#X connect 90 0 91 0;
#X connect 90 0 92 0;
#X connect 91 0 90 1;
#X connect 92 0 93 0;
#X connect 93 0 77 0;
#X connect 93 0 104 0;
#X connect 93 1 76 0;
#X connect 94 0 114 0;
#X connect 95 0 86 0;
#X connect 96 0 90 0;
#X connect 96 1 97 0;
#X connect 97 0 85 0;
#X connect 97 1 95 0;
#X connect 97 2 98 0;
#X connect 98 0 95 0;
#X connect 101 0 102 0;
#X connect 102 0 103 0;
#X connect 103 0 66 0;
#X connect 104 0 101 0;
#X connect 105 0 106 0;
#X connect 105 1 107 0;
#X connect 106 0 109 0;
#X connect 107 0 110 0;
#X connect 108 0 45 0;
#X connect 109 0 115 0;
#X connect 109 1 96 0;
#X connect 110 0 106 1;
#X connect 110 0 111 0;
#X connect 112 0 78 0;
#X connect 113 0 118 0;
#X connect 114 0 119 1;
#X connect 115 0 116 0;
#X connect 116 0 117 0;
#X connect 117 0 113 0;
#X connect 118 0 114 1;
#X connect 119 0 83 0;
#X connect 119 0 100 0;
#X connect 123 0 12 0;
#X connect 126 0 56 0;
#X connect 126 0 105 0;
#X connect 127 0 21 0;
#X connect 128 0 132 0;
#X connect 129 0 134 1;
#X connect 130 0 135 0;
#X connect 131 0 128 0;
#X connect 132 0 129 1;
#X connect 134 0 17 0;
#X connect 134 0 61 0;
#X connect 135 0 131 0;
#X connect 136 0 137 0;
#X connect 137 0 140 0;
#X connect 137 0 144 0;
#X connect 137 0 157 0;
#X connect 138 0 141 1;
#X connect 139 0 138 0;
#X connect 140 0 147 0;
#X connect 141 0 42 0;
#X connect 141 0 42 1;
#X connect 142 0 145 1;
#X connect 143 0 142 0;
#X connect 144 0 148 0;
#X connect 145 0 146 0;
#X connect 145 0 146 1;
#X connect 147 0 139 0;
#X connect 148 0 143 0;
#X connect 149 0 150 0;
#X connect 150 0 151 0;
#X connect 151 0 159 0;
#X connect 152 0 154 0;
#X connect 152 1 155 0;
#X connect 154 0 158 0;
#X connect 155 0 157 0;
#X connect 156 0 153 0;
#X connect 157 0 156 1;
#X connect 158 0 156 0;
#X connect 158 1 157 0;
#X connect 159 0 156 0;
#X restore 568 113 pd fluid*;
#N canvas 25 144 1366 695 speedarea* 0;
#X obj 212 377 inlet;
#X obj 53 212 samphold~;
#X floatatom 53 117 5 0 0 0 - - - 0;
#X floatatom 176 117 5 0 0 0 - - - 0;
#X obj 53 287 *~ 48;
#X obj 53 312 +~ 36;
#X msg 222 150 0;
#X msg 53 57 32 96.33;
#X obj 53 87 unpack float float;
#X obj 53 369 mtof~;
#X text 255 144 reset phase, f 5;
#X text 63 339 pitch from 36 to 84;
#X obj 53 147 phasor~;
#X obj 176 182 phasor~;
#X obj 53 33 loadbang;
#X obj 54 499 *~;
#X obj 53 410 osc~;
#X obj 53 450 vcf~;
#X obj 99 477 nbx 5 17 -1e+37 1e+37 0 1 empty empty empty 0 -10 0 12 #fcfcfc #000000 #000000 0.45 256;
#X obj 106 418 nbx 5 17 -1e+37 1e+37 0 1 empty empty empty 0 -10 0 12 #fcfcfc #000000 #000000 255 256;
#X obj 139 449 nbx 5 17 -1e+37 1e+37 0 0 empty empty empty 0 -10 0 12 #fcfcfc #000000 #000000 0 256;
#X obj 54 523 *~;
#X obj 187 247 receive posY;
#X floatatom 187 272 5 0 0 1 posY - - 0;
#X text 276 267 12.21 - 12.21;
#X obj 215 583 vline~;
#X obj 215 534 * 1;
#X obj 212 408 tgl 19 0 empty empty empty 0 -10 0 12 #fcfcfc #000000 #000000 0 1;
#X obj 299 372 nbx 5 17 -1e+37 1e+37 0 1 empty empty empty 0 -10 0 12 #fcfcfc #000000 #000000 0.5 256;
#X obj 299 394 osc~;
#X obj 299 418 snapshot~;
#X obj 288 312 loadbang;
#X obj 288 336 metro 100;
#X floatatom 299 442 5 0 0 0 - - - 0;
#X obj 242 329 bng 19 250 50 0 empty empty empty 0 -10 0 12 #fcfcfc #000000 #000000;
#X obj 299 465 * 30;
#X obj 299 489 + 60;
#X obj 335 20 tgl 19 0 empty empty empty 0 -10 0 12 #fcfcfc #000000 #000000 0 1;
#X obj 335 68 random 4;
#X obj 335 92 sel 0 1 2 3;
#X msg 335 116 96.33;
#X msg 353 140 95.92;
#X msg 372 164 95.33;
#X msg 390 188 96.93;
#X obj 229 28 loadbang;
#X obj 335 44 metro 5000;
#X obj 402 397 bng 19 250 50 0 empty empty empty 0 -10 0 12 #fcfcfc #000000 #000000;
#X obj 402 545 vline~;
#X obj 402 569 env~;
#X floatatom 402 593 5 0 0 0 - - - 0;
#X msg 402 518 0 10;
#X msg 430 477 1 10;
#X obj 402 373 r triggerspeedarea;
#X obj 430 453 del 100;
#X obj 54 547 *~;
#X obj 54 621 dac~;
#X msg 215 559 \$1 1000;
#X obj 919 176 samplerate~;
#X msg 919 200 1000 \$1;
#X obj 919 224 /;
#X obj 919 400 vline~;
#X obj 900 134 bng 19 250 50 0 empty empty empty 0 -10 0 12 #fcfcfc #000000 #000000;
#X obj 919 336 pack f f;
#X obj 919 264 t b a;
#X obj 919 312 / 100;
#X msg 919 376 \$1 \, 0 0 \$2;
#X obj 919 288 random 30;
#X text 869 177 dust;
#X obj 667 398 vcf~, f 12;
#X obj 700 482 nbx 8 17 1 10000 1 1 empty empty empty 0 -10 0 12 #fcfcfc #000000 #000000 1900 256;
#X obj 678 270 nbx 5 17 -1e+37 1e+37 0 1 empty empty empty 0 -10 0 12 #fcfcfc #000000 #000000 74 256;
#X obj 768 316 nbx 5 17 -1e+37 1e+37 0 1 empty empty empty 0 -10 0 12 #fcfcfc #000000 #000000 300 256;
#X obj 1042 456 osc~;
#X obj 1042 420 nbx 5 17 -1e+37 1e+37 0 1 empty empty empty 0 -10 0 12 #fcfcfc #000000 #000000 0.05 256;
#X obj 1042 480 snapshot~;
#X obj 1133 395 loadbang;
#X obj 1209 390 bng 19 250 50 0 empty empty empty 0 -10 0 12 #fcfcfc #000000 #000000;
#X floatatom 1042 504 5 0 0 0 - - - 0;
#X obj 1042 527 + 1;
#X floatatom 1042 551 5 0 0 0 - - - 0;
#X obj 1042 574 / 2;
#X obj 1042 598 swap 1;
#X obj 1042 622 -;
#X floatatom 1042 646 5 0 0 0 - - - 0;
#X floatatom 999 646 5 0 0 0 - - - 0;
#X obj 757 618 *~;
#X obj 822 619 *~;
#X obj 877 577 vline~;
#X obj 935 577 vline~;
#X msg 875 543 \$1 20;
#X msg 935 543 \$1 20;
#X obj 765 653 dac~;
#X obj 616 515 *~;
#X obj 1133 428 metro 30;
#X obj 607 574 env~;
#X obj 266 641 vline~;
#X obj 54 571 *~;
#X floatatom 607 598 5 0 0 0 - - - 0;
#X obj 507 496 dbtorms;
#X floatatom 507 520 5 0 0 0 - - - 0;
#X obj 507 573 swap 1;
#X obj 507 597 -;
#X floatatom 507 621 5 0 0 0 - - - 0;
#X obj 507 644 max 0;
#X obj 651 186 t b b;
#X obj 681 235 + 50;
#X floatatom 507 668 5 0 0 0 - - - 0;
#X obj 507 546 * 40;
#X obj 681 211 random 100;
#X msg 678 292 \$1 10;
#X obj 678 316 vline~;
#X obj 580 51 r~ playeraudio;
#X obj 580 75 expr~ if(abs($v1) < 1e-05 \, 0 \, $v1);
#X obj 580 99 fexpr~ $x1[0] != 0 && $x1[-1] == 0;
#X obj 484 77 sel 1 0;
#X msg 484 100 1;
#X msg 534 100 0;
#X obj 484 176 spigot;
#X obj 523 153 tgl 19 0 empty empty empty 0 -10 0 12 #fcfcfc #000000 #000000 0 1;
#X obj 484 124 t b f;
#X obj 484 200 s triggerspeedarea;
#X obj 580 123 threshold~ 0.5 100 0.5 100;
#X msg 266 616 \$1 35;
#X obj 574 304 noise~;
#X obj 574 328 lop~ 250;
#X obj 574 352 lop~ 250;
#X obj 574 376 lop~ 250;
#X obj 574 400 lop~ 250;
#X obj 299 513 + 120;
#X floatatom 299 537 5 0 0 0 - - - 0;
#X obj 574 446 *~ 35;
#X connect 0 0 27 0;
#X connect 1 0 4 0;
#X connect 2 0 12 0;
#X connect 3 0 13 0;
#X connect 4 0 5 0;
#X connect 5 0 9 0;
#X connect 6 0 13 1;
#X connect 6 0 12 1;
#X connect 7 0 8 0;
#X connect 8 0 2 0;
#X connect 8 1 3 0;
#X connect 9 0 16 0;
#X connect 12 0 1 0;
#X connect 13 0 1 1;
#X connect 14 0 7 0;
#X connect 15 0 21 0;
#X connect 16 0 17 0;
#X connect 17 0 15 0;
#X connect 18 0 15 1;
#X connect 19 0 17 1;
#X connect 20 0 17 2;
#X connect 21 0 54 0;
#X connect 22 0 23 0;
#X connect 25 0 54 1;
#X connect 26 0 56 0;
#X connect 27 0 26 0;
#X connect 27 0 118 0;
#X connect 28 0 29 0;
#X connect 29 0 30 0;
#X connect 30 0 33 0;
#X connect 31 0 32 0;
#X connect 32 0 30 0;
#X connect 33 0 35 0;
#X connect 34 0 32 0;
#X connect 35 0 36 0;
#X connect 36 0 20 0;
#X connect 36 0 128 0;
#X connect 37 0 45 0;
#X connect 38 0 39 0;
#X connect 39 0 40 0;
#X connect 39 1 41 0;
#X connect 39 2 42 0;
#X connect 39 3 43 0;
#X connect 40 0 3 0;
#X connect 41 0 3 0;
#X connect 42 0 3 0;
#X connect 43 0 3 0;
#X connect 44 0 37 0;
#X connect 45 0 38 0;
#X connect 46 0 53 0;
#X connect 46 0 104 0;
#X connect 46 0 50 0;
#X connect 47 0 21 1;
#X connect 47 0 48 0;
#X connect 48 0 49 0;
#X connect 50 0 47 0;
#X connect 51 0 47 0;
#X connect 52 0 46 0;
#X connect 53 0 51 0;
#X connect 54 0 96 0;
#X connect 56 0 25 0;
#X connect 57 0 58 0;
#X connect 58 0 59 0;
#X connect 59 0 63 0;
#X connect 60 0 68 0;
#X connect 61 0 57 0;
#X connect 62 0 65 0;
#X connect 63 0 66 0;
#X connect 63 1 62 1;
#X connect 64 0 62 0;
#X connect 65 0 60 0;
#X connect 66 0 64 0;
#X connect 68 0 92 0;
#X connect 69 0 92 1;
#X connect 70 0 109 0;
#X connect 71 0 68 2;
#X connect 72 0 74 0;
#X connect 73 0 72 0;
#X connect 74 0 77 0;
#X connect 75 0 93 0;
#X connect 76 0 93 0;
#X connect 77 0 78 0;
#X connect 78 0 79 0;
#X connect 79 0 80 0;
#X connect 80 0 81 0;
#X connect 80 0 84 0;
#X connect 81 0 82 0;
#X connect 81 1 82 1;
#X connect 82 0 83 0;
#X connect 83 0 90 0;
#X connect 84 0 89 0;
#X connect 85 0 91 0;
#X connect 86 0 91 1;
#X connect 87 0 85 1;
#X connect 88 0 86 1;
#X connect 89 0 87 0;
#X connect 90 0 88 0;
#X connect 92 0 94 0;
#X connect 92 0 85 0;
#X connect 92 0 86 0;
#X connect 93 0 74 0;
#X connect 94 0 97 0;
#X connect 95 0 96 1;
#X connect 96 0 55 0;
#X connect 96 0 55 1;
#X connect 97 0 98 0;
#X connect 98 0 99 0;
#X connect 99 0 107 0;
#X connect 100 0 101 0;
#X connect 100 1 101 1;
#X connect 101 0 102 0;
#X connect 102 0 103 0;
#X connect 103 0 122 0;
#X connect 103 0 106 0;
#X connect 104 0 61 0;
#X connect 104 1 108 0;
#X connect 105 0 70 0;
#X connect 107 0 100 0;
#X connect 108 0 105 0;
#X connect 109 0 110 0;
#X connect 110 0 68 1;
#X connect 111 0 112 0;
#X connect 112 0 113 0;
#X connect 113 0 121 0;
#X connect 114 0 115 0;
#X connect 114 1 116 0;
#X connect 115 0 119 0;
#X connect 116 0 118 0;
#X connect 117 0 120 0;
#X connect 118 0 117 1;
#X connect 119 0 117 0;
#X connect 119 1 118 0;
#X connect 121 0 117 0;
#X connect 122 0 95 0;
#X connect 123 0 124 0;
#X connect 124 0 125 0;
#X connect 125 0 126 0;
#X connect 126 0 127 0;
#X connect 127 0 130 0;
#X connect 128 0 129 0;
#X connect 129 0 124 1;
#X connect 129 0 125 1;
#X connect 129 0 126 1;
#X connect 129 0 127 1;
#X restore 498 274 pd speedarea*;
#X connect 0 0 18 0;
#X connect 1 0 3 0;
#X connect 2 0 19 0;
#X connect 3 0 2 0;
#X connect 3 1 4 0;
#X connect 3 2 5 0;
#X connect 3 3 6 0;
#X connect 3 4 7 0;
#X connect 3 5 8 0;
#X connect 4 0 20 0;
#X connect 5 0 21 0;
#X connect 6 0 22 0;
#X connect 7 0 23 0;
#X connect 8 0 24 0;
#X connect 9 0 10 0;
#X connect 10 0 52 0;
#X connect 14 0 13 1;
#X connect 15 0 55 0;
#X connect 16 0 11 0;
#X connect 17 0 54 0;
#X connect 18 0 27 0;
#X connect 18 1 1 0;
#X connect 26 0 32 0;
#X connect 27 0 28 0;
#X connect 28 0 25 0;
#X connect 30 0 39 0;
#X connect 31 0 30 0;
#X connect 32 0 39 0;
#X connect 33 0 41 0;
#X connect 34 0 42 0;
#X connect 35 0 43 0;
#X connect 36 0 44 0;
#X connect 37 0 45 0;
#X connect 38 0 46 0;
#X connect 41 0 39 0;
#X connect 42 0 39 0;
#X connect 43 0 39 0;
#X connect 44 0 39 0;
#X connect 45 0 39 0;
#X connect 46 0 39 0;
#X connect 47 0 48 0;
#X connect 48 0 14 0;
#X connect 50 0 49 0;
#X connect 52 0 13 0;
#X connect 52 0 29 0;
#X connect 53 0 51 0;
