#N canvas 108 31 309 366 10;
#X obj 166 313 dac~;
#X obj 216 176 adc~;
#X obj 145 273 *~;
#X obj 199 272 *~;
#X obj 204 26 loadbang;
#X obj 204 49 delay 100;
#X obj 204 96 vline~;
#X obj 127 158 *~;
#X obj 43 119 osc~;
#X obj 42 27 loadbang;
#X obj 42 48 random 1000;
#X obj 42 69 + 300;
#X msg 204 72 0.3 100;
#X connect 1 0 2 1;
#X connect 1 1 3 1;
#X connect 2 0 0 0;
#X connect 3 0 0 1;
#X connect 4 0 5 0;
#X connect 5 0 12 0;
#X connect 6 0 7 1;
#X connect 7 0 2 0;
#X connect 7 0 3 0;
#X connect 8 0 7 0;
#X connect 9 0 10 0;
#X connect 10 0 11 0;
#X connect 11 0 8 0;
#X connect 12 0 6 0;
