#N canvas 553 310 357 565 12;
#X obj 85 372 cos~;
#X obj 85 277 line~;
#X obj 85 348 wrap~;
#X obj 85 300 *~;
#X obj 65 208 t b b;
#X msg 65 238 0 10;
#X obj 85 396 hip~ 1;
#X obj 85 324 *~ 5;
#X obj 108 529 dac~;
#X obj 65 148 t b b;
#X obj 188 211 random 12;
#X obj 65 105 metro 100;
#X obj 65 75 tgl 19 0 empty empty empty 0 -10 0 12 #fcfcfc #000000 #000000 0 1;
#X obj 176 76 * 10;
#X floatatom 223 137 5 0 0 0 - - - 0;
#X obj 176 100 + 100;
#X obj 176 52 random 30;
#X msg 110 238 1 0;
#X obj 65 45 loadbang;
#X obj 203 445 adc~;
#X obj 108 489 *~;
#X obj 162 490 *~;
#X obj 85 420 *~ 0.25;
#X connect 0 0 6 0;
#X connect 1 0 3 0;
#X connect 1 0 3 1;
#X connect 2 0 0 0;
#X connect 3 0 7 0;
#X connect 4 0 5 0;
#X connect 4 1 17 0;
#X connect 5 0 1 0;
#X connect 6 0 22 0;
#X connect 7 0 2 0;
#X connect 9 0 4 0;
#X connect 9 1 10 0;
#X connect 10 0 7 1;
#X connect 11 0 9 0;
#X connect 11 0 16 0;
#X connect 12 0 11 0;
#X connect 13 0 15 0;
#X connect 15 0 14 0;
#X connect 15 0 11 1;
#X connect 16 0 13 0;
#X connect 17 0 1 0;
#X connect 18 0 12 0;
#X connect 19 0 20 1;
#X connect 19 1 21 1;
#X connect 20 0 8 0;
#X connect 21 0 8 1;
#X connect 22 0 20 0;
#X connect 22 0 21 0;
