#N canvas 317 110 1025 776 10;
#X obj 471 98 bng 40 250 50 0 empty empty empty 17 7 0 10 #fcfcfc #000000 #000000;
#X obj 57 347 noise~;
#X obj 59 423 bp~ 0 50;
#X obj 108 262 bng 15 250 50 0 empty empty empty 17 7 0 10 #fcfcfc #000000 #000000;
#X obj 192 350 noise~;
#X obj 194 426 bp~ 0 50;
#X obj 324 353 noise~;
#X obj 326 429 bp~ 0 50;
#X obj 447 360 noise~;
#X obj 447 436 bp~ 0 50;
#X obj 575 353 noise~;
#X obj 577 429 bp~ 0 50;
#X obj 709 365 noise~;
#X obj 711 441 bp~ 0 50;
#X obj 358 605 out~;
#X obj 375 546 *~ 0.5;
#X obj 132 316 r num;
#X obj 106 296 random 500;
#X obj 106 338 +;
#X floatatom 145 344 5 0 0 0 - - - 0;
#X obj 109 395 line;
#X obj 241 257 bng 15 250 50 0 empty empty empty 17 7 0 10 #fcfcfc #000000 #000000;
#X obj 265 311 r num;
#X obj 239 291 random 500;
#X obj 239 333 +;
#X floatatom 276 340 5 0 0 0 - - - 0;
#X obj 242 390 line;
#X obj 370 267 bng 15 250 50 0 empty empty empty 17 7 0 10 #fcfcfc #000000 #000000;
#X obj 394 321 r num;
#X obj 368 301 random 500;
#X obj 368 343 +;
#X floatatom 403 345 5 0 0 0 - - - 0;
#X obj 371 400 line;
#X obj 493 269 bng 15 250 50 0 empty empty empty 17 7 0 10 #fcfcfc #000000 #000000;
#X obj 517 323 r num;
#X obj 491 303 random 500;
#X obj 491 345 +;
#X floatatom 526 347 5 0 0 0 - - - 0;
#X obj 494 402 line;
#X obj 630 267 bng 15 250 50 0 empty empty empty 17 7 0 10 #fcfcfc #000000 #000000;
#X obj 654 321 r num;
#X obj 628 301 random 500;
#X obj 628 343 +;
#X floatatom 663 345 5 0 0 0 - - - 0;
#X obj 631 400 line;
#X obj 773 275 bng 15 250 50 0 empty empty empty 17 7 0 10 #fcfcfc #000000 #000000;
#X obj 797 329 r num;
#X obj 771 309 random 500;
#X obj 771 351 +;
#X floatatom 806 353 5 0 0 0 - - - 0;
#X obj 774 408 line;
#X obj 160 32 hradio 16 1 0 6 empty empty empty 0 -8 0 10 #fcfcfc #000000 #000000 0;
#X obj 160 68 t b a;
#X obj 191 94 * 500;
#X obj 191 115 s num;
#X floatatom 255 114 5 0 0 0 - - - 0;
#X msg 108 369 \$1 500;
#X msg 241 364 \$1 500;
#X msg 370 374 \$1 500;
#X msg 493 376 \$1 500;
#X msg 630 374 \$1 500;
#X msg 773 382 \$1 500;
#X text 312 30 6가지모드 노이즈피치;
#X obj 778 26 loadbang;
#X obj 501 53 tgl 16 0 empty empty empty 0 -8 0 10 #fcfcfc #000000 #000000 0 1;
#X obj 501 74 metro 1000;
#X text 578 77 특정모드에서서 움직임이이 감지될 때마다 주파수안에서랜덤덤 노이즈칼라발생eeeee;
#X obj 611 40 receive PlayOn;
#X connect 0 0 3 0;
#X connect 0 0 21 0;
#X connect 0 0 27 0;
#X connect 0 0 33 0;
#X connect 0 0 39 0;
#X connect 0 0 45 0;
#X connect 1 0 2 0;
#X connect 2 0 15 0;
#X connect 3 0 17 0;
#X connect 4 0 5 0;
#X connect 5 0 15 0;
#X connect 6 0 7 0;
#X connect 7 0 15 0;
#X connect 8 0 9 0;
#X connect 9 0 15 0;
#X connect 10 0 11 0;
#X connect 11 0 15 0;
#X connect 12 0 13 0;
#X connect 13 0 15 0;
#X connect 15 0 14 0;
#X connect 15 0 14 1;
#X connect 16 0 18 1;
#X connect 17 0 18 0;
#X connect 18 0 19 0;
#X connect 18 0 56 0;
#X connect 20 0 2 1;
#X connect 21 0 23 0;
#X connect 22 0 24 1;
#X connect 23 0 24 0;
#X connect 24 0 25 0;
#X connect 24 0 57 0;
#X connect 27 0 29 0;
#X connect 28 0 30 1;
#X connect 29 0 30 0;
#X connect 30 0 31 0;
#X connect 30 0 58 0;
#X connect 33 0 35 0;
#X connect 34 0 36 1;
#X connect 35 0 36 0;
#X connect 36 0 37 0;
#X connect 36 0 59 0;
#X connect 39 0 41 0;
#X connect 40 0 42 1;
#X connect 41 0 42 0;
#X connect 42 0 43 0;
#X connect 42 0 60 0;
#X connect 44 0 11 1;
#X connect 45 0 47 0;
#X connect 46 0 48 1;
#X connect 47 0 48 0;
#X connect 48 0 49 0;
#X connect 48 0 61 0;
#X connect 50 0 13 1;
#X connect 51 0 52 0;
#X connect 52 0 0 0;
#X connect 52 1 53 0;
#X connect 53 0 54 0;
#X connect 53 0 55 0;
#X connect 56 0 20 0;
#X connect 57 0 26 0;
#X connect 58 0 32 0;
#X connect 59 0 38 0;
#X connect 60 0 44 0;
#X connect 61 0 50 0;
#X connect 64 0 65 0;
#X connect 65 0 0 0;
#X connect 67 0 64 0;
