#N canvas 932 302 988 605 10;
#X obj 138 263 cnv 16 162 60 empty empty Amplitude_Envelope 24 -12 0 16 #acdcb4 #404040 0;
#X obj 146 343 dac~;
#X obj 146 304 *~;
#X obj 216 290 vline~;
#X msg 216 269 1 10;
#X obj 256 188 receive PlayOn;
#X obj 47 38 receive LowTone;
#X obj 214 47 receive HighTone;
#X obj 87 176 osc~ 440;
#X obj 88 94 + 100;
#X obj 211 108 - 300;
#X connect 2 0 1 0;
#X connect 2 0 1 1;
#X connect 3 0 2 1;
#X connect 4 0 3 0;
#X connect 5 0 4 0;
#X connect 6 0 9 0;
#X connect 7 0 10 0;
#X connect 8 0 2 0;
#X connect 9 0 8 0;
#X connect 10 0 8 0;
